<mxfile host="65bd71144e">
    <diagram id="Tfi2-Z4_MrbzrsisjBN8" name="Page-1">
        <mxGraphModel dx="373" dy="590" grid="1" gridSize="10" guides="1" tooltips="1" connect="1" arrows="1" fold="1" page="1" pageScale="1" pageWidth="850" pageHeight="1100" math="0" shadow="0">
            <root>
                <mxCell id="0"/>
                <mxCell id="1" parent="0"/>
                <mxCell id="3" value="" style="rounded=0;whiteSpace=wrap;html=1;" vertex="1" parent="1">
                    <mxGeometry x="50" y="350" width="770" height="480" as="geometry"/>
                </mxCell>
                <mxCell id="7" style="edgeStyle=none;html=1;exitX=1;exitY=0.25;exitDx=0;exitDy=0;entryX=0;entryY=0.25;entryDx=0;entryDy=0;" edge="1" parent="1" source="5" target="4">
                    <mxGeometry relative="1" as="geometry"/>
                </mxCell>
                <mxCell id="6" value="" style="endArrow=classic;html=1;" edge="1" parent="1">
                    <mxGeometry width="50" height="50" relative="1" as="geometry">
                        <mxPoint x="380" y="600" as="sourcePoint"/>
                        <mxPoint x="430" y="550" as="targetPoint"/>
                    </mxGeometry>
                </mxCell>
                <mxCell id="8" value="" style="rounded=0;whiteSpace=wrap;html=1;fillColor=#f9f7ed;strokeColor=#36393d;" vertex="1" parent="1">
                    <mxGeometry x="130" y="410" width="180" height="120" as="geometry"/>
                </mxCell>
                <mxCell id="5" value="" style="shape=image;verticalLabelPosition=bottom;labelBackgroundColor=default;verticalAlign=top;aspect=fixed;imageAspect=0;image=data:image/png,iVBORw0KGgoAAAANSUhEUgAAAggAAAGGCAYAAAAernlWAAAAAXNSR0IArs4c6QAAIABJREFUeF7snQe8HFXZ/79Tdvf2m14orxQFFRGIhBYUXkBQQXzpvRN6TSWFUAIhFLGBf0CJQaT3Ik1pojRRqhRRekJ6bm7f3Sn/zzmze1vKvTd3y+zsM3xQIDOn/J5nz3znnOc8x/B930cuUUAUEAVEAVFAFBAFuihgCCCIP4gCooAoIAqIAqJATwUEEMQnRAFRQBQQBUQBUWA1BQQQxClEAVFAFBAFRAFRQABBfEAUEAVEAVFAFBAFeldAZhB610juEAVEAVFAFBAFyk4BAYSyM7l0WBQQBUQBUUAU6F0BAYTeNZI7RAFRQBQQBUSBslNAAKHsTC4dFgVEAVFAFBAFeldAAKF3jeQOUUAUEAVEAVGg7BQQQCg7k0uHRQFRQBQQBUSB3hUQQOhdI7lDFBAFRAFRQBQoOwUEEMrO5NJhUUAUEAVEAVGgdwUEEHrXSO4QBUQBUUAUEAXKTgEBhLIzuXRYFBAFRAFRQBToXQEBhN41kjtEAVFAFBAFRIGyU0AAoexMLh0WBUQBUUAUEAV6V0AAoXeN5A5RQBQQBUQBUaDsFBBAKDuTS4dFAVFAFBAFRIHeFRBA6F0juUMUEAVEAVFAFCg7BQQQys7k0mFRQBQQBUQBUaB3BQQQetdI7hAFRAFRQBQQBcpOAQGEsjO5dFgUEAVEAVFAFOhdAQGE3jWSO0QBUUAUEAVEgbJTQACh7EwuHRYFRAFRQBQQBXpXQAChd43kDlFAFBAFRAFRoOwUEEAoO5NLh0UBUUAUEAVEgd4VEEDoXSO5QxQQBUQBUUAUKDsFBBDKzuTSYVFAFBAFRAFRoHcFBBB610juEAVEAVFAFBAFyk4BAYSyM7l0WBQQBUQBUUAU6F0BAYTeNZI7RAFRQBQQBUSBslNAAKHsTC4dFgVEAVFAFBAFeldAAKF3jeQOUUAUEAVEAVGg7BQQQCg7k0uHRQFRQBQQBUSB3hUQQOhdI7lDFBAFRAFRQBQoOwUEEMrO5NJhUUAUEAVEAVGgdwUEEHrXSO4okAIeYODrv8HMaa2q7NyWmNPmSWEhV0D5T/Yyyb03Bb4f/C2XKBAWBQQQwmKJMm+HQgJfg4GPHoD9zCDs23rU9DMjp4+jX/S+72H4nf/dM2w9vJoY+r/rorKXAV7meRmEy9zR1rP7qwGCr5xPFWZ1vNkDl1OAm33de/jqPuWZyvF8M3BY7YxGJw2Y4p/raRZ5LM8KCCDkWWApvm8KKDjwMoAQDJ9qADYxfLNjTPX0wOti4XX70nIBDxMfCwsTKwsIGgr8ADB02Yb+Sw/YfWuW3CUKaAW6AkLgVj6GetkHbqV91NX/6uBlINbS3qaQVf13N+PPNniZuawMJ/iG3wHAwX8S7xS3C4cCAgjhsIO0QuOBiZvBhOyCgHr5p3FIkyRFm/7/z1o/wszMEOjx2TQZWjmaOuqxiBEnQRybuB5oFUxkh/dgliGYaZBLFOi7Al0BoevkVFojq0KCJEntn2kWJj/XBbuuq2e6lA+OrB7BIAZp71SeaRPDwtZYHOCHq9A245ninX23jNyZTwUEEPKprpTdZwX0AOz7eoC1DFPDQCttvN7wL55640980PAeHzf9h6Xti2h1WnGcNKaat83M2CZiCYbHRvGNYd9ik6rN2Otru/O9jXciRoJKqoM5iS5LEmoolksU6KsC2aiDlOthmdBOO46R5s2md3jizad4+8s3+bztE5YkF5Fy06TTjp61Ul7m4lJVmWBYbDhfqdqUr9Ztwe5f243dNtmVSqOKCqrwfI+YGetrc+Q+UaAgCgggFERmqaQvCviuT4vZyofpj3jm42d56LWH+VfD27S5zcGXlqmmcX08S03JBt90wXSsga3Wdz01IKvvMJvKZILtRm3DD779ffbb/AdsVLEBCbcG00wEzxnyldYXm5TrPdlZAh3PkllJUD6Y8tN8ml7Inz95ngf+cT/vLH+NRrdBw4BpG3imglxPzyroaSojExPjqSUGUG4bT1RQ7VSxVe032Hurvfj+Znuwdf03iVGjZxfkEgXCooAAQlgsUY7tUO94B7B9MD0Ws5j7PnyAOXddxara5TgVraTV+qwOI8iu5nYGdGUlM/QgHNyXjQEzfAvbt6lI2wzyazjpgOM4Y6NTGOZtiGsaWL6Nr54rR92lz+tUIBvCopexXPAs5XMujazgueV/4bzfTGNl9WJS8cYgdiBLEyq2Vs1oZfxQ/1nXP8/WqtnUwHLiJBybqhabo398COduNZkN/U0xDRtLBTKqci0xlihQPAUEEIqnfXnXnFnU9QyPlNHGv5JvMfvBOby86J80xVpot1vAdzqCwIKv/r5IZnYEiasH1CAf9ywShs24wbswc8+ZbDdoLAmqwFARDvozry8Fyz3lpECGElzTp50kH/MhVzx6BX/673M0WE2kE23af1RArJpl0NEu2biYbMBCNgixy9JWZtorAw4BoMZci7hhss2g7bnoR5exc/XO1FAR+L4Km5FLFCiSAgIIRRK+3KtV07UuDk008ciHDzP36Sv41FtAyvZw3GBfghp5VYBhFgz6CgjB95kCCgNXrxlbxGMxjDR8Jb0x0/aewb6b/5hKI07cqJSQxXJ3xjX2P/DQVtr58xd/Zsaj0/iv8zGpmIotUFwZxL8YvhPsmukykaDjErOXmgjoCgjZ7bb6mWDmSxGtZZlYRgXDndFMHjeBY799tIYEK7N9V0wkChRDAQGEYqgudZKmjTaaufHVm7nyxStpqGjC9V3UEmzMUV9jht42psfizBxuXwFBzRpkt4tllxxcE2zPxfQN6tODmfH9aRy2xfEM0ZHl8pkmLtldAY8ULs3c/PofuPKvV/IpC/ErMlP+CgAyubxUTEHP3BrdACFTbAczmEEcgvJR5YtZ/+xMjWBTl6xjyi7ncf6YScS0d8o6g/hncRQQQCiO7mVaazaBDKxiOb997Ubm/uUaVlQ24tk+pmEST3tYajeDif5bDaBmZnTtDyAogS0PFBgo0FBbz21PZUsI4hmqW4dx6rgzmDx2AvVUY2b+JBOTVqb2KfduZ/cq+CRpYv6rN3LN367m0/hS7YvKRdT/2cqv7OBvtUqV3XKbVW+9AKEjZtbH8kyGJEdw/JgTmDpuAkOMwUEOhY6VMFkSK3dPLVT/BRAKpXQ516OnUzMh3Dou0eE3793IjGdn0eQ1YcZNHauosieqKVeVJEnHh2UGTfWl1f3quhN9dWGza8JqFliXYwRxCaYfAIJaKzY9i8pUFRO+N5HTtzmJof4wLKsik41BghfLyl01FQapulQorNqWeP8n93Le0+eyLLmMlPrkz8wYaEjIuJ8KXtSbFdbijtk8Sj21zPpnNhOoTvuVTeqVudlUkGAPZtYekzlqs2Opd4dhWApQVKWyA6es/LOInRVAKKL45VO1B56j1219bF533mDfq37IsiHLtQTZLyOVKTFAg96uvtzTtYwsYHR/TmVpHJQeyTnfO5NztzmZenc4nhXMJchVTgooAHBRGQ0N4rydep/9f/YjPh30CWrrbeCkPQ5L6MKs2Rd+T8XWBgirKZsFYL2nsvNS/1rfVsFvDr2JgzY4TLetI4uzTCKUk4MWra8CCEWTvowqVrEFeDoX4tJ0M4fdciivt79GOpbENIPXscpZnz9AWIvWvkHMr6TGHcr47Y/lgp3OoY6hmaBFGYHLxkNVjgJD5S9wWWWkOOWuk3lqxRO0GI3dJejqEj3cY03e0l+MXZPehgPbVm3NLUffzlZ8HcO0MNTUmFyiQAEUEEAogMjlXkUwUHoq9xzXvnUtP3vhpzSYK1cb6IKzFvoyrPblnr6pHnNiOIbNIHcoZ407hdO2PZ4R5gaZqdy+lSF3lbYCwY7GIMHRDf+6gauen8NSeylpXyVSXstVqHe0CzGvgmO3PIaf7nkFddRhyM6G0na4Emq9AEIJGatUm5pWSYzweav1Lb7/8+/RVNNEvDpBSm9n7LyCvPR9efn35Z6+qaUAQddpxaloq+LUnU9i2k7TqNOBi1aeDp/uW9vkrsIooLww6bl86nzGATd9nwXxBbQ57bjr2jxQKEBwYpgWjDZHcN/R9/Cd+DbYltpOIQthhfGO8q5FAKG87V+Q3rv4rKSBq1+9mBtevpnmRBueqfaAdx9lDR3+3ZeXf1/u6X/XTN+kOlXFGWPPYebOk6ikTu9rC46RksDF/itaGk8oQGgmyU0fXMvcJ66kobIFz1R7bYvdfrX9Jq638Viey5HfPpRf7HK9PvRJjhsrtm3Ko34BhPKwc1F7qRIiLfC+YP+7DuDDle+RthwctYUxe/RyNtFMF0BY9/dRfgBBiaR2N1S1DOHc3c/k/DGnMNgYgW/I0U5FdaA8V67OTVjgfM7/3X4g7ze+Szqm/FOdnZA/P+tzl7yE3ktp+C6j2ofz2Pgn2apandugZr4KNY3R59bKjRFTQAAhYgYNRXe6JBNQ/6iOwr33/ds57enzabdadG4DdeiSihrvtsSQzVXb6wRq/gZu1STLTWCl6zl7p5OYuNPpDHOGY9rqkCcZkEPhXzluRJoUf/78SQ6683Dc+iDuwDUUNvQ+hZB3hvBtPdOmMopWJuNctNulnLXtaVSqVOEdywzZ/A05FkaKK3sFBBDK3gXyIEAPQGikkQkPnM09n91Je4VKVWtqQNBJ7LtcfigAwcB24zp3Qn16COPHHs+5u5zGCFTgoqz75sFbil6kyuk58/EZzPvgBlqrk9o/1SvXC7JzrPPKNyCoHCBqVkvBim3E2Gvk3tx5wHxqGdQBCEHsjloEk0sUyK0CAgi51VNKUwr0AIRP3M84+LYD+GDVG6Ti4OijlrOAkF1o0HmSOq51D3b5nEEwsFQGHMPDtquobKvi+O2PYfJOExlqDMI2VDKloHWCC6Xq7t39RwHsoQ8ezkuf/5n2ClfDod7Z0IeYmIIAgm/gqYRMMZtNjK/wt5OfYQSj8H1Ln0iaTfAk/liq/hjedgsghNc2pdmyrmOvirEC/t76d354zw9Z1b5SZYzVaWM7AcHryESX78F2fQWtTlYzcbeJnLPNaQxmKL4OXFR7HOSbbX01Le5z3ZcOlrGMbX+/HYuTX+JreA0YV+Xm6C1SMd8+G2RpVH7m6wyg1e1V/OWUZ/l25bbYfgzfNHDwsGR+q7guFdHaBRAiatiidWsNgPBi44vsc8feJEkGzTLUvoDgnAU1AGdT1eZ7sF1fTUwvRr07lFPGHs+FO55HpZ7eVTEJcpWmAt2PW1zGUja//qu0xFoC99Rf5UHirt6uQvtsZVsFf/jRrez7tf1IZI6EVkemq/ksmUHozVry5/1VQAChv4rJ/etWIMg605GaVm0hu/+T+zn2saNJ2+nMn2W3M2aOXcyUuKZDbsIgtwoSsz2bhDeY88adyjnbjGewORJTpb6VqwQVUKmV1TJCcJT4k/99jIP+eCjtFRmAzSROCjA2XFdlspLpX5/B5O9PIuEnggkOdSqZ4EG4DBWR1gggRMSQoelGlzFVfYWpkxR/9/YtnP3iaaTMrpnpsiTR2XL9IRTCSwFCzLXwDIMadzBnjjuFM8aczig2CGFrpUm9KaDBQAGCOhzM9DUgHPhoJyB0ziCEDxAqUhWcsvHpzP7JpdT5NQIIvRlb/nxACgggDEg+eXiNCuh512Ca1jUc/t8/bmDiq5NIW52AYPTYwaDKCSsgqLapI3hVf0wjTk2qUh/Fe+GuM6inRi83qK9NtRlNpnnD/5voCgiO6XDXO3dyytOn0p5o7zwbRM8vhBAQ0gmOHHEU1x7yM+qpzazTqZk4iYcJv+eVXgsFEErPZiXQYl8PXAEgJLn+n9cz6ZULcKxsauVgaWG1Ia3LpELYh7sh6aGctvNpnLndSYwyN9CnVKrgRQGEsLunevG7esVeBf0ljXbmv3UrE547l1QipeMP1BXEIIQPEBLpBIeNOJTrD7mOGjWDoNsb9l9L2H1C2rc2BQQQxDdyroAaXNW0vD4ARwHC69cz5dULUF9r3a7MuJadTOga8JUNXMx543JVoBejqr2Ws8edwoU7qMDFwSDZ7XKlbh7L6QkIbcx/az4Tn59IKtE5wxVeQIhz6MhDueHg66jyasBUORtk5iqPDlPWRQsglLX589P5cgAE01NnSdjE0rVM2OV0po49R5/dYKnIcrlCrEAGEHxb71JIGm3Mf3sek/4yhWQs1dHu0gEElWNRdjCE2OFKumkCCCVtvnA2vhwAQcUkqL9V4GJVehCn73IS54w5mxHWqExOOzWDIpO/4fPQtQHCVJKx8O9iSKR7ziAIIITPx6LTIgGE6NgyND3pCQjXvX49U1+eGhyAk73WtHQaviXftWqqlkD0MorOYWNRmYpzzq7nMWHMWdQn67ETVRK4GBqP7NqQbPKjIH1xinbmvzOPCc9N7gEIKowmfA4pgBBKp4psowQQImva4nWsHABhTeoOTY1i/JiTmLjLGQzzRuKblr5NQsiK54ur1yyAECZrSFvCrYAAQrjtU5KtK1dAiFNFfXIo43c+gQnbncJQa1QmgY0gQngcWQAhPLaQloRdAQGEsFuoBNtXtoDgmrh+ggq3jgnjTmfamHNJUIOJXYJWjGqTBRCialnpV+4VEEDIvaZlX2LZAoJjBxn6MKhM1jN+h+OYsesM6jQkqAwJErhY/B+HAELxbSAtKBUFBBBKxVIl1M5yBYQgcDEwlOFbqLS45313AmduO55h/nAsSx0V7etdDrLoUCyHFkAolvJSb+kpIIBQejYLfYvLFRAUHHR98avZhPr0CM4adzrnjzmFQe4IfEvhgVzFU0AAoXjaS82lpoAAQqlZrATaK4DQaaSYV0mNO5Tjtz2KGbuex2BGdB51WQK2jF4TBRCiZ1PpUb4UEEDIl7JlXK4AQhdAcGI4hk1tehBn7HIy53/ndIaYIzAJtkDKVWgFBBAKrbjUV7oKCCCUru1C23IBhO6AoI7+cQ2LeHs1Z+96ChfsMIVaqrGI6YBG9cqSQ54K5c4CCIVSWuopfQUEEErfhqHrQbkCwpoM0RlvYOgTLquSlZy7yzlM2f48qqnDJI6nAaE7IsgZfflyawGEfCkr5UZPAQGE6Nm06D0SQFi7CQzPojY1hDN2OYmJ252mkyl5JFYLXBRAyJcbCyDkS1kpN3oKCCBEz6ZF75EAwjoAwTewPBvbqeXcXU5h4nfOoC41mFi8pttDAgj5cmMBhHwpK+VGTwEBhOjZtOg9EkBYFyBAzLVwTJNB7lBOGnMME3c+l6GM7rbMIICQLzcWQMiXslJu9BQQQIieTYveIwGEdQACYLumPinQNCuoTddy8s4ncM425zLSGoahAxeDfAoSuJgPVxZAyIeqUmY0FRBAiKZdi9orAYT+yV+TquacXc7hgjETqaYWsHS+RUtSKvVPyD7dLYDQJ5nkJlFAZ4T1/fAdei6mKWkFBBD6Zz7Ds6lur2f82OOYPW4ylQzGIC4JmfsnYx/vFkDoo1BymygggCA+kHsFBBD6p6npG5gqcDFdy4RdT+PMbU9mGMOJm90DF/tXqty9ZgUEEMQzRIG+KiAzCH1VSu7rswICCH2WSt+oACHmWLgm1LhDOGPceM7b7iyGM6p/BcndfVBAAKEPIsktooBWQABBHCHnCggg9E9SHZDoqZBEH8OIU5Ou4phvH8n0701jmD8Iy6jSyZTUGZA9D3qSg5/6p7XSGK2mhYdHinbmvzOPCc9NJhlLdhSm7lKBpGG7Euk4h448lBsOvo4qrwZMA2+1NFtha7W0p1QVEEAoVcuFuN0CCAM3Tn1yEKfudBpnf2c8G5ob4mPjryFsUXY69FdrAYT+Kib3l68CAgjla/u89VwAYeDS2mYlVclaTtn+WC7ecSKVDAHiqxUsgNBfrQUQ+quY3F++CggglK/t89ZzAYSBS2t5BoZvU+EN4pRtj2XWuMlUM1if3dD1EkDor9YCCP1VTO4vXwUEEMrX9nnruQDCwKW1PRPLNXFNg0RLNWftfirnjDmXEebIbivOAgj91VoAob+Kyf3lq4AAQvnaPm89F0AYuLQ61bKfCUH0LSrSMU7efjxTd57ASG84mFX4mfA0gYT+6C2A0B+15N7yVkAAobztn5feCyDkRVYGpYZx/LbHMmXXsxjFBkBMJ2SWnQz90VsAoT9qyb3lrYAAQnnbPy+9F0DIi6wkrCqq2ms5bsyRTN/hHIZYo7BIZE5uyE+d0StVACF6NpUe5UsBAYR8KVvG5Qog5Mf4tqf2vFtUuIM4a4cTmT52AjUMxlrD7ob8tCAKpQogRMGK0ofCKCCAUBidy6oWAYT8mDvmmjouwcMg0VrNKTufwIXjLqSOWixsPZOQPQkyPy2IQqkCCFGwovShMAoIIBRG57KqRQAhP+bWsQY6uZ/aAmlSmUow/jvjmbDT2YwyR2HrjIs+xhoOipZAxqxNBBDy451SahQVEECIolWL3CcBhMIYQEFCjTOUU7c/nsk7nskIfzSeoQIXVw9bFEAQQCiMV0otUVJAACFK1gxJXwQQCmUIg7iRoCpdz9FbHcrFu01mECPUAsRqDRBAEEAolFdKPdFRQAAhOrYMTU8EEApjCjVPoOISHMOiJl3Pyd85lok7nsMIayNMrG6NEEAQQCiMV0otUVJAACFK1gxJXwQQCmMIBQi2a+nQRMeFWFslZ+92OtN2mEE9NRg6cDG4BBAEEArjlVJLlBQQQIiSNUPSFwGEwhmiM9rAUOcTU5Ws4MRtTuLC3aYw2B+GacR1XKMpCZUyRpEgxcJ5p9RU6goIIJS6BUPYfgGE4hnF8CwG+yM4ftsjmTr2TIbbG+ATFzzoMIkAQvG8U2ouNQUEEErNYiXQXgGE4hlJ5UmwPJuEMZjTvnMc08eexxBGZhYZJClzsE/UAyw8PFK0M/+deUx4bjLJWLIbRviG3lMaqiuRjnPoyEO54eDrqPJqwFR5MdT8kFyiQO4VEEDIvaZlX6IAQvFcQL3TYq6FYxrUJgdxwphjmPHdSRoSegYuFq+VxaxZAKGY6kvdpaWAAEJp2askWiuAUDwzqTkCdUw0ho/rmNR59Zy447FM3H4CI6xh2FToVErq6jmfUB7zCwIIxfNOqbnUFBBAKDWLlUB7BRDCZaSqZCVn7ngmU3c4n8EMy0yvrx62qI+YDlfT89AaAYQ8iCpFRlQBAYSIGraY3RJAKKb6q9dteDaDvOEctdXBXLHbdKoYDGtIpiSAIDEI4fJcaU2xFRBAKLYFIli/AEK4jGrqwMUYFf4gTv3OsUzY/kxGWKNXy7gogCCAEC7PldYUWwEBhGJbIIL1CyCEy6gKEGKOhQpNsFoqOHPX05iy0ySG690NnZcAggBCuDxXWlNsBQQQim2BCNYvgBAuo6oXv+mpjXA+nmtQ69Vy5NZHcunuFzGEwRjE9SmQ5hrPgQxXXwbeGolBGLiGUkK5KCCAUC6WLmA/BRAKKPZ6VlWfrOekHcZz/vansYG1kUrarIMXo7+fXgBhPV1GHitDBQQQytDo+e6yAEK+FR54+SYJ4i0VHL/NkVy9xyyqGIJBDCPy+xgEEAbuPVJCuSgggFAuli5gPwUQCij2elZleQaGbxFL1zJ+u2OZ9d3J1PmDiRlV61liqTwmgFAqlpJ2Fl8BAYTi2yByLRBACL9JLc/Edk1c06DOHcKJY4/i/O3PZ5Q1OpO4V50RGcW8CAII4fdOaWFYFBBACIslItSOkgYE38D2bDwzje/ZwZS76eCFMC//QFxG71jwM2mRfIuKdIzx3zmZGbtMZTjD8Yih7biGqITSjlMQQBiI38iz5aWAAEJ52bsgvS1lQIg7Nj/5+o/xLI9H3nyWVEUSfAcMtyDaFbOS+uQQjt76KKbvfi6j2QifWOaQp+6tEkAonpXksKbiaV+ONQsglKPV89znUgaEilSC8V87gUnfP49Jj83kkc+fod1sAaNzj3ye5Sta8eqchkRLJUdtcxizd5vCYHMUllG5WnsEEIpmIgQQiqd9OdYsgFCOVs9zn0sbECoYv9mpXPOjmTTQzFmPz+KBDx/FTTQQxuN/c2lK21NHBweBi2eNPZFpO53PIEZi6C2QnZcAQi5V719ZAgj900vuHpgCAggD00+eXoMCpQ4IJ212Klf/aCY2lXyUXMjMP13Io588TMpO4RueTjikQhPUanaULhW0qLIueoYKXBzK0d8+lIu+dwl11GJ2gQQBhOJZXQCheNqXY80CCOVo9Tz3uZQBoTJVwSmbnsbcfS8nQYI0Psu8lUx5fAIP/ecx2uONmL6PZ/o4poKF6Fw6ZFFTjwpNNKlyqjh+2+OZttMkRlob6ERKyrarnwNZShpIkGIpWUvaWlwFBBCKq38kay9lQKhKVnDqZqczd98riOsUxOAA7SznrD9O4O6PHiEda8bExTGjNofQ3R0N3yTRWsvpO5/M9J3OYZg/Ct8o9WRKAgiRHHSkU3lRQAAhL7KWd6FRAwRPf1Gn+TL5CdOfm8PDH/6RJnsVrpmKuKENTNemMl2nj4q+bM9pVKfrqYrVl3CGBAGEiDutdC+HCggg5FBMKSpQIGqA4OpsCB4mKZZ4i5j4yIU88umjNFU0RNrkaskh5po4hqXB4MQxR3P+jqezkb2pCmUs0b4LIJSo4aTZRVBAAKEIoke9yigCAhoQFCi0sZBFTHhgCn/84jHaY0kwPJ10SMUlRGnRQQGC7VqonIqeYZNIVnPqDscxY+cLqadGQ4JKpaT6XDqBiwIIUR9/pH+5U0AAIXdaSkkZBaIGCNl8gkHeQR8Pjy9Sn3Hx0xdzz7sPkKps0dH/jhXRwEXdb7Vtw6AqVcGxWx3LpXvMpJ7BqNwJKoWUClzseulMjaH8RQgghNIs0qhQKiCAEEqzlHajog0IgW082mnwljL5yVnc8eGDuHYjrunhls6n9Ho5meFZDPKGc/x2RzB57JmMsjfCI7EaDAggrJe8vT4k2xx7lUhuyKECAgj8TdHoAAAgAElEQVQ5FFOKChQoB0AI9gO208pKznxsGne9dx/tVa34VpQWGVb3aLWUYnk2FeYQTtj6cGbuMoERjMIjLjMIBRgABBAKILJU0aGAAII4Q84VKAdAUMsMBip8Mc2XqYVM/9Ol3PfRgzQlmnKuZ5gKVGdWxVwLxzSoaq/lmG8fwaw9pjGMDbotM8gMQn6sJoCQH12l1DUrIIAgnpFzBcoFEFQ/LUx80iz1lnLuoxP54+dP0B5rx/PUFkgVuOhFLnDRUusoho/rGFQ7tRy/wzFM2WEqo6zhWEai45jocK62SAxCzn/wUmBkFRBAiKxpi9excgCE1dX1+ZKFTH5sOo9+/DgtZgOW55O23cgdFd2z71XJSsaPGc+McZMZyohMxkUTtf8hfJcAQvhsIi0KqwICCGG1TAm3qzwBAVJeEwucBVz6zFXc/d+HSZmr8MzoA4Lh2Qz2h3HYlgdy5R4zqWYwhg5cFEDI9c9YlhhyraiUty4FBBDEP3KuQLkCglpM8GijwVvCxCcu5oF/P0JLYhWepTYCRvdSWzxV4GKCQZy0zVFM2uFsNrBHY7L6UdHFV0FmEIpvA2lBqSgggFAqliqhdpYrIDh69T0IXlzOYqY/eRG3f3AHbRXtJWS9/jdVAULMsfQWT7M5wak7ncT0705hFBv2v7C8PyGAkHeJpYLIKCCAEBlThqcj5QoIamdDcNahegml+Ty1kJlPz+CRj56kLdakAxfVAUhpK3qBi6anQhJ9PMeg1qvh0G8ezMV7zmIEQ7GNan3olVpy6LnoUPhFCAGE8IwU0pKwKyCAEHYLlWD7yhUQeprKw2WR9ynT/ngRj332JI3mctQJ0Snbwyv8m7GgnlSXrOP4MScyYafT2dj6H3Wqg97z0bPbhd/pIIBQUEeQykpaAQGEkjZfOBsvgJC1i0861ciK+HImP3YR93/8KGmjMZhBiDgg2GYFlclajvnWoVy520yqGAI9kikplQQQ+vcbliDF/ukldw9MAQGEgeknT69BAQGETlFU2KLvt7Ew/RkXPX0l937wEM0VjTo/QpQvyzMwfJuEV89x3zyU2bvPpM4YgkmiW7cFEPrnBQII/dNL7h6YAgIIA9NPnhZAWKsPKFBSywzBS9BhpbeUSY/P4K6P7qUtrk6BVNPdQWrmqCVotjwT2zV14GKsuYrTxp3A+TtOYrTVPeOiAEL/hhABhP7pJXcPTAEBhIHpJ08LIKzTB4KUzNngPIcGmjn3ifN56KPHabVWYXhpfWSyY7mRggSdajm7juJbVKRjHLHVkVy+xyXUJ2uJJeo0PqmQzsJCgsQgyKAlCvRVAQGEviol9/VZAVliWLtULmk+TX3EpU/P5cGPH6fJXIHtu5Hb2bAmBYa4wznwqwdw2V7TGWGMzMQkmAVOpySA0OcfstxY9goIIJS9C+ReAAGEdWnqk/SaWcESpjx+KQ9//BjNZgO+HWRRiPJlU0GdO4hDvnkAF4+bxHB7Aywdk1DIiE0BhCj7mPQttwoIIORWTymtbI57Xj9TB68nteEvxRIWMemPs7j/Pw/TWrEKX8ckRPeyPQMPi7hTx8nbHs2lu15AHUPVfylgpwUQCii2VFXiCggglLgBw9h8mUFYu1WUNq6OS1BT62m+SH3Gxc9czl0f3kV7LIlvqD9Db4OMGi7YnompIMEwiDVXcsL2R3HJ7rMZbNRjYeuZBNXn/M4nCCCEccyQNoVTAQGEcNqlpFslgLBu8yl9gryCwS6HlX4DU5+cwr3/fog2uwHTR0f/q3wJUbr0i19Tj9oCaVKRjjN+zMlM3ul8RlmjMKnQsysKnnpeuQtkFECIkk9JX/KrgABCfvUty9IFEPpndo8UTSzjnEemcPcnj+LZTXomIZ27t2L/GlSgu9Uuh6rUYI799hHM3O18NvA3xjNia5xDyJ0UAggFMq9UEwEFBBAiYMSwdUEAob8WCU6BXJj8hIuev5r733uIRnMlXvecQv0ttCTut/04ifZqDvn6AVy59yzqvaHErBqZQViL9SQPQkm4dWQaKYAQGVOGpyMCCP2zRbDk4IKfYiXLmPDIDB765FEaKhr6V1CJ3a2WHGKuiWNYVKfrOWG7I5m4kzoqehNMHZPQeckMQqCFAEKJOXmJN1cAocQNGMbmCyD0zyrBKZBB0iAVuLiCFUx6cip3fHgvKTsNhqsLVLscohS4qADBdtUBTj6+EaPKqePY7Q7nonGXMIhajC6QIIAggNC/X5XcnQsFBBByoaKU0U0BAYT+O4TWLNi/gAKGL1KfM/uvV3D7G3eRqmjB8sGxPNyIneHQuWNBBS4aVDlVHLnlkczd8xJ9doOCBAVFATzl4pIYhFyoKGWUhwICCOVh54L2UgBh4HKrwMUV/lImPzGLO/59P268Gd9wcdUWhwhfhm9R1VbPyTscy9QdzmKUvSE+iZzhQbCNQu0OsTSIpWhn/jvzmPDcZJKxZIey+pSMEOalkCWGCDt/CLsmgBBCo5R6kwQQBm5BpaGPQ4oGznjiAh7476M0x1bh0PkSG3gt4StBzSJYnoWRruGk7Y7i4u9OZlB6EIlYXY4yJAgghM/q0qKwKiCAEFbLlHC7BBAGbjwVdaBSKpk4fJ76lEueuZKHPn6QFdaKgRce4hLUR3vMtXBMgzpnCEdsdTAzdp/MaGNjTKwctFwAIQciShFlooAAQpkYupDdFEAYuNpq+jvItwiO18wyYyXTH5/Bgx89SpPViKEyLvomrqUCHKNzqTgDS2WJMnwMM0F1qoajxxzG5LGT2DCmkikldLSGunrGJPQtRkEAITreIj3JtwICCPlWuAzLF0DIj9EX8wUXPDaD+/79EKlYE6ZvkLJV4GKUEGF17aqSlRy79XFctvssBjM0Ez+wetiiPmK6V+kFEHqVSG4QBTIKCCCIK+RcAQGEnEuqC/RJsTD1CRc9O5c73r8fN9ZM2nLxen8r5qdBBSrV8CxqnSEcvfWhzPneNGoNBQkVq9UugFAgg0g1ZaOAAELZmLpwHRVAyJfW6us3SYu/nAlPXcTdHzxAU7whclsfe6qnZkpMzyLu1nPc1ocxc9xERtn/o7IodLtVACFffifllqsCAgjlavk89lsAIT/iujpoUUUmuDSygvMencpdH99Ha6ItPxWGpFQFCDHH0gdYxdqqOXHsMcz47jRGsoEAgqmO0FbLLXKJArlXQAAh95qWfYkCCPlxARW2qC6VMsglyefJBVz+t7nc/ubdtMVbsNTpj74RycBF01OvQB/ft6lKV3DgFgcye59LGMVwbKNK56JUd/SeTkliEPLjnVJqFBUQQIiiVYvcJwGEwhhAHRW92F/AjCdmc/f799JW2Yzt+TouwY94XEJtso5jtjmGSbuczVfsr6hTHfqYb1EAoTDeKbVEQQEBhChYMWR9EEAolEF0vj+W8AUznr6cW9+9B9duwjUVIER7Z4NlJKhK13HYFgfws70upgqVljmeSVe9Lv0FEArlnVJP6SsggFD6NgxdDwQQCmcSV0+tp1icXsCs56/k9rfuprWqET9iZzb0VNTy1NkNFrZTy8nbHM0l372AOmMwNpW9iC+AUDjvlJpKXQEBhFK3YAjbL4BQGKMEh0S7+qvZwKHFb2TCUxdw2/u30V6R0smGgrMHsv9bmHYVohbLM7FdUwcuVqbqOW7M4UzeeRIb2SrjoopGUGdErikvggBCIewjdURDAQGEaNgxVL0QQCicOYLARfVKVImZ0zTSzJQnL+De/zxCm7UK3LR+TaZi6chlXFTnNgT0Y1GRjnHwFgdz5T6XMyhZSzxRr0+zCHJRdr9UiKchhzUVzkmlppJVQAChZE0X3oYLIBTPNi4OC1KfcunTV+sDnprMFZh+mlTMiRQgrEnhwc4w9t9sf67YZyajjNH4xDU8CSAUzx+l5tJWQAChtO0XytYLIBTTLD5pt51V5goueHI2977/IK3xBhw7pb+oo3zZVFDnDuKALX/M7O9NZbi9IeYaMy7KDEKU/UD6ljsFBBByp6WUlFFAAKG4rqDX3l2PRdYXXPrnq7n1rdtprW7AM4I8ClG9bE8lDbKIObWc8K3DuXz3C6lnGIbeAtl5yRJDVD1A+pVrBQQQcq2olBes/foqSMwnbSS57vXrmfryVBxTHWKcudaUFzcEH7hVyQpO3ex05u57BXHieoU/u5JdCqkFghA8tbNBtdbjy/TnXPrsFdz6wa20x5L4GhJ8Hb0XArlz+muxPRNTQYJhEGuu4OjtDueyPa9gsDEIK5OWWflkkI3S0udlpmhn/jvzmPDcZJKxZEd7dHhnCLeKJtJxDh15KDccfB1VXg1IJsWc+pAU1l0BAQTxiJwrIICQc0n7VWBn9L6yhE8DDUx+air3/+dRmozlmL6HZ/g4KvNihC4NcJp61BZIk4p0nKO+dTQzvjuFUcYoYlY1Lh62Rj5bACFCtpeu5EcBAYT86FrWpQoghMv8LilWsozpf7qE2//7IG2swMTFifgx0WoWa5AxkoM23585e05nuD8Kz4jpDZAygxAuH5XWhFMBAYRw2qWkWyWAEDbz+aRpY3H6Cy569iru++AhGq0GfNsJW0Nz3h7bT1DjDeL/vrofV+w1nWHGaBWlIDMIOVdaCoyiAgIIUbRqkfskgFBkA/SoPog6UOvuKZaxhAseu4T7//MgqypWhKuhOW6NWnLQyZQMi6p0LUdvfRgX7DqBDe2NUDseOmIQ3p7HhOclBiHH8ktxEVBAACECRgxbFwQQwmUR9SJUgYsqaZAKzVvMl0x7YiZ3/vsuknFHbXnQSRc9M1obIQNAsPSSguOC3VbBiTsczWW7XcYQBuP7Bu1GEKQ46bkpEqQYLreV1oRAAQGEEBghak0QQAifRXsGLi5ML2TOC1dy3weP0OAuRoUjpO00jtVlp0n4utHvFnXuPFHbNgwduHjY1w/jqj0vo57BpAyP3/1rHpM1IKT6XX6hH5BdDIVWvLzrE0Aob/vnpfcCCHmRNaeFuiRppYUpT83i9+/erU+BVMmU3Igf8qQCF+v8oRzzzaOYtPPpjIgNY95btzPxhe5LDDkVO4eFCSDkUEwpqlcFBBB6lUhu6K8CAgj9VaxY93s0sZRpz17BH966k+b4Slwr/F/RA1XL8k2qvFEc8rV9mbXXBB558yEm/fVCkjF1bkW4LwGEcNsnaq0TQIiaRUPQHwGEEBihlyaowEWdq8p3+NJZyEV/msPdH97JqspV4W/8AFqo+qySKZlegsp0DfuP2ZstNt6I2Y9dS7oEdnUIIAzA+PJovxUQQOi3ZPJAbwoIIPSmUPH/PJNPEUvnW0yymOXMeHwG93x4Py12C6ZeajDwTBXeGJ2rAxB8lXHRJobF6LohfNr4pe5r2C8BhLBbKFrtE0CIlj1D0RsBhFCYod+NWMxCLnz6Un73j1uhNoVKtJi2XZ11MfKXOjq6BPopgBB5TwxVBwUQQmWOaDRGAKE07ahOJvgy/QVXvPQz5r1xG+lYM57plAcglIjJBBBKxFARaaYAQkQMGaZuCCCEyRp9b0uwmKByLq5g0p8v5Z4PHqDBWoZrRj/jYt9VKu6dAgjF1b/cahdAKDeLF6C/AggFEDkPVTgaEFTGRZdVLGfms5dy+we3s8pszENtUuT6KCCAsD6qyTPrq4AAwvoqJ8+tVQEBhNJ0jiDfoompMg/6bSx0FnP583O5970HWGU0YFkq46Kpo/3LICohlEYUQAilWSLbKAGEyJq2eB0TQCie9rmsWQHDMhYz8/HZ3PfvB2mKrcTyfFKxlMQl5FLofpQlgNAPseTWASsggDBgCaWAngoIIETFJ4J5gmV8yfQnL+P3792DH2sibafwSyDiPypW6NoPAYQoWjW8fRJACK9tSrZlAggla7rVGq7PcPBclrgL9FHR9/77QRpii3EMCVwshpUFEIqhevnWKYBQvrbPW88FEPImbUELDkIWVVSCgeenaDRWMP3JS7jjv7fTaDVn8gYEswwSk1AY0wggFEZnqSVQQABBPCHnCggg5FzSohXYkZIZHxeHFazkkhdmc9Or83ETrdiWggNDnwIpkJB/Mwkg5F9jqaFTAQEE8YacKyCAkHNJQ1OgS5oFzqdc9ddfcMubd9CaaMT2XdJWtFIyh0bwHg0RQAirZaLZLgGEaNq1qL0SQCiq/HmuXM0kJFnKl1z41BXc9f4DtFgr8WMKEGQOIc/iI4CQb4Wl/K4KCCCIP+RcAQGEnEsamgKzcQkWaVawhGl/vozfv3kHyZom2dlQACsJIBRAZKmiQwEBBHGGnCsggJBzSUNToLKtq7MtqtDFNIvTXzL7hbnc8vYttCfU9kf1Z2hYkPmE3JtNACH3mkqJa1dAAEG8I+cKCCDkXNJQFRi8+g0MfDxcmmhm6pPTuffDh2kylmH6vj46OWXLVshcG04AIdeKSnnrUkAAQfwj5woIIORc0lAX6OHQyHKmPTWbW967GyfWBEZKBy7KlVsFBBByq6eUtm4FBBDEQ3KugABCziUNeYE+rp9mSfoL5rz0K37/2m00x1fiJWQGIdeGE0DItaJSnswgiA8UVAEBhILKXfTKOmINPIdl5hIu+dOV/OGdP7CqekXR2xa1BgggRM2i4e6PzCCE2z4l2ToBhJI023o3Wi0kKJursEUVoKi2QF72wlxuevM3pOw0GK4uWwIX11vijgcFEAauoZTQdwUEEPquldzZRwUEEPooVIRuC8IWNQbov750FjLnxbnc+c79NBrLMT0P1/JwTIlLGIjZBRAGop48218FBBD6q5jc36sCAgi9ShT5Gxy/jSajgQufncPv37+bNlbiGw6uKZsfB2J8AYSBqCfP9lcBAYT+Kib396qAAEKvEkX+hiBfQopmljD92bnc8a97WWUux7eD5Qa51k8BAYT1002eWj8FBBDWTzd5ah0KCCCIeygMUIhg4LDEUTEJ13DbO7exKtEg4gxAAQGEAYgnj/ZbAQGEfksmD/SmgABCbwpF/8891F8q36KKTXBYwhJmPXUJd//7Xlpibfr4aMM3cOUUyH45gwBCv+SSmweogADCAAWUx1dXQABBvGJNCixTkPCny7j7g/tpMVZgeD6pWFLiEvrhLgII/RBLbh2wAgIIA5ZQCuipgACC+MSaFHDcNhZ7S5jz/LX84f17SLKSdCyJZ0jgYl89RgChr0rJfblQQAAhFypKGd0UEEAQh1ibAp6f1rMHs56/mnmv3UpL1QpcSzIu9tVjBBD6qpTclwsFBBByoaKUIYAgPtCrAipwMYhJ8GhkBXNevIZf/v0XtFW29/qs3BAoIIAgnlBIBQQQCql2mdQlMwhlYuh+djObIklBgo/DYncpl784h9vevosmYxUYaR246FieHBW9Fm0FEPrpdHL7gBQQQBiQfPLwmhQQQBC/6IsCap/DKpYx85nZ3Pb2nTQlVmF7Hmm1syFIyyhXDwUEEMQlCqmAAEIh1S6TugQQysTQA+6m8pR2lrGMGU9fzq3v3oNjN+KaChAkcHFN8gogDNjppIB+KCCA0A+x5Na+KSCA0Ded5C5w8TFIsdz5kkv/di23/OM2misb8C05s0EAQX4hxVZAAKHYFohg/QIIETRqHrqk5ghcnW1R/eXQyipmPj+bm17/De2VKdCzCMFMgswnBAaQGYQ8OKIUuVYFBBDEOXKugABCziWNbIEqDkHtbTB1YuY0LbRyyYuX87vXb6PZWIHpq70PBqlYWiBBACGyv4OwdkwAIayWKeF2CSCUsPGK3HQPl+XuYmY/fzW/f/NOWhOrMP00KduRwEUBhCJ7Z/lVL4BQfjbPe48FEPIucYQr8PF9h2XGYi7605Xc9f6DNJlLceyUBC4KIETY78PZNQGEcNqlpFslgFDS5it641W8geF6tFgrmfbMZdzy5h9orlyBZ0rgosQgFN09y6oBAghlZe7CdFYAoTA6R7EWBQcqTZKJge+lWOwuYu5ff8rN79xMW6wd31CQ4KuwhLKMSRBAiKLXh7dPAgjhtU3JtkwAoWRNF4qG6xkE3RIVuOiyigYueWE2v33196Qqm3VAo8qTkC7DrZACCKFw0bJphABC2Zi6cB0VQCic1uVQk0uKJlYy59Vr+dUrvyUVa8LEwTHLb/OjAEI5eHx4+iiAEB5bRKYlAgiRMWVIOhJsgVzpfslFf7mau969j6bYKlK0haR9hWuGAELhtJaaVCoS3y8/DBfL51UBAYS8ylt2hQdRBx4maZazlEufvYo73rubZfaSskuhJIBQdu5f1A4LIBRV/mhWLoAQTbsWq1cqmZIKXDTUwkK6icZYE5e9MJffvTWfFqtdbXnQSRc9U3letC8BhGjbN2y9E0AIm0Ui0B4BhAgYMWRd6Bm4uMhZxLUv/px5r/2BtrhKpgSOndYnQUb5EkCIsnXD1zcBhPDZpORbJIBQ8iYMfQd8HBpYwcXPzOXmt27DsZtw7SROxHMlCCCE3jUj1UABhEiZMxydEUAIhx2i3wp1WPRKZr14FTe9Op/WylWkjfZId1sAIdLmDV3nBBBCZ5LSb5AAQunbMOw9UIGLKleC4bss8RYx94WfM++N37KqqiHsTR9Q+wQQBiSfPNxPBQQQ+imY3N67AgIIvWskdwxMgUw+RUy9jyHNlyzisj/P4fb376DJbME0g1MgVXrmKAUuCiAMzG/k6f4pIIDQP73k7j4oIIDQB5HklpwrsIzFXPrCFfzm5Xmkq9uwfUjbLp7a4hCRSwAhIoYskW4IIJSIoUqpmQIIpWSt6LTVI81SZxFXv/oLrn91Hk6iGc90IgcIh484lF8fch1VXg2Y6lAKM5ubOjrGlJ6EQgEBhFCYIVqNKHVAOG2z07li3yuIEyeYyjawomWiSPYmyJWQpo0Gpj8/h1vfuYtGazmOmY5Mf9UMggKE6w65jhq/BgwBhMgYN4QdEUAIoVFKvUmlDginb34mc350OXE/hm8YmRQ9pW6V6Lff0dEGHgYuK1nK1a/8nJv++RsarFWR6bwChCNGHcb1B11HlV8dAIJnooMx5BIFcqyAAEKOBZXiMgr4oLJ4e6bLda9cx6R/TMaxnE551jSghWCpuCpZwdlfO5vLfzAbSwChpNw5yLdo6tMeHb+dRe4Srnzham5/+25WmQ1Ylsq4aJK2A5QoxasiHefIkYdz3cG/opLqYC+HAEIpmrIk2iyAUBJmKsFGKkBQ396Gwe/e+B2nvHhKJyDo/Wlr6FMIRm0FCOdtcS6X7nMJlhfTa7zqm1Q+0ErPBxUwrFBnN/xpLn/41100xxqwfI9ULFWycQkKEI4adTjXHXQdCaowBBBKzzFLqMUCCCVkrJJqaiY3rppFuO+j+zniycNxbGfdwVQhAYTztzyfi75/ITEvDpYpgFBSjte1sYETrmARs56ey81v344XayRtp/BLdGeDAoSjRx/BdQdeR5xKAYSS9c3SaLgAQmnYqaRb+bdVf2PPu/YkSbIkAOHK781l/LfHE/cSGJaaO1jTdEdJm6RsGq8RwXdZ6S3mylev5/oXbqStrgFX50kovUsBwvSxUzlrh/Oo9wdh6hgEQ2IQSs+UJdFiAYSSMFNpN/LdtncZd8cuNKRXobcDqFHbN9TI3b1jRZhBUIf8qMtTA63hU9VeyV1H38E+g/ch5seDIDABhJJ0wCBkUUUlKBu6tNDIJX+Zww1v/D9aEm0Z/wscoAiu1ydNA/8MAFWdVlmZTHDL4Tez/7ADifkJAYQ+qSg3ra8CAgjrq5w812cFFqQXcOBt/8drTa/hVeq3cfBskQFBtUINwKZn4tgGvuEyun0DXjnrJTZmw2BQ1tEHEoPQZ2OH7MaOlMyZHQ7NtDDrpUuY//pttKjdDV5K71JxLDeUkKC8T/mn50MsYbKBO5onT3qKr5lfx/e9gF8lSDFkXhed5gggRMeWoe3JKho47e5TeWj5g7RZqeCLSDNCcWcQsoBgaEAwMVzYf5Mf84cf3EIN1TrIMmihioyXZYbQOlg/GubisNj9gmte+hW/f/tOVhpLsX2XtBXOlMxZQDB8C8Pz2XPE97j7kAep9msCOFAeKomS+uEBcmt/FBBA6I9acu96KdBKK7e+/3umPjGJ5so23Oy8vl/cid0sIKhJaLXEUJmsZPZel3D6N06niopgJSR7KFBHzwUU1ssJQvOQT8procls4NK/XMP8N26nxW7As5xwBi6q8ALXxDRsKtssJu98PlN3vJA4FRlFFSBkgTs0IktDIqKAAEJEDBnmbiRJ8wmfcPDv/o8P2z8kaWcy22WXGrKNL1ZkuWlgm3GGtwzlkeMfYuvarYmT6JjfyKwAZ1opGx7D7Gu9tS0bl2CRZgkL+ekrN3D9izfRWrUK31ALEiG7tPMZ4BiMaKnn3mPuYpeRu2ER7z4BJ9waMsNFozkCCNGwY6h7odLSNNDE5a9dzE0v30CrChDLBip2bXlRACGIALfdSg7YbH+u+/4vGMIQbGwBhFB71fo1Ti0auZmNqyrj4hJ3AVe99HN+88/f0Bpv15Cg3rWBexZ3hivooZodMLDTMfYcviu3HTKfwYzCxBZAWD8XkKf6oYAAQj/EklvXTwG1ktCOw2vNb3LQ/B+zonIRroq6UlOjxQYEz8DwbTZMbcodZ9/Bt80tqKFKRx3IFU0FgsgSlWJI/ZNHI01c9tc53PyPW/Vyg+l7+pjolMrbUezLU0GKMUa5GzLv+PmMqx1DlfZPOR2k2KYph/oFEMrBysXuo4IB06eFNFe8M5dr/zaXtlg7pIsPCIZnUOXXcfKWJ3HVHlfiYpIQPCi2xxS0fg+HZhq45C9Xc+Mbt5CyGzGMJCmr+EsOZszEaLI5ZJNDuWm//0fMrCCOLfhaUA8p38oEEMrX9oXruR8kpVEHH/0n9QmH334Eb7W9hWuoHQ2d2x27TegWaHrX9C12ML/DTUfcyDdqtsH0DH2C7mqXrPEWzl8KXlMwk7DUWciVL1/HvFduoTGxAgEBlmkAACAASURBVC9e/FMgDcNii/bN+f1x89mubiyWa2NYkpmj4C5SphUKIJSp4Qvabf3m93TeA5VN8YHPH2XKw1NYaC/QBzqRCQ7r9r1WAEBQ+8s3MDbg2n1+yg822U9P3VpqtiPYP9b9EkAoqMsUsrIsmBqey0pzGZc9cw2/fX0ejTUrivomNnyDUYxg0vaTOPM7ZxGjArMzsUMhJZK6ylQBAYQyNXxxup3CSaZpiae49p+/4Gcv/Yw2qxXPDNZ6g/CwzJVnQLBci8p0ghO2OIYZP7iCwd5g4mr09dUIbAsgFMdBilKrsrg+WCyTEGsFS5j70tVc/+r1JBOpIC1zNnKxQC20PIO4E+PwTQ5h7n4/ZzjDsvkUdV4OuUSBQigggFAIlaWOjAIuvt6zbbDMW8G1f7+G3732W5bFluGqMS+fS75d9orbrsnQ9GAO2vpALv/fK6nz6jOJkNYye6BaLzMIkfbibL6LABVgibuYn73yU278602sGtSIr5hR+Wc+fFTDR2d2UbXMVdtWzd5bfJ9r9/klI80NsBQU6HQHAcjIJQoUQgEBhEKoLHWspoCHyzJ3Idc8fzW/efdWVsUaC7IP3fQN6ttrOPobxzB5r+mMNkZjq1S12TF3bWOvjMll5cUOKVpo4NqXr+SXL/6aVbWZEyDVElS+Ln0ciEF1ewUHbHoAs/e7kpHGKGKaTjpXvmT+IF8GkHJ7KiCAID5RJAXUskKaJhx+/ZfruPatX7AisRzHczBMyFmSRTWeq1OmTYjFTGqX13PeLhM557vnUuNXo4ChY0P5mmIPsuoIIBTJT4pVrTqboZ0krcx/+w4uffYqllesIJVug1iXLOG58AsXYhU2XptLVWsVJ219KhfvczH1Xm1wgkQm82h25kAAoVg+UX71CiCUn81D0mOVByGYum+mmecWPse0Zy7g3db3MC0Dx83NXK46Dle/932Tr/tbMm2vGey/2U+o8ar011q3A6MEEELiG8VuRibJtqZUgxajhZeW/o0Ln5nFP1tfJ9XmBGEAyq9yAQiZ38Hm/uZM2m0Kh2x5CEP8Qdo/VbImddRCNnODUkYAodj+UT71CyCUj63D19PMwOiitkF6vM8H/Oql63n8lcdYYSzTuRKyBybpcxPMILXNmjLcdcQ06jACdbaCj2HGqGhPMMIcyf9u87+cMnY830psRULtJPd7JprpZaTPxYsgfBaQFq1RgcwyQiZuxfHVFFSa9/kP1796E0/+8wkWpRfRHmtX50B2njuWAQb91b8WfzEM5cPq8rEMA6vFYoP4aLbffCyn7XQmO9TtSBWVWIoKMvEQqhkCCOKqxVBAAKEYqkudqyug13YN2s0kC/wF/PyFn3HfK/eTTrST8lOovzzDxY8Fp+71hAS1VKA2IRiOTcyMEbeqocXiJ9/+CRP2mYj6OrPwsdUXma49+A4L/jdXn4Ji2CgqoLfiZnbZNBtJPuUTbvzbDdz+wu3E6z1SXpv2zzQufuZUyK5JQlWIS8AE6kxQG8M1sV2DmlSMfb6+Nxf86AK+ylex3BgxK3sIU1clu/unzCBE0cvC2ScBhHDapfxapVYUHB+VQdazfFa4K1maXMHLC1/j6Y+e4r0v/sV/l32IaychFmxMC77DMofZ+RbxdIKNqr/C2G/uyLiNdmWnUTuyUeVonTpZfdIZaiOlqf5XPSWAUH5Otn49VoAQzFAF53Z4eDTRyrLUSl5e8CJ//uQp3vn8bT5e/l+SRhuG6XWsXClQULMJPpYGgGHxkXxrk23ZZaOd2Pcre7Jx/YbUUqWhQSVFwlQY2zMQUgBh/SwnTw1UAQGEgSoozw9YgSD3iyYE/Z2m8iG46rAk38QljYoob2YVnzV/zGfLPuPDz/6rlxAyn2WYJmy+8eZsNmIzvlq5pT4K1/ZjWIalS7L0NLC6X0WDq6UFvWDR8XzwDzKLMGBDRrqArH8GM12e9k+1wJAmZbTT4jfyifLPpZ/w6YJPUEeIaw/Vsw8+/7PhV9h8w80ZZg9niD2CSr+amPJHw0N5ebB/0kT9W29RBnJOSKQdLVSdE0AIlTnKuTEKDAI4CIbMIGZbLRtY+t2tMuY7+iQ+9VdndFgQzKhOX1QH2BjqHAW9fpu5DPXtFoBHMPBm/0wAoZy9rf99z85aqeDazkRaweyA+tslRTKTpyB4hQeeGUTRqP+iPDrw08xJjNk43Q53DUrqLTxXAKH/1pMn1k8BAYT1002eyrkC2YEx+NbPbjfXkJAJZlzjGQk92tE5r5AN7Mp+y/WcthVAyLkJI11g1n86ow97elR2HiqLBZ0zU114NfOP2W28urQuAY0BImR2UaxFTwGESDtaqDongBAqc5R3Y7oOwdnAsI6JgHVtQewmW5fYhI5wxAxhdFvbFUAob28LX++7Y8Ha5xEEEMJnu6i2SAAhqpYt8X51BQS1Nazv19oAoWcJAgh911TuLIQCAgiFUFnq6I8CAgj9UUvuLQEF1jTxu65md5236A+IlIAU0sSSUkAAoaTMVRaNFUAoCzOXUycFEMrJ2lHqqwBClKwZjb4IIETDjtKLdSqwpvVcSTcjThNmBdYFujLTFWbLRaltAghRsqb0ZS0KCCCIa5SaAgIIpWaxKLZXACGKVpU+9VBgXRvSRCxRIIwKCCCE0Srl1iYBhHKzuPRXFBAFSkABAYQSMFLkm1gGgNC57U2v3HU9RUX9u8qVrnOXdZ4bqDKeBXn8siew6weDv1WWvpJfAuw6+HQcFZdJ0BKcVBBIo7K/qcvLHHgQnGOg92ErKTKP5nU1P5vCoMtPUSdSwu8wQzZ3vUqxlDXN6vnsw/tbDrwsOF2yI4N0xjfz3+rVX0Q9vGP1M439ztMKVXLg7LHd60oRnF3kySa96uzXmuvv/svrzEaYfz2KUEOHj6/dFsqzg9/ZGn4Qa2hy14BHrXkXf+pWXTAo9iihR+amkh/vunTRCEYOlbE1m1y9e/fWMDZ2/S320LII3lLQKssAENRhwsFLz3bVy1293Axc39Wp+ZMkWZVcSavXokfnRKyCSrOaSqOaCiq0GwUvRfXCzP7suubyL6i9Bl6ZHh0UEqX1kOOro+YcHy8OTc4KGtONuIaL5xtUx2sYatVh+R4WNq5hq/MQdbLYgl06Q3L29aKIxCdleHzUvBDXTevEtKq9pu9gdUtS6wdp8MN8+T41VhVD60ZQQb1OFK0BIdvdnidS57gvSh/PcDC8lE5dqe1u+axMNtKeVv5hUBWrosaqwTLUSYPxAMA8UG6jmmqp35Hrg73uMwQ6LKhO3NQHG/o4JPXpA2k3RdJLYsXU6QRKBdVxm5gf0zcrPNAptAvpdznWevXiMmOJa+Il0/hVoEYqlU7c8RxMwyBmxILDpH2bCiOGpf05I+A6tOjqQh2ZSPWzPr5p0O63a53VORJtyTZ9Sqqq3bZtElY1cSpxXJ+EGitVjaYa/0qXEjJDXua4FXXmpq1HP5Ue29b/7+H4Pmm3DdSJsbjErYQe8+K+egeA5zkYprrbiMAHYt+duwwAIfO5o0YoK6V/CGkjwVJW8vSiJ7j10d/zaftHLE1+iWXC6IpRbFn7TY7b+2R2GLEzg/zhxNXvR+OmD2YaiK3+VdV3zYt+Z3CegakhKW44LOVLbvnwdu594h5WtqwgZadJuz7Dakby4+1+yJE7HMQ37S0xSIAf7/IDyQqTJ2DoymMdFJ/mA+d9DrjmCJoTq0gbCuAs4q6HYXQJRlQzHCEnhHQqRTwW4+bJN7M7/0vMTwTfiJmxOJ9Dsnrpqq+o4GtSnVfRyqvJl/jti/N441/vsKRxJZ5pEDdifO+b3+WoXY5i3NDvEUvFsCwTT5262eV4ocCp1+0HnUcSBXV+znvMe+sWXnnnZZYvX67tVVtXx9677MUJW5zGMEZh+FbmQKNSfkWt6Sev1EsCcdpJ8pr3Ore/fCdvffwvmpqaUMnBRg4bwX47/YhjNzyYWiqBKn1GidULKmV/NtmZAj2DkBkGW/0kmCmeWPwY/+/pX/D5ogUBSBswqH4Qe+y6FydteT4bM1p/CPj6fIkUNjUdcxhFH8D624COr/7MmSxeTE+BJe02VtLIM4v+ygOvPMSHC94llW7WpY8cOZIf7rMvBwz+P/6HzVCfHwpmY6QxUaAcNX9cs6hlAAiZLzL1A3GTuPEWnl31Npc9Ppe3lv2dpJ8ibSTxLMXqnj5JOJ6OU+vVsePmu3Dpj65gE3tTanz1A/XwzVTwoixZog5eDY7r0mi1cO+7DzDvpXn8u+VdUkYbbszBsdRXioHlJahsTTDCH8beY/Zi2rjz2NDeBM+x1am0YAQDXHZ6vL+/217v7zJPql+aBjTTxtxX5nLNyz/FrWrB9gxMN47T492klxjCPoOQgZ5vVX2DJ499iOH+RhieRUp/KnrEM8sOveq0Hjd4ahbA8zEsg0+S/+Xnz13FY/95hCXeMnzLIG2Da/r4nk91uoIRyWHsMGosU34yhS1rtlGHF3e8prJTtb1hYtpVJ2/5NNHI9S/9nIc/uI/3Gv+DZ6u2eAHQ+T5xw2S4NZq9vro3Z+89kU3YDHX2YZSGZN93SRrNvNnwNnMev4bXl7zNCmM5KastA7aG1r7CqWDboVtx1NhDOPybh1Hp1xM3KvXBZOu6Os56MMD11O/dIR1zeHrxM/z84at4q+kNmhJNwe9GT+mgT0W1ifM/5lc56JsHcca48WzA0MxBU+p33puF18MRC/KIgjGFp8GA4LoeKauVhz59kFuev4PXl7/HyopW0rRiGWrmUc1YGcTsGF+NfZ0Tx5zMid8+lkp1SqwuIbsEXZDGF7WS8gCEzIsiZbTwxGdPcuY9U1lSs4i00Rx8rnlmMDmg19XVyzFYwbY9k+0qtuFnP7mObYdtS6VfgW90BYS+rQcW1cKrVe6R9pM0+Q38+vWb+fXf57PI/5KY6+DZaRz1csqOPR6YrgXtUGFUc8im+3L53pcz0twY27RxLTVFrGg6j9+6mUkBNefRbvp82PIZh991MP8238dwWkk46p1iktRHPnZMM2SWF0qBEGBQez13HXELuw7fg0q3irTl4Rt+XgEh6xavt7zBzAen8ezK5/DjKXzXI22iZwgy62pq1pV40qLWr2eLQd9k7o+vZ/v6rTA81cbMkLnW0JzO30gaj/fbP+Die2bxfMuzNJpNpP0UhmkE9vJ8/Rs0fEMvYdT4VWwzZHvm7H8VO1WO0ccj69IisA7cSpK/LX2BCx+Zydtt75BSNtenjjpBNFTHNIACBYP6dB2n7HgsZ4w9k43im2L5tp5lWKMU2f+Y+f+076oPZv7w7q3MeGoqK81lpCvUx07nKecdvx4faswKzNYYP9lyXy7Z+yJGORsTt6vy+zvP0SC5+ojcefSVWql0vDZW2au4+V+/41d//SWrvGZarRSu+ijS0yzZ5eRM9JUXp75tMMdtfQTTdpvKMHMYliKpMrnKAxDUGqlp8FzrUxx500ksiS/F85OYdoDOHUu+KkZBzSOYrh6g1KXmCjZt3Ywbj/kNOw7biRgVXSb4MsF7JbQupV60jazg7iX3cc4t55EcksLwPWIp1W8fR88MZLw/M0ipr0X1xog3mpy03Ylc9v051Hn1pEw15ZbnleHMIKc4rhWXqX+cwfzPf01LuolY3ET9rpXZ1ADYcWWOew77EkO2vQknxo8335/rf3gjw7xB+uXgW/ld93XwWMpSjr/zOP6y4i+0m23E1EtehRSYoLiwI4pLvbSVq7dC3Ktj24pdufO03zHaGEKFkzm6WHHCGjlRremq6BCPL1jAGQ+cwdOLniZlKLLzVGBQEGeQqcN0VciJrdtgKFBv9dmiekuePe1phjFCfzn3DLorhbG688Xlk8bhnyvf5Kg7j+PT1o/walTsRzr4is8MRtkZgOz0v3LwqmQtR25zGNfscSXVfi2GoUNEV19y6LrGYPokjRRP/+cvnPfgWSwc/gXtze14CkgyEKjqzMYqBKAGlgVVfoIdhu/KL35yHZtam2WijzLBJ3n8JhiIPfWyVwc1BWI6enFA+a5Pi9nIL976JRc/Nod0TRJiSvTMJGjWB7t8V/h2DD8NtU4Np4wdz6wdLqCa2uDI7jK4ygIQ1Jr7EpZx5pNn8sRHj5OOtQSxPnreWoWkrL65IesjytlM32Rz+2vM3u9qfjhqPyozLN0ZVdz1SzXcdKmCoN5Pvs+Bv9mfj83PcWz11dLlR9UjprnrOKBmCoa0DuKnP7mWgzc9Ug/g8TwiQmas0l9JKoDrX23vsv+t+7HIW6ADq0I6RvV72FBuWO/Xcft+d7PPhrtiepX4hqlWefJ2LaOBy166gnn/uJHmilXE0gn9S3DNwB/U1dWrO5tiYKdtjv/aicze5zIG+4OJpa1uYTnZ91OwYyGI2VHBwDP/MYNfvPILHfuiAEhdvffRoCJVwek7nsmMHS6inpqSm+gOQoKDVWyHFv78xbNMf/wiPvA/wFNR9XpKJJja1v+kzjpfQ/yM4RkMpp5f/+jn7LfJAdheFb6pkUm/rjps1GUGwTFd3k++yzF3Hcm7yfdxfQ/TNXBUMJ56SEFC5uNZz6CqcjKhRZZh6FmsPbbYi5/v+kuGm6Oopjr4JFATr0b4Fh06Zpi0pgqDVTCmqYOYG/0GLv/rVcx/67c0VqzEUa7eMXXSJfhQ65f5d7X+ZbjE8BjmbsCNB13P90fsTYWOCYn+VRaAoH6crzb9nQN/eyANVSvx7KT+Igo+OwNA6PYF2sXu6kejZhNijsXmsS259sBfssfg3UmoOVi9+KpIQ5XQ9ZMrvI6jAqJ+9er1XPPyFSy3VgRTa338oavBPNEc438H78mtx91GpVlJnETe5hACMAjWAxtYxcSHJ3DfJ/fRFm8KloIicilAMNtMjvvaSfzqR9eQoFb3Op/fKG81v8O+v/4JK2oX0xprIZ5OqMgUPXvW25XwKqheUckfz3qS79SN1bM4PZfEO7Y1Ziy4wF3AD2/8Af9OfICb8vWLsW+AADHXZqPW/+GJc/7MZvFNS24GQS0eeHqUaeGZJS8w6eFZ/JePSdLUTeosIGg4U5Cg/6ErpkEsbbNX9Xe57bh7qbYGZTcddweELoSXJsm8T+Yz7eFJNNe04rlgeSZpwwlmENTfGZNnl26yPy21QSUeN7VvHvDVg7hk7zlsZG1M3I8FNgjrt5CamdJjsiKeYIZrqbf0/7N3HWBSVFn3VFXHSeQMgkowh3VNGIgmFEUUBUTMu7rmyAqiKAqYEwoGMkgSFBGz4howZ8WEkiTDMLm7K/7/va+qp6anZ7q6GWAGp/zQkan4wn3n3XvuuXji92l47M2HoYWKYCoxJmJXAAjOgHS3ueWHRFlSkolQNBuDOw3Ao6c+gWzkpJome8Tv/xYAoQSlGPHycDy/6nlEsyK88xWuPDvEQC7qJN3puKoMstSUyaVLaFbWCrMvmI2uzY+Hn5ADpYZJhFEFA722H8UowYDZg7B001uwfCYvCAa7s70dfl3GPuremHPZfOyT2xFZkr2j8HZ5mmeRYY1xStL8lYtw+2u3Y6u1CZovskcBBG6UmIyWyj5YdvUHaIamzCCvcZKi7eemfeq0n6fhujdvQCxUBlXWIDPpwPaxVtNL5HULWgFIuokHezyGyw+6Cv4qfDkiy8GCaWl4eeMruGr2f7AtZ6u9W/Y+FBRTQnh7FkaeMAo3nnAzFEJUO9G74v3NvJ1JwMtAGT7I/xgXzboOmwIbYCnRShe7AUJ8jXeAgg0WaHFvFWuOhZe/gsNy/8nETQ4PVLqbaP2IUYCez56Kn6zvEaF5Q0EaU4Zhz3u+MAEgOPcydUFclE0JQTMXx7c6EU+d+RTayq3gk1PlUnhrm5o/i3d+/Mc0dCbhFqEEj3z7NO5/53FoWYVs99h5HM+9dQ0mx6XlgASZ+GkmfNQPhg8HKB3xwb8/YT5OemXoa/5Ld8Ud/xYAYTvycfGUC/FW5B3E/KrgXtlkKOYgVAEQRA627W3i84GA7sP+Shc80PdhdGvVnR3sImHMAQi2glAtNWDbUYh/PHMUVsV+Q0BSOOjJxESP70vAqmWkKeYMXYAjGx+JgEzf7RVepBjSlXza9Bdl2IR8XDHnRry7/X1EiVjK2RN71mFZCnyxPNx59Ehcc8xVyAXlYXvsFK9NYQME2s3e9b+7MGb52HIGjkwLTcXdarLbEkDwmQr8CnBx+yvwwKmPMLs72UH2l+6pW2UY/r878NwPz6MkKNLI0slApXmXFQuhb8t+mHz+DATJ7VtDQ85r0+3IeTFE8caaJbh50R1Y418LS6HUQfJaVmxvLwCB28IIYOIZk3F+h4GsZ0ArnSOjVP6eFNgwsFZdjW6PHY8t2dug+gxYnJ1UPUBwExYdsqSs5DJRtXerbniw3/3opHSqXWmPdmxBeB2JYE5hYwNbpA14/JOn8MzXz6DUH0HMVDlTgbxeMRsTV4hzJQIEchRTmFkX3szmah4++tdn6BTab0eGRJ259m8BELZiM05/5FR8n/0DopzOSJPEFqUh0SACAjZRyt1zNtdNRBHYqomYqS8m4wDfQXjk3CdwVNNjEKb8dXtWUaok3yxu22vYyO/g0MrHdnSZsB+26pvhI3QsWZzOls5a1LgsD89fMBl9mveFn9Mca+hw6SEJ5w6J9xRi6sq5uO2lO5GfVQAEJEg6EStTL2Y19Fa75DamJEM2QjjcdzBmXTwFnf2dbcGgmnk8iw1ZtFxb0CQV1y66Fs9ufI5vTgaQFg63EmV1T6X7kIE9KfcUzLhwNhpaDZNwCQg2C4EjDRH0n9kfSwuXIuYX4C7d7gsbQXRv3BuzB76IXCuU1nitmRb0fhfyF4hZb0BFDJ9v/Bb/eekq/I5VMHxRkanBZGgPACHOVixvNL/pw13/GIXrj7oeOXLYDsIlIiYCCDq+LvwOfZ8/CQVZJUxApv5PBRDiX2qbBUqJpd0zkUobKQ3QvW03jOkzFp2VToJYSRuN3XDE+QY8iEUwkgmJFqUIW9iGTZjww0SM/+QpbMN2GJrFXBmfnbGmpgIINnOTxjutATSes9Qg3h20FEc3PobDQDKJ5+zBx98CIGzGJpzySC8sDy2HHlCE2bIsVggk60hInrMdE+IMboDgjAFBWhT32MvsiIkDpqFr06MQtsGDMAwO+yW58293jqd85KPLxE7YquVDdge50xjnDSK5eGbwcziz+dkI1hRASFzvKX8bOtZqv+HMF4bgZ/0n6EQnloOQ9NgeBRCY/0KY0gKaSHl4qs9D6N+Gdoe5NTZUHIBAxrNMLsFNi27A8xumcKob82zs53uBs3QuAeyeod6YefEcNEfjJO8pZJEoz8VABOfOOxdvb3kHqp/EysoPr0CBBJp6tOqFWefOQ+MabJcaa2D7RrSIqNB4X6+jDMsKluHy56/DX9lroMukxlfewqSWWLEtqhcIpwWJrlBiCm47+Fbc0WM4e29I9Cwxl0hk8Fj4ouQL9HnuNJSGS0GERSJEVgUQnHdJcGyIDBPDAXUS/AE/TmxxPJ7r8yyaSM2QJ+WVK0B7GUA11eiOzeAXpiRaBQb9UUtQ5ivFI18/jseXPY4yuQykjVSlSrW7H9w/xxVcyxm7ITWMzy/7HAcHD4JJ4mx2f+6p4Ya/DUA47ZGTsDz4E7QAudcoVYriSpRiVTVASDaORZ62wjG8kJGFDkpnjO5zL85s3Qd+h+lIKUs8lXcmzSyzWRYHCGo+JNfmPzWbXDyP5mLDaB6euuBZ9GtWcwBBOESFPhmT3mRaVkrw+E9PY/S7DyKWVQzZoHwU2hvQIrPneBAcgECsMSViYcBeZ+HJs59EU7TJrJOTXMXamZbYXZXKxbhx8fWYsn5aRvd3AEKPUG/Mung2mqNJtQBBRwQD5p2Dt7e8mxFA4LCG6kf31j0w69y5aIwG6Ti8MvrGTC+iJV4n4RDoeGftR7h18XCs9v+JEpNCK1YNA4TbEeTQJjFWKiN88uGs0VbimEe7oTA7H7pP5c1QKoAQ/3bbg+CkPvLfa4Dkk5FlhHFSm9649/T7sXdgb4SJl8IGItOWy+A6diE4IkgiFY00UcqkUtz15UOY9OVkFMnrWQCP+IjCgCV5TlUAge2dBIvzQC3Ihg95pQ3x7Y1foT32YnEvBxjUA4QM+q+2XEIehNMePok9CFpAsgGCBR+xcDIACDTKyC1Pi6XfCKCT1RlP938Kx7Q4FgFizUoqk4EklmSuXceOAQTyvAANInl4esgz6NesP6c51tShsvK8wkArgkL8Gl2Oc6YOxWrfOhaoYkBnKbzIJbpna+odavI+dsg/5S0ZIJB9p9i6qqOZ1hxzLn4BPRv1EqpuXtFbNU9igGBSPriJErkQN756A6aum57y3ZKdwOltlvAgzLrIK0Doj7e3vssy3u7DiwdBAIQAurfuXgcAgokISvHRpvdx0yvD8auxkqwFDFmz0xnLvz5dDwKvb6RjFlMw7JBbMaLb7QiwB68iQHDrfxRLxRgy/yK8t/5taFkqp5hWAAhusl5iZ7sij3HhJjslkqB8jtQQJ+99Mh44aRyaoQnCUhA+uebsQerBSf4aUXrJZrtgi16ACT9PxuPvT0SRfxssqYzDZ9VqolQDEBTTx0RuSzE4i+HIhsfixcHkNWtS4Z41MUdTf++uP+Pv40GwAYLKMtzEwLXgozweisG7xJLS6QISdKFdGWm9NC9rhGlDZ+H4FieAAhDC4juThXgJtaMKJAGE/Z7phC1qPuS06QPlAGHCkGdwVg0DBIqZMpvelFDkK8CDn4zFY1+PR0kgGieWUv9YFBpKcbCDlReyVGfunN8zp0UkyQhCbHWLtxsgyDr8ehau7XQVHu71UFz2Ne4ezXCHVhkgXI+p62Zk9PHeAILY2VGIQXgQCCC8A9XW3XAevKcBBBUqluV/iIETLsH2BvkAcS4ssHx5TQxFzwDBLuhRKml4e+tLuHrhDdiIjVwESgAEM57iD9x9iAAAIABJREFUnDSFiyeaSzPNeXln6pETTw4jz5+No3MOx/ODnkU7uf1OU1sUEKCcCyY8B8RvYfVuDhnnyxvxyBdP4eEPHgXyAohpEciyjqBhIEL8i6rmTjUAwWf4YSokZKUjWJCDW7uNwLAjrkc28WBcRz1AyMiU1I6LNmMjTnv4ZPzEIQZJAATmIBBAECRFBsapZrAzwGySS7xgKN3LALoE98cDZz+ME5r0QtiV/JWcHZ6hpd/BJq3NAMEp4kwMju8j3+HcaWfiL2kdDEloIdhZqXbWSNWLLnVj3G3PXkhHUzZJ46Xs9PQaXNSMcFit5ZmD7t5ONFROpowAkSYUyYdDzQPw7r/egt9ohGyKBQl7mDF7vyYBguAtyOgW6oXZQ6viIIjsfxM+jsWfN68/3iIOAqHpNA/2IMT86Na6B2YOmIsmaFBrkhhIeEwwA4iQWIr31n6IYUv+iz/0NdD8xJgX5bANLjNc8ai0qLBQUfVGiACCT/VV60Gw13YeMoZlYYOxEkOnX4xlpctgBA34LD/PD8UkafWqNWAqvK3zWoLaIFZbMp8+BblSGMe3Ow5je43FQYGDeJCSt6omOykOENgtR1s6CuLQRo+4kypKpBKM/mgcJn8zCcWBIq63QC8gKWIjSDUnuJ9Smd1Eb52mcKpkSFGwv7Ifpg2eiS7BTvDXoOc0zemwS0//m3gQNuLUh5wQA00I2vkTQKCliDgIYpJ4Witcu0K3oRfcBBn7hQ/Eg6c/ia5NuyKPRDac7mTE6zid41h4l3Y2PYwAwv7Pdsbm2LZa50EQcjIStluFGPb6MMxcMwW6rAnFS24ykXlCIkmJRCp3Q4p+EW3MRiHeUYKMWtHwpUKFmXSR2HoJgTyxfLiPpKJc7Op1LgIaRnIxrv9YXNjuUmSZ4VoFEFhIz5LRPdwbL1xIIYbkJEUx4hXoVikGzO+Ht7cszRggKDEfurfqgZnnEUBoWJNrTyYdzNdQ91JYTLbBwcebluGmRXfgd+MXaImhFLeegf3ERIDgpcAYM5s8AASaSTSfZNMPXdLwrfoF/vPCf/BD9FfoXOpegp+KFvlIxyWNOZBoxmgZtpMYTm/eB4+e+hja+TrwAppqLU674eNpCwKUmZYPhl6Kzb5teObbGXjq42cQCW1DNBYRXA8KLfBLOKjGA0ciESBYASi6jFZGY4wf/DhOa9KHC1rtZIH5tJtmZ13wtwMIFGKwHA+CXeGrOiVFLw3vsMDJagU0BU1iLTHpgmk4qVkvDj8IJRNHwtZd7MDL3Wv2nDhAULdBcYUYPIEjzv4QHISdEWIgh7QGDb+VrsCZU0/DemUDDFZEE0e5QU0dYqBME9aqNy1BMuL1t/J13r7bQx+4rCEJy9BBLBTObU8wwFWpdrqfEjaz0CGyNz688U00sdoIG5dGpkniG9ekB0HYUBndwr0xu0qAINIciYtTDhDeg0oJ6mkenFZZCwECfQaptJoowff53+O8GVdgQ3gjVJTZ5LnyD40rI6b57YmnewUIzCYkMq+ZBV3ToQRUfFSwDFfNvRW/Yw1MqQw6jSkiVKejSuruPmfMUyhPpnoFeTg27zhMOOc5tPA3Zy9qjR2254DdFk6BCsuPEjkf9371CJ7+ciY0XxGi2wsgZVMhK1u2Oj4v7RdPhVpocBOoJ10QWYZZaKBhrCHuH/wABu91AWTdQpYvq8Y+q7bfqB4gpJBa9tKB7FRw4sgUfjAkHO47FGNPewAntj4RQdZJoPxvR/zcy113zjm1EiDYjhUiUG2WNuPqeVfita1LeHcj1lYxq70CBCdcRFcFqcpjhHgiVAlQiGK5j5qMHdK7EnmSKhSSS1MJAwZlZiZ0pReAQC78JpFmmHneVPRodQp89s4mlX2ratTUNEAg3QbKYvAOEM6yPQh7DkAQGQuleH3NW7hlyZ34Q1kJKn2aLNa9awECB9kqSA1TDremFOPjgs9xy+v34cdtX0P3x2ApWnoehCoGGA1PBSEEIiH0aNsNY08bi46BDkyiVGpEJ0GEaDhca5lQrShi/1+efuRHozF7+TxslQpAVZVIcExYjDQAgjvDgbyUNkjw+wNoUdQYo/uMxjkdBzEhm4Ty4qr6O8dE16q71gOEGgAIcV+aTeqhhYIqh3e09sGDZz7G6Vmimj0BhLiQ6W4hLtYegOBy+7FkNcVpNby4Yj6uWng5ChtGRMlhqu5nW9zqAAKTAm0Ph3BsyyA12+P2PR5HNDsaWTrVNyCJ1YoxcPIy1NRBXgsqdlTsK8DL3yzEOn09tCS7M08AwQBCWg6GHHoFHj3xAYQkXzlJK4MXrkmAwN0iy+ieEiAI9o3wIJxpA4Q03Nn2d9YmD0I5R0BUZXxv47u4YeGt+FMiEaQIEwDJU5XYx7sWILhS/u0CTBql6bFCQyG+2PYdblw0HD/EvoHmT+CEOFHQDMYYohJkXw6CmoQz9j4Zd/cahY7hzlwFMuOS8Pw+BA4okGM7Y00T27ARj387AeOXPYLSUBlMqkbrA4IaQLXD6HyHKiE+pRoPQhwgiLAE2RnKC6GCTA+fMBaDuwz+/59yIRPq3wEeUCZNuruvqQcIOwoQKrDPyruTcvmDZgCNo80xfsgknNb8ZFbwcsCEKEDqHDW3SKUaULUDIJR/O6fxUX6+YaHQtwaDZw3EJ0XfopDY37ZOfCqAwPwRXrUUwVcgQZoY0N5qg1mD56Nz48MY/SvQbLORqpUy+z0JtdACEkUZJnwyEXd/Ogp6tlYpk8ILQKB6Ayxr7W+Jt4a+hn0CB8LPhWMyfbfENMfMsxhY3FfyEmLYswACKSRS9JvqAxpWBJ9s+wYXzbgUm0KboCmUMk1aE8lJf7saIPAoce2MaXHVYID8aDIiWLb1Y1w5/yb8Kv/GlR2hk0SsDwFDY+9X3NPmYbwxL4hXY3EhpR36Yz4c1+k4TDttGtrIrZg06CeyrQdT52wdRAYSEX4p9Eggw4BklqFMjmDsN49iwidPothXJsqjk4iULATwaKNQJUCobvrQ+/tCUGIqWhnN8OiAh3F6K6reGxZiUTS/HcJ0ZtOwzl1VDxB2FCBU0eWkNEcDVbEU7CsfgDFnPIhT2vRCmCeQUwyCeAl2UfZdNHRqB0Bw6sqKODWJVlF1ufE/PYAH33sI2yg+GhAggkngjns9vjqWAwyH28cGjV0O5I3Q0UDLwkUHX4jhx41CQ6mFK7iTvovba9eIkleUNqthlfYXzpx1Jn6P/FKpQqIXgCBIr0DAUnDTP2/F7UfejmzkeX2VSufVtAfh7wgQiB8jSgibeGP1W7jzrbvxq/4bVF/q2iC7BSC4RgEtmwQSyPrIpoUyFOHrgm9x1cJr8ZuxUhRvMokQbMJyBh9PwNRDLg4QGJSIGL7P9CMQDKB3ox4Ye/r96BzowpLM8bTjVPd1ERI5t8MMcPbCBqzE3e8/gtnfzUMsXAyVZNeJABEPQZajoqQehGo+R1YC8JsB5JVlY1yf+3BO57PRgOecg2qE/6hy3YvUbVRXz6gHCDsBIDB/nhnpoiCLLxbAPsFOePrMCTi+5TEIGESioZ0uGRYi8niA1TU0wmoHQLA/hvLDSajKKMEfxkpcMGsIfiz7Cbppwu8TAEvUyRCTPlmIwckHoTMMidUtoBgyDgnsjxcunY522At+5NrBnfTd2+k1O70NLSA6ihHD4z88hbFLR0MNxECRDMsWRvAKEMjYElv6kLyjsHjwPLRES8j8Jen7gesBQno9mexs8h+oKMHnG7/EVS/ditX4E1GFKoumTt3c3QAh/j3O9lwiCqOKz0o+xfULh+G7sp+5wqRFGQ4kFe9MLA8goRJA4MqH4B19A6kBerTujbGnjkOHYAf4qa4BwZRUAIE9rDaxm70CCraZm/HgF49j/BfTEVG2C3tA4QfKRkuSwSjCjs5Rzdy3ZfIVTUELowXuOnM0Bu59PsvICwkq52Wde+w6e73jo3bH7lAPEHYCQKAuibsamcFIpaL96BLbF08MGo9jW3ZF2AzDkqOQWAlt1w242gYQNInqNW7D+J+fxJil96PMF2VitSz52dXJKml2HL8qDoKzK9EUCZIqIUtrgGv/eSVGHTccAdMHXaYoqCgc5GlLtENzihRkTEQMC8u1Feg75TRsxAYoBHjsGrOplxPnNalIjITGVjM8fdZ49G3Vh92dmQjf1wOEHepUvlhFFJ9uW4aLpl6CtTmb7Tmuw3Rr9lfxmFoBEOKba7ugnCkhqhTgs9h3uHz6TVilr4Dli8LQVeHYdA43WEjyfe4knbjiog1EZCWIkB7GsY2OxsT+E9Am0AJBKZQiTdDFT+IsIBOF2IZ7Prgfs39fgE3Rjexek4j86EgtJ0nVdN2l2s4P+vyszto80gRPX/g0jm/YG7nIYd6YOBLBRUp0s+ODrZbcoR4g7AyAYIMCARTIyIuyYbkhPzpZXXDPKfeiW5sejFDFjtC5gFzvO1dxsbYABOZZm4AqW/hu+zIMmX4BVvlXM5eAwjO65AOpVtNJFIKoyoPA05c8NfbaH1DDOFg+EHMumY2Ovo6AqRE1wYYG7om9M0AZfZWQErasALZLxRj1y0g8//5z0KRYPFRC6ZwpD4cMpUsIlck4vukpmD5kMlqhmY0PhAhRCtsdf0w9QEjZ4pVOENUoWSmFWAd4c/XruG3xcPwpr4OplLGCHxVA8uIR2t0AgZc43inTTyQFb0JFEBKi0FCKr7f/gOsXD8M3+V+CMagbH9BOvJrpUgkg0LXOEJfCUGQFwSjQo+XxePCMhyoSF51CYXbUVRASmW3Ay7LPNFFk5ePuj8Zg+o/TUBAo5FCiaUkI6zp02RLl6pMc1QIEJhWQb0BCwJKRZWbhgdPvx8C9BiEkZTGxMjk4YEuU/mCqo1fUA4SdDhAqcIXgMxS0k/fCo+c+jZOanmxnN7g9ejuXvFhbAAJ9pUapV3IUN7z/H8xdvoCrDAqBIZtkZM9DobVefiSmJhJrnIGFATQqysGEsybjzH3OQoC1pEkyhmq8OXmoO3OmcqBDGBDLDw0q/jBWYdDUAfhF/RmGQuWrCdDoVcu+Oq/nrPzkQNGBHH8uXj1nPk5o2A2SRfFYWrJEgRwvUKceIKTX7zRmKEuBsmE0FOODjZ/g5kXDsMJcAU0xbf1/C2aNCWl4ez/qby9CSYl3qyBVzFRallGCSqOIXfhlWLb9Ewx/fRQ+3fYZF3IzSFDONBE0DURJzNPruuiszBwJE75/DizEgF4H9sL445/EXn4KN/hZkbN8vaVFm7QpfTzjVXUripRiPP7t83jm0wko8hWW1z+gCK2dzCgid15fzln3ZUimH2HFh7Zmc9x10h04u+N5CIC8G2LyCdhRGXz8XUSSGApZ1Vax8DZoa/tZJLXsKCnuDKEkr99PrnAax5QK1SzSCs9cOBm9m/ZG2EmfoRuxoJKzOngx/V6fLs6rLQCB3iWCCD4s/BiXT78E2+RNiMl6tTuV+NpZKYAp0srCmg9H4xgsuOoVNJIaxncAjkpxei2V6dnl/ABalAtQjPveH4XJ30xGNBSFrkiczunlYAFJx9jqEm459Brcc9wohFi5MAoTQg/eyyipBwheWrz8HKFDSP1Uhre3vo9LJ12L7Q0LoMllFW5UU54Br2+XKUBIdn8aEwR1yGNH2gJFKMRvZb+i/4QBKGhQiohUBhgCzFpUSyJdxUX34KTCdn4FZpmJ7g264bmBU9FO2YuBAwF7jtc488L085ttkFbh4R+m4Kmlz8IMl0HXSssL5CbigTQBgiT5kBvIQV5JNp4893F0a34CcmWS8E5dgbceIHgdrXXkvNoAEJyCPRxtoF2ApmDfQEeMP/1pnNDyBARMkiYl1T/VrgLpxeyn3wG1BSAYiGGTtRGXzbkSH2/7GJpUBk0mBnXqb0ombkRkoiYlTfD84Gno1ZJ0J4T7nY5dCxDK318I6ej4NvoVrpr6L/wUWw4jRDsxR8Yl9bfGz7CALmonLLhyHroonSHJlFJJY8Zbhnk9QEijrdkPpCGGEry9+h3c+ua9WG3+AV2JVSrrVpcBAreIs0G2ca1mafiy8BP8a/7N+FVfAcMXhalrYElYr/Es933dk5AdCjJy9Vwc2/g43HfGGByYfQC7+GWH6MmufwXbze24/b1RmPHTAkTIc0CeOQolkDuNjjQdBnEPg2lB9itQYhL2stpi5Cl3oX+nAchBlivQWz2ZuR4gpDeXav3ZOwMguGgG6X2/vQBy0RVdwSG+AzHujIdwXKuuCFthLmsscY135wnpzoTqX6e2AAQqifvOltdxzYv/wRarQKRZEUDy8LkEENw8fiIxEenznBYD8WS/8cilIKpVXqs9fc5/el1a1dkiI1vCdmzBAx+Nw1NfPgk1TN9JblUPH5pw40BRNu47aTSuPugKSApBInKAe0BUDJJ2jg7CnAtno1nSWgy0A6+7OghRlOJ/G9/HdQtvwx/KapFxRGXGE7otU4CQqf2oSQ9CHCDwN+lMoiUlQkMuxKeRb3DDnOH4JbocMaWYi01ltDC7x7C97kpWGCEthF4tT8S4vmPQKdARCv1jUtZSDPlmPp74diIe/2QCogENmkmS0QIcWLJN8U13+tiGRVbIR6CgsdoAT/R9BKe2OxM5yBX6KQw8ROp1dYfXOVczVmT33qU+xOCFg5AwGEkEiUl2bttc/ZgqR7z2eQ7zntJ+9ipqi/EXPIsT2nRDmN3GLtgtygOmj5irGFe7DSDY382lggGsw3oMmTIQ36mfImJp0GSZK895We4IIFAsX7ShqHXQ2miFuQNewtFNjmZiEy9Pdn707pxizLWwYvgm/3MMfeECrPWv52/1hIQSXpyAY8/cbpg3eAbCyGYiFYEEL0ciQLjh1esxZX1m5Z6FUBLQI9wT84bMRhM0T/IKdQsgOCp9BKWIe/Bt/ve4cPYQrPKtgy6XwWfKPM6osmiFNS9JEaZk/RHffHPMna0HA6h0j5oECOxZY/TMEX9mz2gkJ8zphSq+Lv0Rl8++Cj/r30N1iIAsREaF7khNM2mIvupPcprODCMU8MNfJuHovH9gwnnPo3WwA+/hN+IvPPrxk3jqkwmINSaFRJKU88FHGg3k13GGezpNxzESUVtBUS3kWrl44pIncF7OOQjwZsJtX+sBgrsD6wFCKoDgHoj2z6ROSixbnuCU4kR/n4qY7tzHZV/ITlCWA4kpdQodiHtPfQinteoFHw1mXkiFISmH7l6Wz1rqQbAX8xioBK6MCb9NxC3v3MIxReKI6zbZK5UXU6IqnBKgUTEVIlfJJEkcxrUHX4kRx9+JPLMhp0VRbrrXxTNdI53O+UQEo24slUpx95sjMX7FJKjBaMqyvkmfIVtoFm2O2UOm4/i8rgjG5Z9Sj4tEgHD9khswdf30dD6l/Fz7cb2CJ2DekBfQGC3sOiPuyVJ3AIJYHkVmHykkvrb6bYx49U78Lv/Enq04PrcJd5kABIXFgyg7RxZCRPa8Thck1CRAKP8OQXQR7yJxWwRNAoFRfF7wOW5YdCu+M75FrFQDgpT8Z0KxDGgsDev9iGMru16CT1K46uMxbY7FhN7jkecPYNxnj2L6ZzNQJBfCDDrC1uSHE+JqXjyMld7IkiHpfmSHQmhR1ghj+o3G2e0GMBQqt63l31LvQShvwXqA4AEgCKIYFfwJwGfIiITLXLl1prOVTUZ4rXb2MEAwFRiKAX8sgA5KJzx+3nj0anIiAnZ9AlIP4z/xwex9QiY7c3d4EByeHSm4WVYJ1kpbMWjGxfik7CP4/X4YpgHToB1/aoNDeCxkSoj5TRi8+wmgtdYarw19AQflHgHJDECTBcUs4HF3vWMtWv3VIsggcZXKn/Wf0O/ZQfhL+QOG7I2o6L67qQEhyY9uzXtjwTkLkB0X2UoPIJTKxbjx1esxaf20jD6dABotqlTNcc6QOWiBJknuU5cAgsh0Idj/3vpPcNurt+N3Yzki/5+myodbyTODEAOlFtLQlqlYgERJrlRiXnBHUu0rEht25wAEN1Swa3CSh8BUUSaV4afSX3DDq8PwfdmviBjUJrY2iQeBqIq7Uef/xHi1NGoXCWErGz3bHI12bdti3geLUBIog+7ToTN7cccPaukQstHCbIpxfcehb5s+QulRFiRfcdQDhGQtXQ8QPAAEP2MAP47ZuztCBX68v2kprDwZqhYT3kJ20aU71R1cIcOQTb6PpCpoUtIMCy97EUc1PQYBYjRKOkzeDRMvYceP3QEQ7LpyUEwTplyAUR+Pw2OfP4vScAmrocUTaTyUnZVMmUlNuk+DTvUuInm4/aRhGHbQVQiyLCop5QsjR6mNqZfOHW/T1HegbxRV865YeCNmrZ4KNRBJfVnCGVSewudT0EBrglcueROHNu4CH4KeeAjMh7AkaLoGza/iuiU3YtK65yo+wQtDlBdMUZXs+HAP9iC0QnOhxW8fgkRatwCCiQiWbn0Hl8y8FluC2zkWrjuEOPd3ZQIQTAt+XYYR9eG8E/vhx/U/4oety9PIG3S1bYZpjt4HWzxtRhRYsBSYko7vYz/irEmXYH1wAwyrFJYeA/ypAb37ueXRGXtW2mZTliyQV1akK/pYMZ1gFJdnTydzIvEj6fV04eRtEWmGqf+ega4NTuAwLmWSVdR9rgcI9QAhtBxppznKQIAItGYAfdqdjbtOH45H3noYL/2+GIWhAi7PQwRf1ZH1tNN64ySkFHPIOY8KFlFOsF/3Yf9AR9zXZxx6tunJYp/C1DoAwfazpRODc/X87gII/Lqmgd9i3+HcKWfjN1BsN2FIegAIxFJgBj+ROU0FR2UfiekXTMPe2JeJTtyeDNpEwzvZzN4NZE2e6RhbwDJ0qHoUy8vW47VfljDASe+wIGkW/D4CSH6c0uFMHNiis4itehgLDkDQdR2GX8Pcb2fji+KvEgBCqgCPaFbizUQCMXTOOgiXHXY5k0IdkFeeYVJ3AEIMFFZ4GcNeGYHV/jW2dDJ5fSoeQto3ock8cBDokhwzCxd0vBTX9Lwel80dis8KloFjZWkeO9uDIEogOiBQg0mF1KBAxXZ8XvIdbn5pJH5Rf0REIk0C18vzNdV/TCWAQDjTpP29EJuiyANXTJRkLpvOSmo7AhBMwOdX0NRshCdPeQwn7XUacq2GQnuBjio8lvUhBhcgrddBEEVMkoqA2PaSAIAc82HA3oMxse+T2KBtwL1v34cFqxYi5i+DFKOUBKorIMGi2Lh7oasGIDh57pwCzLFqGrgmfCawr9kJD5/7CI5r0Q3ZyIrPPicWV3Eyejc0uwMgMDZgKZYIbnv/Vrzw43MokrXKJEIPxoCKBAkFNI1zmMeeei8u3u9iBNGAvREsqkTt6BislPdMbxeUnj13rC0ZOxGmUmXaGcXhY1q3Ix4B5S1wtTwEYKkSZAqce+ApOgCBxg2lXmqI2G71tF6BxyFVD1ERg4Jsdt0m99LUXoBA389RbUuHKkXx6YYvcN0rV2OFuQYaSX3b1QnprAqHqAZc4bBFPuN/F+9ZmaCszFUSg0YIgw8ajPu6j+NQ4cAX+uPT6AeIqnaRJy8Iz37CzgYIceIio2uqPkG7eaqfHOM592XpN7jllWH4tvQrRDi7QJgmrhBCJdurGYvlU9FuRFaZFSCevGtkO2VDEroLbArtimXpDFGecjQvFPhVC03MRhg3+H4MaHI+AqRca/mFbagmnFle0jv5g2uLXzKdZsn03PoQQ3UhBhsgEE/JrwVxbtuBmNZvEpPftlhr8J+5V+PdbR8gGo7AUDUhD8wTS+fiPHx4BAjuwiIsqAQJbbR2ePq8yTipWS/25pVvYBLDGd4d6bsLIFBhmA+2fIGzZ/dFma9QFC9KuXhXHta0qSDrIakGeucdj1mXTkEjtTkUfy4bFiZ2ul3lKbFT+qGh9CZb+f1FLQZ30an07pT8bG99XxEgiL2xj5f69A6hKeEEjdweB7a6rpvVToBAQJVqKpCvKYZifLrlM1w+61qsC68VhET3F3jBjgmsOQYIjuhJDGisNEG/QwbgkeMeRMgMQZVV9H+hPz5SP0ZMo1LFdmVTzv9POVgZsmSipOi1l5NphjgkzpBOKsdRfB37FpdPvwq/4ieoGu3+JYRMi2tSkIdWDPKqn1hOVhQFzMS2qIojAxshmUGEZB+aleXh2csnoFfOaZza6LxUnBMVf2S6gN3bnPPa5rX5vHqA4IGDQB0YiIVwXtsBmNpvCqVDwyeb2GqtxIjXR2PGHy8hEioFDJ9YnCjoxexnivum1/3O+RSH86sKOob2w72njUXfFqfD7+RVMnmHplT6paJ3B0CgJtiGAlz/3g148ae5gI8EZ+w0qfSah+VhJdOHxmYDTOv/HE5pdQJ8CMGyhHZEMhGl6h+xswFC+dMru+HT/Pikp3szVm6AIPaFNHpSq8YlPrKuAwQhXkU8/VK8tupt3Pb63VgfWo9SvagSmvekopxIq7fBAXEOAiV+DPrHBRjZ/R7kKFQ4OBtFKEb/6QIgGFq04kJaCwBCsiEmEv9IR4OkpTVoioblhb/iP4tvxBfbvofpi8Ci1F0mVJPtqx4kJAKEameBVwNqewxZmVEjOfs2GHPWGJzd+mz4LAWKlP5Yr/q9vM25mpjdu/se9QAhA4AgGwrHy2DGsNFai+FLRmPR+rdQahay/j6nRVGqne3G8jDvy7GsTTHg+1PkwpCxj7Evxvd7Ct1adUeAKhhJmu1Bd9J0vA+j3QEQqBzM+4Uf4oJZ56NQKoCPaITkjkynYeLmW0KWkosTQydy8aKmaMBOUCqOVNsBgvdeSufMNIyVHVumUAUdmaSBxgECoWR2k7m3iu6fa6cHgQKKMRTizfXv4KZFd2GVTCJIkaSOvkwAAtcc0KiQUAAXHjQU9/S+Bw3RkMsjEXekSCrB2QQQtI9hGqpNmPHe3zvbg5D8TcqJi5ZJhGo/Z+F8VvQpbnpzNL7a/CUMlMIyDcQ13pyhkMST4BkgeAUH9NJ2NML+s4wsAAAgAElEQVQv+9AR7TGqz2ic2vZ0ZFMIzDGm6dyv2i5JY85579paeWY9QEgTIEzpN4VLuIRsxBrTNRQrRbhk+iV4r/BjlIXz4bPLqcdFPRxtFA9DoIJ33M6gJJDQrLgxJl84Az1a9bD3fTRIHX+eHXdP7aHcNbUYEvyUm81tGPzCBfhgy/9ghjTInIbouBWrf2nWEeBDWAByzjSz8rD035+io9yZBZVJR0Hm0o8p3PeON6fCI3edB8FD92dwijdjFedtxjNuyl2u6Ty0rgMECnW9s/kNDH3uChQ1LoKhxKBYEmcSJTr7MgIIloRsORentzodD/Udi7ZoCU2ntL0g/AiiCCXoN6M/lqnLYJqCg5COGuNuAQjxeUN2xoAuKTBYjGwbfoj9jkumXIOV/t8Qk6lUtMhwEZPRFXVyNW6mAIEDWnb1x/j97fvSXiMQCCAPuZje9zkc3/gEBIwcBKQQezQclYd0xnrV53qbczXzrN17l3qAkCZAmNxvCjtnnaWZSUqyhb/09Rix5HbMWzkfUq4Bg/TLLUCjkUvZijSyy0ntVfa6AxAEeceeZ8Qcp9oN/78g3nvWAzil9akIudzDotphVTu5io/a6R6EOAua+Fkqe1QWr3sN/37xSi5WRPFfsdg7LoEqAALJvrIAmvN7wWrOjYZwzX5X465T7kNACtpAQyi7VQsQKjCuKSldgmUIljTpLwjlBMeuuWPriV2VDFA451dVF0Fc41wpKum5n+X8TLQ28b2i3p74qepDcAE0W9SYuAGkh0e7JmKHyy4lyXKAYIF6ga4TOR/l7Z9qeDq8T5lpjmVQzDACcjb0mAklIMI7FEapTWmO9KbE5yFCoiQZeGXl6xj51kj88f/hQU0h4p3IxU9USOSWTxEe5CltNyH3vArkoAEu6Xwx/tvrv2gqN+ZqraKyA5US8LEH4cwEgOB0Mfd4qmfuZA5CsrEWHzs8wShAJTOxm/4tWSq+LfsOV829Dj+pPyCixDgTwZJkBEwDus8SiouuIxOA4NA6nDZnUjn9MWQosg+KqqO9rx3uPnM0zmp9NoJWSIQVnEGbQRp6PUCor+bIhrLKLAaeEGKYuDkIlE7nPsiQkCdho/k77nuHshuWoNBfxMbHsBQhAORkNqQwAC5J8PgjyICxm8yS0MHqjMf7TcQJrY5BtuUUJHKKmDi7wqp35bsOIBAzWcUKdQWGzrwEX2vfcF6zlUj7rorN5AAEmVCCsMRkCPaLtsWL5y1G56ZdQLrqvKgx3hANWyUHwdXuRCIjTQBytW+V1mJFwR9Ys2098rVSaJYJwzBgGTQqKqCKcj9mghWn55sUnyWdB0uzd4Q2ArKERK9zJ+pfp0SwkzkjuAl0Pf0x+D78yaQUWe0qRR9uQFcsSKYBv06V+UI4t905OKLzERXHKO++LOimiqhi4LONn2FVyW/crg4I47ewh46bNFvBuNso15Ai6OzfDz3bnCwqXHN5CXFxbQEI9D2qvZypKMN7G97HsIUj8aeyAqpiZxBUA788AQTbO0js+0Zogv4HDsDo4+5GE7kxK4Y6SJghoSmhSBYA4SN9mdAScB1xwmI177RbPAjO+9hIwfH+ETz1GxYiUhF+iC7HTS/ejK9Kv4YpK9AsAwGDAILJZc53FCA4SQeJAIHSv8O6wlocj573IHo3OQlhDjsmHvEZWE3rev1VvQfBa0vVifN2qFhTUoCQnIVjGDFs1H7DjYvuwCub30IsK8p5P86+0pL1tEmL1MAEEMjQ0AIrRxS0NPfCc4Oex0kterIGg3DlOWKx1ee87XSAEB8RRAWLYcKXE3Dnp3ejzB8RC2Uqq+s2mCJhQSzMVgANtFzcetw1uOmw2xDm1E+xiFYwPtXxGuzdBHkLDMvEz5FfcNXMIez92a6WISrTYktFnsRiWkEAi7c91aM7fnQiNktyifPK8cXY5XVxvz6flyoCQucQLUUiedwAmha3wqtDXsEhrQ7mtnG8CMLRZTFzXgtYuG3JrZi2UgglxYGK692Tpv3aLaBLfvhNCz1DPTHj0lnIM/M41CPXOoBAhESS3CnFl5u+wtDZ/8Fa/1roLFKVAql78CAINAQWQcqN5eDcw87FiO6j0BItbf0SZsXYzyKAIDNA6DuzPz7WlsHUyZtWftR6gBB/VXvAWgJEG4YGSZHxWeHnuHLODfhJ/wNQYlwvhasvUlzQbiv+j2utdjJ7ki4kCZwBByTExyY5Z2MS2lhtMPHfE9Er0Nuu4RqoRiAt1YTysqTVAwQvrVRnztlVAIEaRDfLsNnciOFvjMLCPxdBzzUR0UtFvq/tJ4ubpribvfqm5LRHiQCCyIpQdD/2t/bDuL5j0bvdSUx+gkS7EQp87H6AYBgEhFSsVdbgrInn4NfwH9BUkVqXDkAQi5cIRyh6AAf7D8HcIVOxb6hLRgx8vp9Jde8jeOLTJzH5h+exSdoAzYyJXb0T5GQ9HHJMV3G4f5GwzlTCP65zK+lCpV6jqh0Y3DSGEJUhF3menodLD78co48bzZVB2RjbizYDBJK6llWU/j9N78ZXrseMdVNFn9jG24sHQSwNPsimjB6hXph58RwQPz9AZXTtb609HgQLpVY+Xlv5Fka+dh9WKKsgIwJToVodqc2XFyyr6AoamLkYdMhA3HH8SDSXm0Di8B/TFV0PIalAGSVSKc6YJQCCoVVU06w7AMGFnggAkFfQCMBUVHwZ+Rz/nv9f/Fz8I2JqMaSwqJdSASC4ooaeAULCnONEMUjYW2+D+/s/iD6t+3HxMoXkrKtdv+sBQuqRX35GPQchoxCDewRKtpiIIPDSEVM1rJfX4o4lI7Bg5SLEciKsxsgAwtbw4UwHxzh7XCjILU6hBv6vZqK91QZPnjsR3Vp3JwkQW8LGebfkxMVd4UGwdA2qVoRh/xuG536ZgUgWSUWn5z1whih7HWQg28rF2NPuxxVtL0SQ676lj+INU8dmaRMeWPYQpnw2AyXBCCSrjMn43C+JpPz4KuLqoOoWllSLjmvn5GyOkjkdvE9gCYqexaqSJDKTF2uJF4fMRtcmR3K2izvcIgACfaOGUkRw3eIbMXX95LjhrgBaq3sBdq8ohITRO9wDs4fOQkM04vi64z7ZnQBBfIeAMVSV8bX1r+G/C0fiL/86RM0iJiTqPsOTBkclgBCv+icqbBDKoEJhFx10EcZ0vxcNEIbEXAcCZ4mDac8CCIyn2SNHYIuYRgHAiAFKAX7V1+Jf827AtyVfIEbsC2dwxQGkPcA4jFbNpHF7EBIAAmVUNslriKd7PYE+Lc6AbAQQlrNtkF/dAK4HCN7tSz0HISMOgmTv0l1LMbe5I/hB/6U5scFci1sW3oAFaxbD19SCGSHCFKDKFJcWruxUxEU3J6GC+BftqjUZuSUNMe2yWejV5NQK5ZzEu7kng1iKdjpAYLe4htWRjTh90mn4M/QbyMGh6ZSK6BEJuUYw2QiKYe7lb4UlF7+GzjiIRU9495xWmqSFEmzDpN9n4OZF/4WVrcJUQoClQrJcO8oKK7Zrq5POrEp1bvrNUPUdab02gSw9iP4dz8P93R5Bi2ATBpFxsS57JFQECDdgynrhQah0pAI6tuHuEe6BOUPmopnVmEd/xf7Y9WmOREik8BFBZZJBenvz+7hi5r+xNZwPVVHt6qgk7Jt+ESAK8zFYtceHFPMzEe7GA6/BzSfeiEZKA1dNjMQMEepwg1SGUCKX4HQ7xGCo6dfj2K0cBGddt7mUHDngarYGIlyXkSTpN6NM1nHRu1djwfKXedfk0K/c3qxUU6TK39s2UzYltGvTFq/0fRkHSAew6GLACFIpB6b3OmTfcnRSk5Mu/c1Jxt+7my+s9yBk4EFwAEJ14Wb6nYYy5Ktrcfdbd2H26sUoDpYJME1uMPrJTvfzmp7rjkg415Dh6hI8CHedfB/6tD4NWaZDXKTJ6xhCulIM6p0NEETY3EChWYRrF16F19e9hqJACevOZwIQfIYEzWciS8/B5Ydehju7DkdDqTEk8qSkARDIaKzHKvSffD4+j3wJUKlambQTbBepeyKmWiB3dNLWpK2yVWP3lTtg1tDZODxwJJcPT+RDxD0Iko5SqQzXLa4GIKT6Pjvs0z2rJ+ZeMB9N0TiJP2fXAwTK5qBZR4WXFq98A7ctvgvr/CSfTPyc8qMyUTbVB9vePnsC+gw/cvQ8nHvA+RjT7S408zV1IJh9o8QFZM8CCPFNDYMlYWMsLiynYpO5CsPeGoNFvy9GqT9f8BDso0YAgnMvIi1DRo/G3TCu7wPYP3woZ4yQh8jxzopTXW671N3s8Yx6gOCxoerGaTXNQXAAQlVfH58TLCYTw0ZjBUa8OQZzVy1CLKjDjJEUI0W5BUjwChDiE83JB2a5YiBkBNBG2gtP9ZmIHm26IcAAxCEu0mAuVxHbOQDBveJRdgCRw2L4fPNn+NfM/2BVeDU0JQqzUgZD6vHDAEExIcthdEA7zBk4EYflHgfZ8EHiuhfVr+YOKKFnT/x+PEa+MwoFeSWc9sauct7e1PCKneqzavBxZCRDUT/O338wHjjpITRAAygmZc5UfIlygGCgVCqtMYAw74L5aFJLAAJ5BmIowmfrP8W/Ft2CNdIaaDKpFVZ0K2cCEHg6SRTaU5AXy8OgwwdjRPeRaMHf7ridnLGYbOuw53gQ4utuvNqlxBk4m7W/MO7zhzHlxwUok7eDSNuc+srlocs9fjW2ZKsWcn25OK7ZCbi/7yPYO9geYSvAz0wM8NTsHK8HCKlMXJ36/a4GCInDR0cJNumbcNW8G/DR9k8RzY4iopWAFZPljKq+ijlankUFxZCxd3F7PDVwAnq26QWf6YMlRyFx4KH8jXYOQKgcyiAjUIBijHv/fkz9ZRLypS2cVpigoZRyHCkmOI2Por7+CDBk/7Px1MnTEDSzBDhgA1Q9L4mIiZqh4ayZZ+G9yHvQqFCUk8PuodBRypdM94QaBAihUBC56xrgxetewjHZx3LwS+gbVAcQSpiDUGWIIdX3uDwItQkgqCjGB5s/wtDpV2Fj7maANDcc5qTrmzIFCJLqQ2O5Cc45oB8e7P4AL0Z+yV2GvTqwyoUM9ogQQ4XhYVpQrVKUKCUY/f59eObryUBDGdFoiSiqxkZKyM4n9oVgiuzYEQhmQY76cGBgP0wZPBkdQu2QRVyQOGzbGWHCeoCwY71Wy67eHQCBnJo0NCkuR8uboZtYJ6/Bna/fhfl/LuTaDURc5Lx4+4+LA1VtCzpxUDqJpc/tWSZpEg4kMaXTH0DvvU4CabcJb0c52UEAhP2wWd0GxaXU7I0eQCRJoEEkDxOGPIOzmvVHgL+wMkAQzl7g65IvcdEz52N19hpoRGiiFT/+zl58+VQEhmKbImKSp+bgxXNeQbd23TnS7KgVVKe0Tl6EqB5Fj+nd8Zn5OT+fN5VO1Tgvr1GTY3pHrKL9rhT6pXFDPJSrDrkOo04YjYZWDocWkpmvcg+ChVKpeI/wIAh1CWoQ0tLU8OqfS3Dba8OxyrcWpNNAmRakoJWYspkWQOCUV0FIzFZzcMGhQzHs+NvQGk0RlGnUUWsnT3uuOGTqMECwxyuXZHZZE/aqmAa2W5sx7M1ReHHFHMRyi6HHFOiWhZBuskiS7hioBLBWEwBBkoOQZR98ZRZ6tT4B9558Lw7IPdAuRCbCEKwxwryEmjpq7k419UY76z71HIQd4CBU1ynOrrYi+dbCWv1PjFwyAi+ufBlajgpJF0JNBqneyTZxMQXRNlGO2XkPn0msdh9aYS881H88+rQ6BX4iq8XT9ixsxzbs9+z+Ox0g0DvRZ8SsMixa9RIuW3Q5oiETZkCFTN59Uyglpjq4KWwiHmkT+IwAejY7CTPOm4JGUlMGIZQhUW3ms2kiZsTQberx+ML6msFB/Nnud/DwPqne19PvMwUIjsfIFICJGqZ9aVtMHzoHxzTtyn9H2RjJRJT3NIDAoJtFkGREjQJ8uOkT3LJ4GH63/oAm0aiw01Qz8CAwIGAPnegoWfUjJGXj6gP/jeHHD0OWksMLD427itk01S0cdRggOGCaAQLRQMlHRT0Qw2Z9DcZ8OgZzfnoZ+ZQlQmFPS2bSoGJX/RQArfJ8rxGAoJCAnMVUCEr3Prr9UXi6x9NoH26PgBWG31J4g0GBz5qb3vUAwZOdqysn7WoPgr2mJR2QKooQM7fjqllXYuHW9xDJEzXVJS7CRAWeaPVyiYmk0cg+U2HdAMXwoWFhc0y46HkGCVSmVcBnC/nyJuz/7IHYrObvVA+C+7X/0tZh4JyB+Cz6GXRZg0+T2OOYKMFavdtEaCgQOTEn0ghPDZiI/nv1QQgBNtNip5D84BCDqaHPtFPxv9j7bDDYW+NUhq45y+GttzIACHGRGBskkHKfYgRxbot+eOqcCWiEhjyOVNliv1HiJ+15AIGamrKCyrB084e4fOaN2BD8C5qvovgQ8VQSD88eBBJB0vzI0rNx7gGDcH/v+9AIuSCdD1kRYusVwzl7JkCw8QE4oZspO0JroEDaiGveuR6v/fEWiq1iKIrMSqC8OUjikkzcENQIQLD7V5FlGGUGFEVB15xjMOGC59FOaY8widILlbAaCGg4I6keIHgzdHXkrNoEEMg4kRr+dnMd7nhvDCb/+ALUkCbic7TVZ2KjWEHSIOmLEB+po9uKf4rqRwdlXzx62qPo0b4bQnoQiixhq7weBz53CDbHahIgVCQpJg6LGFS8vH4Jrlh4GYoDRVC4IhwLy6V38GMkBPQw9g8ehpmDnkOXnH3Z167ITnWM5LfUTR3XvHwNZvw5FdHsGIWDmQNiZFazKL33rrRCpX85h6tY496ERlhS96El2mPOJdNxaOhQVpYUhasqOr2dJ+1pAIHi2iT59Pqfb+Cm1+7CX1gFw081Eyuir0wBAs0lylbIioYx5NAhGNX9buTJuSzGQ0wax3NQPoRTocy660EQqaMmJHILkBy4ImGjvhXD37gdC9bM5foLhkFptRJ8tmpiMgxcrhwqflsTS7bTv5Yu3K6yrCCoh3Bsk64Y0/d+HJx9IAJc7rmqOinpz8UUSkyZ3LDWXlMfYthJIQaH1+zueQeJEwiIGIXIlwsw7NUReGfDUmzFFpiSwYsWhRDILeekqjGDwMOuM068ox2kRQtpAF2wL8aedT9ObH0iF/HZKq3HAc8egi3q9hr0IFQ/vsnAbEIRbnzzZrz8+1xogRIbA6UyqsnvS98WjuXg9hPvwNWHX4k8KwzJXe/daSvX7WnheH/7h7hw0iCsD60n5Wb4NQmGj4CKh8atiSkcjw1lJtbiY0RlMWkzpObg7A7n4InTH+PMBZH7L46qxh47p6S6x0GgL/LF/OjWojtmnTcXTaSGiKEU769/Fze9fAd+k1ZAYiVRUpSs2FGZAgTywoVjuRj6jyEYceLtaG41giKRt6riLtI7xq0bAMHhGLjTAwkOsZeO1aINrNVX4f73HsbcP+ahSNouJOANv7BXDBCSz6eKtUdSAASHNpVi3sUBAoEXVm+SICkh+GIKTmx6HB49+yF0DnRGgH09mdmbyq/gvddrwmzsznvUA4RdBBBoyrjFkHXT5LSpzeY6XL3gOixevwR6WGV3GAMEctNxFUjhHeMlpZp1zHGZC4K5DJlSHSUDoYCEVgWt8dh549GtTS9EUIz9Ju6PrcZ2EMfK8VJ4ASB856QkxVQAQXz7R5uWYeDMs1GQs0VUUfRCQki4tbO0Uv2X9qVdMPea2fhn8LA4TZKnrnOSax4LHYRtuPPdEZj+/XMwsiwENAkqZUiwLIXNwOIVtoYAg22PBJGUKgYSz4Sek1gIyqMJiCtrAU0izTFjyHT0anwyAlR4ykUgSzRf8eaoywBBDaBb826Yed4LyJGy8eWmLzB0xlDkNylGKYXLTJnDa4lVGdMCCET6lBSu8hmKZuPiIy/FHV3vQFM05Bx7yzRgMTGR96quf3vpv7oBEMqzjJyFnlgH4puplkeBtB23v/ZfLPxzAbb68xH2B1GmxRAmZGbJ0H2CNJrs8AQQ4ijXXde56vatBBAIBMgB9mZkqQoODx+CyYOmoEOoA6jIHmVVsPcnIfXVSw+Wn1MPENJrr1p+9u4IMSRrEmdn53at6ZqOfGkthr85AgtXLUY0VApLJx0BWrMUl9hROgDBRcLj9U5Gx0An3HPy/Tiq9bH4x8Qu2G4UCBmAtEB1ZgDBwTYRFOG2D/+LmT/MQhGK4p465x2qKhBUoS0ZCVFw2ISvVMZFB16IMT3GoTFaxHfR7s1HeWFlckrL+Lb0F1w5cyhW6j8hakQR85sw2f1o/8NbqKp3QekMdSeEwhkYBBCgwCCBJtaDyACE2HYpqPowaL8L8FjP8chFjudXqsseBJLSPbHpsZh03iR8+OeHuHvJKKz1/wWDxcCE9DF7wD23hjhR8OdshURSDNF9yFMaYfB+A3HXMXegcYB0DtwLgttPk87D6gZAiHsQ7B0DAS7KEbHMQiYh3v7WPXh55SIUy4Us7y0OG+wLF0KGi68Nct1zjxdz74dFA4C6k99LJDoGEMDhLQ7D0z2fQMecTgibOZC5wirhGTPDzIZ6gOC9V+rAmbUFICQ2lRjGlIJXgCJpI+5YfCdm/fkqyvKiHGMQKYpUi0AsKJlsbGnHT250v+5DW709bjrnVvx30Y0oM4XM664ACOLt6d8qVkXW4ayZ/fCzttz+rvJ38AIQuPS1KUH3EyMPaC21xfjBT6NPg5MQQIiXXWf55bipq9F13pRo+EH7DrfMHYaf879HMUp4kSHGOv2hXWhNTX/e1UtCtFFkHQhiJoG/jA4SgDElNC5rhGlDZqFns15cNdDrUVcBgnBvB3BUi0Mw9LhBGDtvHDb5t0JzqgTaDWCSHLLXxnCfZ+s6BEi6HHk474BBuKP7SDTTG8HvI25LshGRztJFD6sbACEOsciNae9kqArtBm0lbnnvXixYvgg6KcJKOm8wKtm09AxKPNuEazJwk5Kvz2aSJKp9pejbigABYF6CJCFsBXFKq964++Qx2CerI8JWCAp5PJi9mMlRUxYik2fv2mvqQww7KcTgpRsrDrMoNhgrceOLw/HKpreBPAlRNSpK6EpGRiqEzjtY9kSWdQkBww9d0WA4aDstO5eZB4FomaRyRzsx1VDx0FeP44FlY1EaKqwAUlIBBAI7iineQfNZvGOULD+6Nj4OLwx4ntUkFfg5nEFLhUvmQTSFZXCZ56hsYSPW4PYX78B7q5fCzDFQZpUgZqlu0cnyLrTbyCmdLNQbxV8Sa9tSbXH6xM0lGVgd8IVEkU3D5p/aTe9liFQ4x+cPwF/ix+ltzsAz/SexIIwvYX9b3U3rKkBgSqAUQHMpG7KiYqtRApVIpglIK1OAQPMwKIXgK5NwfseBuPOMO9ESLeCPl19La5JU0QV1BSDY8uymwo4u4hdElAJc98bNmPfrK4j4SxjYU3VZOQnUTaVsWgGXkcgZlSSPyWjvaw9fWMLm0o0olUsRIw+GHfpLFibyMnkcwEAeAyWi4PC8wzF1yDTsE9yb5DHgc/OWvNwwfk49QEiruWr7ybXZg0A2TtTBMxFDBFtiWzFq6d1YsOIVFIa3M3vYbwAxd/VHjw3uzvXnTZIT28hom0UPzQwgiF29wR4R01SxWs7H5fMvwwf5rzm8IuHyS0FMcjhQHOUkcSkb+OREG+DZs57CGe3OQq6ZY1fMNDndLw6ShBMaxGKjHWnUFOpvy7f+jHeWv4uv/vwC2418qJIGw7Bg0VafNSRc5D/SqnCVUKafWX5XUUDggc91ScpSESglpOK3gpXIV0oQIyKdJTI4PHE+EtpDUiS0Udtj/kUv45Csg1n7IR1TVWcBAnejgmxd4ZLCtPlLFqTJGCBYMvLQAAM6nYs7etyOtnJLu2WdzJg9HSA4BkHs3AnMkxIrAfu/zJUY+erteGX9myiMlALZEi+uNIuMBA9O4tzg/3c0JTiMY4cAnL+jtGVIaBtoiyn9piKUG8A9i0fi883LUCDHYNo7BgEQqs+USmoSeZ5RGXIZipwFKWLghMZd8cg5D+DA0IEVSsYn4TVXY2XTmXUejXUtPa3eg7AbPQg0JgggkBniKWAJSeFV+grc885ovLL6ZRQrRYIYTOeSYaT6A85kSbHQxyvPCSn0GqhbkhlAiD+awh3QUSKZeGXVQty08N8o8BcDfkukG7rf0cuEsTfyiirhn8F/YPqQ+egU7MBtSCENd466+DsRHmU7Reu/oQE+2gcZ2GJshq7odgobqSqU780T2c+JqXRO3oB4HRH7FL1kYIP5C65ecBO+2vQzYkFVFLfx4tl0r0lskIGQ6sPAjkPw4KlPoiFzD+yyw17ayin3XAezGByhnaCuwPLpNsCSYCRkn3gBCPGlhmNvxA1RENaycMnBl+K2HrehmdUQQUoYZS+RE77ZMwFCxYwFGtUE48UkpKJHG7SNGL30Hsz7cw7yTdI5AAzajVNWiWVCI6SQwBJwexB4FrBKkTBUOimkEdSTREaBXGahS8P9cE//seiW0xthyPgN32PYS7cxoTmqaNA1izOO7CiQbfk8LtDs2BOa6rIchCJZyFL9OLrpUXik3yPoEujCHkchB02neRVT8vh8j/OyNp9WDxB2M0BINtQ0Q8UmaTVunHc93sv/ELGGGrSSGOvGsT4c50J647nR2E8k7GZO4M0cIDiLP+2c6U+Bko8hEwfgI/UDRAI6dEG38HYk7qyJs1gCDO86FrcffTPnqpcHAcpvKdK1HKjg4BGxyDqLO+2a+B/XFt8xeqnSpJzlmmKfsiJDl1TMzp+IG569FWoDH0p9EW/fmGw9soB9Clvg+aGT0KPF6QwySHRKquAnqb756qoHwcGNflLfZJ5I8u/0DBCc1UYFcow8XHTURbj78LuQ58+DX/azViB7q+IDsiYWhFocYrDnHbUrAXiCRRtBpervxLzfF8DIifLuvwK9wOUpc/eGGyCQa98BCHQ9Af0/VPcAACAASURBVASRbSWxpsc+1j5Y8J+X0AX7s9ICcXWo4b83v8K/p12JX9QfUKDGgLB4AmE68arp94ezWWCxNUnCPxv+A7POmomm/ubItRraZFWHoJzKDKX//FR3rK2/rwcItQwgiAlgQlULsRp/4JH3HsOsX+ajhBUXFZYodoiLJD2cyVEbAEJMieGbgi8wcHp/bAhsEcs216TI4JsYBMnYDwdg8SUvYV9/+woVLJ02osU/8RCAoTJASDwvFThgKVcGP2Q8xK5ppbESgyafgeVlv6KUVDJtQ5eqz+g+vDmjXRcDJ1JNDGHovgMw+uRRaG61gR8BBiDE0/a6v63LAMFZINjzU0UDegEIzlaUFqgcNRsXHnER/kupjFxCnBYIUUa8HCAkg5qpejDZ72sjQIizEMu5iZLO1WdvePMuLFn9NvMPKJYfd8G7BlsybkAlD4IrxGBIFGaU4FcVHNToANx3xv3ontcTQWYLkTw2oBlRmIqJP7RVuHbRMCzb+hmicmF56rF9v3S4DnRfByAYulBbJJ2Ebs1OxKjT7sOBDQ5CthkWQ8OZeNV2cT1AyGQG1NpraisHoSos7CiDGlIJ1qircPdb4/DiysXQAxrHsYUhE3UbMlhOdyAFeAc9CLTW2e51EieiwlF3vjUcM3+Zjphf45hmpgCBFo6caAiDWw/BA/3GIM9qzEQq0cbVLaHJYpsVPQh0D08GifQNLAWWLMOyVEz6/QXcuuRqRAJlnBJmyJJQj2RgV33P+Q2Z885jfguK6UejaEvMGTQNXZsfBZ/lh08KxGtj/l0AguiHqs2MF4DAgQPThyw9hMuPuAw3db0JrdCSlxAisGZOXEtl/mojQCDITAqJpBZG2U461sdWYeR7d+LlP15DkVIs5N+Ji5NkvKYCCJVULQ0Zii7j4JwD8dD5j+DIrKNE5cW4m5OTu1nKmciR31m/49rFw/HZX0sBuRSGYcBinYXywyuB0QEIpiG2CezdiPrQu0MvPHzKw9gr3BZB0w+/LaFdfW/WA4RUo71O/b4uAQQWSIrL5VrQTBVbre24cuZl+F/Zpyj053N2DjP57XHqAAVHLCkVathtHgQXQKCSy6Skvxqr0W9iX6yQfquoaOgV+TgbPAnI0YA8jRbSF3Fc065sbOzoYjVuyeQAIaMBzmpuMkvRlqEAfSadh4+192FR/QmDhJJ8/DtYophQdQdVImSw5LMQKPWjZ6OTMPPCWWiCBkweE0d6hqquexDSBQhO67jhGLm3s5CDgZ0G4r5eo9ACjXjGWQjapZfSa1Pv46T2AARRdF2MHo0JiUJvfJO8Fne+ORKzf5+P0mgUUk4OYOgImipUxagU2kkFEGiRd4jSbHNiEvbKaY8FFy1AR2tfNFAaiGkQX/PpJIPZQxROLbRKsNpcjWEv3YqvtryLElmF4Zo2fBl9hCurqKr+cIcYKMxABEi/PxcojeGYvCPwzJAJ6OwnToKXtOGdNUa8j6ZddWZ9iGE3hxjceJh+drOznWGoW0R2W4c7Xx+Bl/5cCK2hBrVMs8urC9e8QYqAjghgisV1dwIEZ22jcrD0AREYePrThzH6g7sRbRAtZ0ZnABAIOCmqDye0OgFT+k9GW7ODS/o10VXstHwNAgR7JSJPyKRvpmDkR3dic3CD4DdwaEhUlmN2XEoUJwwn6QC11Vti/iUv4fCsI7k6HQv72MuZl2YS51isoVA3pZa9msOK+1wOxnFbibg3eQ6CWgjXHHENrut6PRpLDeC3KxMSlyM9yqfXd3LOq10AQRRAJgCt81DcqhbjlteHYdGaeSj2l0GS/DA1i2sb+CxNZAYlGI5UAIFpj6YFWZEQ1oPYP/sg3N/vQXTN68pF1uxhmcBzJIBAZaEof4tCbRpWqL/hlldvwgfrl8II64hELNDlon8ZNvKtqvPycbo4pyWLYnicAkleBFlGjhXCQXkH4LGzH8c/s/7BqEMo0ZZ/c0W/RT1ASHf01+rza7MHwWk493JVAVSzcbMQ1cqwUVqFu1+7C69veheF/mLoBjHiqYIjnUTxPW/pc7sVINgfzDnWtIORgdWlv+KKmZfgG+07lJI7Pt3RJNZenvhUr0DWTYztOQ7Xd7nJjiU7KRKJcCzdB6U4n0lUBnt8zpk+CF+XLUNEcb5HpFfyS5azraq9IZ0dVn04a68z8dyZ05BdQTUxcZRU/260HPwdAEJiK5AXhoeHLiNbzcFFR12KO44Zjjzkwucq8EUyvDv32L0AwXH3M7vCoR7wDr8Mq7TVGLlkDF796w2UKkV2LkNiLKdyWCwVQHDaM1sOYR9lX4w//2kcFj4CWQhVs5iL2U8ggcYsgf6YWYTffatw2/xb8MnWj1FsxWCQ8lgFjC+KRVV1EEAgsOImH3Ooj6ajLMMX8KNr9tF4+qzx2CfYGX6LkohFbjmHYSrcuB4g7Ny5sovvXhcAQqomoSFp6sVYr6zBjbNvxTtbl6Igi0rbCvcgJTZAEizhVAtsbQAIjOLtMImJEiwtXIpLJl2C/KxtQmbaba9TflC5mzLg80OPaeiR1w2zBs1CAzRBCKRUtGuOCGJYWvghBj47ANFQIYxAkqxGD0RMMkiyBjSK5mHqkJno2aI3f0cqsmRVX/l3BQiSz4KiyggXhzDoqEEY1f0+NEQDTkY1VAOBgNjJ7ukAoTysIDt8QFiKhYi8DUNevBQvr1sCy0fZN6xOVHEhtZfsxLFVFUBwdvK0GIesIPYOdMATFz2Jo+XjkRUXn0o1H2nSO0mXFqJGKdYpW3HhlMvwTfG3iAWLhQFhQoHtQagGIAh7k2BI7P+XfVSjAQjGAjgsfBgmDZ6KduF2yEZYlJivNF/rAUKq3qtTv6/rAMHZK8pUalWOYp3xF0a9cS/m/74I0TwNmhWFXxdCJInV7JJ1VG0BCLxTIDc6gHxzCwbPPQcfbv8IEZI9FupR5emcVYAEdp5wqWu73hIRAWGhWbQprjv6WvzryGvQFI25GSpNa+eedhW4eFslyw7xJCGr4y9rE86bPBSfR/4HK2AIwJZYlMojQMjSQjh7r3Px8BmPopHUwE7frHqXVN2k/DsCBBYrN2TkGbkYdPBA3HPi3ciWcqBIdjiByXcJ7ulkEacasXa714NAAIF2wqT7IOkSNEnDJqzDiLeG4eUVb6BIiUJWTFiy8ERWqsXu0Wi43fxWzOJ0wgfPfAhHNzhWVFTkiV1JPqGKFnZAAk0ihUXMftZX4uYlI/DBX2/D74sgoqvlmwl7jnolLlaQZiYgYPngjwXQo103jD1pDLrkdEQQwbjYU/m31QOEGpkSteUmdRkg0BSJVzDkRc6EahjYYG3AXa+PwIIVC1GWG2HGOx30H6cGQFXrkMe5nqT7djyLoXwRtn8ia8TKhRZeiczDlXOuwHa5DDFWNPIOEMjsMMWJYqUy4I/6sB8645mh03BY7qHxiL3i8q+U4wBnVXB4CsnQSLKFOeE8ScecX+fjuneHo0TaCIPqRTCpJOHaxI5x/9oWRaLWySvJwYJBS3Bcq67ws3BToiyN9xn29wAIFVceYseHtDAuOOAC3NlrBFqZzSBLlClDZZtFSfQ9HiDYuwthR3TBh7EkrNVWY/TbIzHn94Uo9ZOAV4gHV9DUuMZFpUKrlYyGS/o0LtFqK4/SwzQJHVp2wJTTp+KI0D8RpvvHSVLMLvA4eJ03F+cX6iVYp6zDva/fiTf+fAllPqJZCjtBwKBcr8GZy1U/pnLtBhk+XxZQEsMp7Xrg3lNHY//sAzil2AlFCAJ5PUDw2Hl147S6DBDssR8H3XHiIkxs1Tfh1pevw6vrXkWkkQ6jTBgAjZC0T8RenXiju6dqBUBw3o0BggA2Zb4YRvzvFjz9xXjoRHBmt0CV1WPjbcL5y/Yia0qiUhsJFoa1AI7Y50i0ymnNqVRcy4EWBZOUEuneTmsKY+LUWHBSMd1tZiX7S15sSLiHDKoF8s5+s+Y7/LTtF8hBk/O5Rft7AAguMEQ/5pQF0C2vJ6Ze+gIaW40Y9BGLIb36duVfsKcDBNagYB0N8c1+0/9/7V0HmFTV2X5vmbKzHVBUihQ7oqAYRDTGqL8oBrBGAypg/c0fxYZYQbHFRDEGFRVBLFEQuyCKqFhjNMZeUOkgHZZtM3Pbn+87987Mzs7u3B0W3J0914eHlb3lnPec8533fBUFKMT1/a7F+QefzyWiyQeDq20nLMrJTSSj6SY3ZU0DQnHHaRA8b4FEoklFWBWIHKuoQQU24oIXxmDOsjmIFZgidwdVXqK0xLQDMo5p6T7r/L8gBxQqyPfxOqBwSPqGCqXGxoGlfTFj1BPoiR4Is1nB04N6MVpNATfpBcB1TBQbS40fcOHMC/B51b9QYUVhUlZMNyUtB2Uwd/fWdPZ9Sjgtei5CCoc89iztiVmnz8ReoT1hmjaClLGJoGo7/ID833LMtpMd8xZzR2snCJmAVGwHBmqw2lmK216/Bc8ufhlbgtVijpMakXdNERBX78DqJ9VvxtFrRg2C+/5E+zi/vo0vaz7HqfcPw5LiFaI0so/KyCzmE74XaiItK32CbcvCi9PFQZzD62Tp5ZoLHskgZ6b6nc+0TMir28svz+6JxErIfksOUfSzt2ulvy5lQDwSR3975aGJuHSu3gVPn/sP9Cs5DCEngDgREA4A83vyqvvRfCcIzPc8cmCqiBhFOLvfKIwfcCPaqWXsoJb0dk/XGIkU2fWupuxhWaXdjiMIdU4FLgnmfV+JY7mxBFe/egNe/mkOoloUSsjTvXkd8Dqdrh1LLgpOk+yuKZEhkdaBIMOFTgh7FeyLSUP/ioNLDkWhUwglQS68d+cCrKgHKzQgDqrtzVjqrMT4V67Du2s/wDp7C2cXSxAc18HQV/4SDr8WtNFbjxTBUVAYxuEFA3Db0Duwf+RAdlykYnHbpMrLOk9a1g2SIPzCYY65TgcxmW3YThTL7R8wYc6teG7FHFQFom4BJEoUS8Z5q+UTBI8s2AZiagz3fTYFN394M7ZSnQafZMbTINCpJv2i7PHeqdEmYSYOF0JtkcqevJ8zWBiy8WjOfqjpsCnGmso2NnolP0DNIKFDCdziusMpEoIowvEdB2HqKQ+gwCli9Syl/6URdXUfTZ42bYEgMPEzgZIYkYNzcMWvr8Qu2A2aQ4mrvEFPTbaU3KjyjyCQqy+p5kLMnBwlhlXxlbj2tYl4evFsOIVxWHEdWoAcEt0ERY3NqjRSKwiCWEdUR4XLpNdq6BXeC5OG34v+BYegEMVpKsxtIwiJNOmkzaMkYoqJ763FuHHOeLyx6i3U6FsAQzgkUWIybp4nGLJwEnZGdM17tpdswQCKtEL0Lx+Au0+ahD0jeyJg6dBUOoA1eQm2ygckQWilBCGRTMkCaq2N2KRX4uJZl2Hh+oUwy2xURytEZIOaVLt6C5oPujldza9BqNsMygRv4+f4epw04yR8o36BWpMiNdyrkUXZGEFQFC0Rw+2pTvnkn3BSTHu/XxcEr10Z7hfytCFdZF0CQaGZRBKiQQsqheNtbI+Hz34YQzof76ah9RS03imn6dKpLRAExVDQQW2Pk3sNwzUDr0Mnnaoy6iITIJcWdjeNxHil4JgJ0qbD3Miq2pEaBGoGLXIDsMOs2dqgLMeY2dfgzU3vYX18NVsUgAgUOnIr8ex5Oer0TOji+TDNPwqMD4wciBlnP4I90B0hFInTfMYlsK3AGq5Hss7v/x7LceHj5+PTzR/C1GsRpZoPCZnBxR+g+LEL8HnBETkSEiHjKoq0UvQwu2LGuY9iv/A+0JtcRzUnYdsiHpIEoRUSBM/GSH/TOqeTZTRmYKW6BHe8dSce+/IJGCVxBEV144T1jw7XTPy5il0u808QhLJoKe4fPgVDdzoZQa5F2TyXV00uijie/WEmrph/CTapW1NM+BSclrlYT2MEQbROoFbP+cr7VQoLyTWIQZgbEorKRkCpSxBYmSEctaFtVXB6zzPwlxMnoRM68ju8u/28uaGP5i1BYPkvCjSUohxn9zkHY/tfiQ4oR4B3QUJNmJW8cU0ehvOXIIg540B1FFQplRg77yo8+d0TqArWsCqe9FEFhgpLU2CSr0wjwdHeyZrnolsvhYpm0cWZKeNhdCvuhr8PnYyBxYcjoFCFRNcRSNyV5l67DQTBtUlSSWqHsh5aNqrtKNap63Ht3DGYv/glbA26WkJ2XBSuRkI+ZHEecAkCI+eSBHLeVFUFWq2NId2Ox18H343OehefGRebRy7+km+RBKGVEoQEQXZ/4H3fsbDMWIzb59+E5356AVVFUdimxVXSyHptqRYvFioZsC0EoZQIwh8ewLCdT2Y27efy49dDOdQoxTAJpI3qRlz0wvl44edXuAwzCRyy7XMQo48wwdQ2eVb79CqAv5T3Tbp6kkmLSqYGoKQihCeHz8bRuxzHkQuix95RzKOGyd5l96h2T3ucHU5kFqxWKnHJy2MwffWjfoau/j3ujvGbyG8xa/gzaI92GUSvcCyjr5tONU57Zgjmr3+LzSjbeom5IIgiQRd2ChFSIri49wUY0/9SlKjFCeJKlDIR+9HUT2/DPla/j/U1CLYZTW5EPkGhJulxHVcfcBWuP/Ia4WGfUpo89TXUXcsx8GH1Rxj95FlYbCzl8GHPCkfkgXbOjKTZkytu4TBvyVGUEP2h5yghmR5X0buwN/522mT0K+6HENdm9lrhqSrTCYIfadAAIG6Ullu8nfUk1DYLBhYr3+HGl27EKyte4rlhGjbIPzJRSt5uPJmS98UEOXAoUZMGWxfOyGWVxbhj2F0Y0WM4ChHxOWKt+zZJEFohQWhoytGyizsVnFNgzKxL8VbFe9igbxVaA5YMVOfdSpykmj51XQ1CrBT3ndn8BCEGGzrVmyfNhxbDW2vm46ynRmN9aAtsIjcspThlVH3Py6Z35hd7IpP9koR22NAwMDAQM859Eruhk/AhyXK1RYLAJzxXMxYyAihRyzF496G484TbUYYSxo1KfoszY8pmlB3Oumi3coJAnalFJW748GZM+2gKKvQq2Gl8XszFxnVTlM3Qu4QGQfyfFnPQp0M/PHLGA+iJfVCIwjR9V0OAbwNBSBkhIs6sGWNXKwuVSgWWa6tx+fNX46PVH6FK3SoyLvKEEf1sao4E6rutOZSwFqGqAI7pdDyeOPUxTrbVFi5JEPKMILBt0KnFGnsFbnptImb+8DyqiixYjjiF6xad7Jp+CheLYfsRBFrGZDmkMD6dfSdsbFbW4pZ3bscDn0xHNFQFR1cBlYhO9mJHLXnxZiIIFH65q7krZgx/EgeV9uW0yn5CGv0SBEbW1SDUKFWsQZi2enpuMPnUIJDHBI9rM2sQeHOissymhlKzBCP2H4FxR12DMqVMEAI69Qoje93ohDZGEGjNVyqb8NuHj8P3VV/BCFowAnVBSM7FhtmQ67kh8OQSKgpQ7WC/wv1w9xl341fFh3HWQeHo6Qfk5iIIXO0Bmuu0SO2LKcDX9mLcNGcCFix+HTWhLZxjxU04m/RQZeVJIwzQ7YYwaQrTpFKrYJ/I3pgzYg66h3rktnZa2VNtiCAcjW/C3yIeIJUaiRGaWEL9SvtRuvo5MY7uHArGwji982mYPmw6yCu+pV2e8pmWHiVNMlCFVfF1uGnBRLy0eC620EJRDQQNRVRe94rYNKEj4vyuoDza/BoEL2sqn2WEkzIMLYZvYp/j5OkjsFRZLMI2VUpa0lSnqiZ0cgfcWk8ukbNXTMGpu52B+096ECXkPOamdsrWnKYTBBs1Sg3GvDQGU3+e5m6i/sR6YocQOy88EwNlqqwvaoWEpbx824MgqHYA7ZWdMPyAM3HdYeNQYkWgqUHYLrgZw0H97F2pgG9PDYL5LmzDyN3E0PsqXP8bMjFQFUqKbalPJy3EsdJehgPv6otYQZSrpcZT1QFueHD9OeZ13HXWS2gZgKCjIqTo6K71wLQzHsc+BXsigmI3GMiLCsoGXPMQBG43N1FUgSQnHsqDUgkLi5UfMfHZ6/H26vmooPoSqY4ULGREaHPjqcdcqeoqWJwY+bkU4/2R76NXpHe2pZkXv29TBOGr0LcwwiKjCi0nPwRBJNRRoBkhnN7ldDw6dFqLJgjUXCYJ5MNs2PjRXoSb5ozHvJVzUFVQLSL7+CRJsfqCKAhP5Ozzme7XHQXlNaWYPHwKhuw8FEGfdQ6yioS0yEDyESL1YbW2ETd8eCce/vgBxEPVsBVSHfsIy8renV/sDnaoZrxdcwmAdrVlmHbiDBzTYzAC5CRiO9B81Kb3TxBcZz7FQRQ1uOTFMXh4zVShFSKwyYE1Uy6AdJQ8Y7QCHFl4DJ76w9PYFe0zYMnWYfIqgYUoTpk1BPM3vMllg3O96BTH/bUUFJkiz8HVA65GWSyCwkDIndOCvLc0guBQFkNbY7X3kCdPxkLjPTiG2WSCQH3TDRXjeo3DDUddhwACjHF9gsDHHnxZ+RkOm3YEjKDJIbhGFoLAcTKJpCLuhs8OTmK66lXAnqV7YOqoaTiw9mAUhCNuKQTxvaRTaGOjnFUa+JsiKd67nKiJWyDeHUUUa+zluHzWH7FgwwJEKX07TQ0viaOr7PCSo2X+YEpBKJeHBOMB/Ou8T3BA+AB/bWzld7UJgrARG3D6Q6fivdj7iBeQsxAnGkyoxBrSIJAsZJ8qR4NqhTFq33Mx+ehJXOilpV7p1kTTNrHKXoI7FtyCWYuew5ZwNSjJEmccpH5Q4DitfZ9ym+TLTrXtMe2sGfh1h98iSClUfWwsvhBLISlie6G9wMQqbMTop0bh3S1vsC9CvSxvLXUwMrXLdUgUWZHIvdpEgaHglJ1OwZRT74OOnbnYLSVFUnzUps9OEEQjyKzkjUEcUdz6/q24+d+3QSvUoMUsmJowB2S7vJqU1Pxhu52F+wb/Dbs4pVDrhZG5SaOgw/zvSfa810Zj9uLZiKqxbJ/I+HvP56BQKUYgFsLIA87G+MOuQ7FexPUFkrE64nEKbeXLB/FtsEHZDsI+eyJwjXM7K5WtGD7rLLxa8RpM2+eiS/sO5XW4ve9tuKL/5fxOi0h+PQ2COFWvtFdiwL0DsC6wiW3plibWe0MXywSN2KItQv7ckzf5dGgxG4e0+xVuP+EvGFA8EFodfLzZ4/kJNfYVX9LAH7oc1SAOE2KwVdaQigiuGL63v8H4eRMx76cXYQRVxG2TzQ3MD9z2NxQCqZLpwnWEpVfbjopSpRyfX/A5uqCTv/a18rvaBEGoRCVuXjABk79/EIZaAwrRoVOzZzNrlCDYNJ+CCEdLcPvQO3BBj9G+NsRfYl5kWna2bcFSqvGzsRy3vnEbnlr0PCqLo8KVmXOSilSpnGY1izDlZEAO0CXeGS+NnIeepd2hc4XB7As++x11EROZjSnpUBw1AQtP/vA0xr08DlsLyFRitm4nRTKTsyu5joBlo120CA+f8RCO73gcoJSwhoRMYPT7bJd/gkAJs2xYtglVUzHrp1kY9cJo2GUKEKf8+25irSwfJJmqUe2M/94//tA/48o+lyFIc4d8AuoQRXfzoyI7poEHl03B9XOuRVW4KluXGiQIQSOIYG0Q5w64EJcNHIMu6OjOPQphTJ28pD52Z1wLIAhi64qDzCJblC249vVxmPrNIzAifihZXTg4rDBWgGfOnI3jdx7Ey5dMB8mqEqn326jAFgyeegI+qfoUTiFlRmADY+MEQaQOEGHBrlAIxVQc0O5g/G3oXehdcCCKQPM0E7h+AG+qNPA3ZcSXiSq4skyxUYMq/Iw1mDBnPF5eNBeV4RqRstwmE6ZnavBYQPp3BEHgFO28SYSxV8GeeGfUOyhHmb9GtfK72gRBMBDD584XOPGhk1FhrUFcFyyaHMMa80FghxxbQRARdDK746U/PY+9nW4Aq7lb3pWRIAh/P/KwwUasxf/NvhKvrH0D1aEYHFJlu4uK2XKW4xYl81GiDg4rOQzPjn4FhUoYOlU72w4EgZtFrN2yYOgW1mETRk4/H+9ULoQVqk4kPmp5o9B4i5hkEQXQqV5ECCXxCPqG9scT5z2OXbAzoJCzlzh9i6txYeqXILDg5AgWShqj4OuqLzH4nkHYsmsNqq1qWF7OgMScyNwPPnTFHZTWFOHFka/iiJ0HwlZI4+GV3/Sec+PRAFSbJpYFf8TgycdheWB5k4eMEv0phopyvRz/e8hFGNN/DEcrCDNCyjGW13MzHfuplc34KtIgwA0BfPSb6bjy1cuxqZByfPjZUJOQ6baOvbR98fyI57FHwe5Ce9LIFKHy4/f+5y7cMm8CjA7kleCflNBUoLNDAULYv7A3pp8zFV1BPgdhNzrEPb4nmufTVulDXjR5ktRrA8l4prP8myVYijGzrsCbK96AGYzBMA1YnvIzJdtiuuOio1IFTLDjdMAoxSndhuC+Ex9AEUds5P/VJggCpdTYgA34/Qu/xz9XfwBDj4n0KVkIAg1/wAnDjqu4qP/FuPVXN6GEF3kydW9LmiLpcoJEAUfQczEjB4ZdjU1WFcYtuA4vL5uLTdp63oxI69igk2ZKB3VNQWm0jHOTD+9yNrtG0cawvQgCiZuom2KYKtF9sPFjjHpuJFZZS9jU0Bov2g8CUDgfgO5EUF5RikfPfQTHlB3NsfvJ7YLOQekCuH6Pm0IQvNMVccGt6ibc+8kkTPr4flTolXCUAPs9cJKMxi7F4TxyZ3c9E38+7i60s3cit/bU/MXi6ZS9woCDSrUSf3z7Qsz6/umkKE8pstXoJ20NxVY5hu/3B9x01A0oc8ghkQoAeZe7k7dogkDZ/wJU5BBLzR9x2iPD8IXzbZMJQsAM4qx9R+O2o27Gzgo5h7pxhxlIgogMsvBD9bc4afogLFNXwfCR14yVW3RyNhWEYyr6lPfCpCEPoW9JH+gOJUFywxlYS5PKoloCQfBcIWhyEUnQYEFFNWrwk7UME+dOwMLlc7HFqRIKVK/5XIylfmQD8y/HBp0py5zdMO2kKTim47EId5rC0wAADeNJREFU+fS9ao0yKrXNbYQgUDxwHHNXzMbY56/BGn2Fm6tb55MoJejhYiMp8obNT6qKoBlBN6Unpo6YikOL+vJ0czh7YLMeL5plHqW2iH72CAK9nHk02RQBrMIyjJ13LV5c+iLiai3Yb4lqCFBedS/bovsyljv8ewVhM4jB3Y7HPSfeg52c3ZgocfU2H633c0/6a6itMfbRFs6RW1GNcfOuxvRFj8AKm7BsKxGqJGylTTuN+Wh2s99CKmIiVabiQI9pOG634/DoKdPRHuXunEqlCNk/n7GGQMbHxGxgEW4DphLDOmUNRs48D++u+wDxgDA3KYqR3LRcPPkvdlJTEIKO/gUH8XrYXe3BBJrNVekbVMpeQft2TLHw2qY5GPPMpViD1YjxibruMqq71VB1QZUL/ZQahRh94IUYe8Q4tEMJU1LbNKDqaUH9LZog0GYlNI+bsRmvrHwRlz57OaKBWsS0GGMuRj4FBdeJmP/VUhCwQuga7oZ/jHoKvZR9EfGymHKqQDYIJMmXm6SKwgBJzX7fu3fh3k/+jjVFm0VFSw97foSSk3nfpUghUXAsYhTi4JL9MemkO7Bv6BBE1AiXZhexjsLeX58gZJ+z21N2egciAaVIMUYGO2qtQVEdWIrrXx6LucvmIarFoVLCLTfbYl2uIxK2EQ5q3EKJHcDvDxqFOw+7DUWgcNqWF8nmB/mm3tNmCIJweqvFzB+fxmVPX4poqQVLVbkSmaUYgm26ApGq+amhABRTR/d4Fzxx7lPoFe6FIgRhgbQPdHrJZctr6vDkfj8t3dQ8Zt6baF3bThyrsQKXPX8F5i17E2YkBs00YFL2MY2SFLlVS+ghkzLVaWxO6F3UFw+OuA97YA+oZgS2a2nZPhbFun33VOOLKn/A7x4fjOXOShhqTFRhdBROKc07TgsnCWQtdtQANNtBebQY9556D07rdEYisU+9XTP3KZD2pJt817XVK6ZI3fiZ+RXOn3YRvqj5DghH4WhxlygmsSQTVcgOI2Bo6F7QA48PeQz7tdsHqqoLZ0AOEs/QUHe/8n5N6u6Zi5/CDS9dizXhdTBJW5EozeueWvmzpNcKQjUCCBkaLjpiJG7sOx5lOtl96/oa1PlqYykBc8GxWZe4yIbp+flvxkbc9vatmPXpTGwMrUdMM8RGlf5NN+JFNzV0rNkVE0+9Fad3PRUFfIIVu7wI2q5vOkgWBxd2+WveGIf7vvs7EFLYy5/9ZNmMqkFhR08ijyKvQBjF6FPeD9POfBjd0Qkqgv4knh+O3qy41h1YgXL9fyPPi5BFfge1WIqluOKFsXj9p3lA2OLkUYZn+3PFCIsSmwqnBRGs1HF4xwF45Mwp2NXqBGii7HNbuNoEQXCjZHk1mHYN3l69EDe+OAE/Gj/C0A3ENFosVCaIQr50BOwQNDOIPrv3wYTDr8OhHQag2Clglk8e2eS02NIJQkOTl7m048CKm1ivV+DPH0zCE59OR5W+nmPIKQcdCRZKy0wmmMKYhvZGIU7odwwuO/wqdAp0RcAKQqPi62y7I5aw41ZL3Inh1o8n4v73J2FrYS1HZGimjrhKZp+Wf3k1F1SYGLzzIEwedg+6gJKubG8M0wgCHwA1GJaNRdGfcPP8iVi4/BXUaBXssGioOixFQdCOI2ipKI6W4cjOx+DqE67B/kV7sxaEHGA1zdPTZpD6aRqCqBNDLarx1ooFuPm1O7Ao/g2idHrm056r4nWAoAXoZhC7qd0wcsC5GHnQSOyiUDpnckYkLUdCL5zGIpt552nm16U2liRJDJW4/7MpuGfBZGzRq1EbiHFa8dSLUv0SSeqidcTEYeNxzK7Holjt4CvCxXuP54y9xtqAGZ88hunvPIS1odWoDdUIYkAEwb2Z7g3Ewxiy94kYe+RYdI10RTEn7fJ5YvazCLcjrpkkgCgUzdSc5XbUqcY6ZzXu/+c9mP3JXKxVKhDTTZhU+ZY0e7aFgGMjYDkIOe0xvN95uOTQP6IraU3tOBSdDojbe722DFnWBgiCsOV6QV7kjUqx2N9WfYtXvnwZ73z3NpbVLmGbbNSysVPBLuhRtAf+Z7/jMGi/Y9FT6YygHWYBRpsm2fRE/vMdPMubeb7QUiFKRCFv/974ER76aDJ+XL8EP1etRywgnM46BnfCHsFuGNn/TAzqeTR0u5jNCsK2R5coFbUjsYjDwNe13+FPj12EDfpakR3SDCGmJ72zUx2N/KZWbWZ4G34dlR6O2ogoQdzwu+swqPMgRNgjfAdenvrfVWHTyb4GUSxYMg/zv38di9YtwbKadYjpFjroCvqU9cawfU/DwB5HomOAwjDJ4VEIW19V8tyuUXor+mMjhpVbv8TD/3oQc5e/g03xrYjGqGqngqCuo2NBOQbuMhAX9L8Ye7TvxTUpImRu8DaxPCAIXGmRDS0KPtr0H9y7cDI+r/gaG2KbYFACJcdBpCCC3cs64dguR+GcfiPQXevEksdGQcL5rimzhnxBahHF4i2LMPvjmVi4+g2s3bqWQ55pzRQVFWGfrvvi9L3PwJG7HoVCpQBB3ljJrFqY8DXiadPQh1sgQUg6xLjB07QG4aBC2YCvNnyJWf9+Dm+t+gjrrM3875F4AF3CHXBQt/0xeL+TcEDHg1CmlrIWRVRHEb1v3TuAv5nTZgiCp26jZUkCLorq/1q0o4ghigIUYbOziaMTOqIDyNeX7HvkvSsct0gPR27nXqx462aPtIY9hSTnMedwoI3szLMem9k0QSSIPHWLUMDJWCg8LqAWuNY8157qVcvZYStFpImO8wjR2NW4JxsSYUkVa6pd3r+N3t+C2da7OMTKTSodRCE7O9EGuOMvcaoiyktbL3lGkI3W5P/IkEb0kWvdIMzqbIrmoYgVSnVN7u3eNuFj8N2ABl5GniVPdxBTK1GNONY4G7G5UgjnsqJ2KFWLUMqrkgriUB4FEa9AzmJ1vczTvt2iTQzJERZHFlptFKMYYP+naqUalajBZnMzKitFKGjn8i6IsCQK8DqkizQPwkzRNBlEZghv3dM40zysQiUMHm+ak6RFoLt0FKGYkRcnbvqjC+2qn0naEglCHUIsMj5Rhk9x3DNBmi1dCWKrvRWaSkcjFSEEoLl7gFsijnvvz+PKD1Ct4542QBCE8w5vFA45ZwmCQHnKRWY24YvviRrK2y2csulfiBy4hYHYY1cskRT/q9YxyvVaKZRunpihhCiMkkJiQKiMPZO+OCjShkD3u45sddKR7XgIWMAm4t7JudJVn3snTG6sGNGWt6CFqtNLgsTFZnbwWUQ4s3HOvOTa4FSKblgBOeF4eQS4tAHNC3c91GmrD3LgjgnvG8mUG2yu85zgiWcmXfREllPxZqGp4BMub1DpK681EwQ3dwHbnESuf5ZTXLFUXNxbCkslRBJdJWrhjYf/tee9VSBI2yO9kBD1ZoE3D90PUb4M1TMr+B9nX3a+JrzOfw8bvpNFmEdcOOOiWIFelJBw4E46bTFGqqBE3NRGVSbN0cKW+442QRAywe9tMPXiXj0nrkYKeeQDQWhIQZY8JTTUy8RKc2H1da7YLiugbnKc5CcaLcKyXVrSul5a119+x0lrl4eKzS8lxDGhjMgAY2KMExtnqjNe6yUIYt8R7W9IFjU0qzI5JDbHDMxMVJs4P1qiBsEDJ8EUkrhLWdH4zJEEIY0I+Fms/lONNMey3bHvyE4Q0tsjCcKOHaHW+7VcCEL93rZ+gpDeJz8yJ/UZSRBa7xpobS1vswRhWwZKEoRU9H45grAtY9hink1XyLSYhm3fhohU2klLhv+vNXJEbSU+CP77mvlOSRC2FUH5vF8EJEHwi1TKfZIgSIKQw7TJ/IgkCE2EUhIESRCaOGXk7TkjIAlCztDJByUCEgGJgERAIpC/CEiCkL9jK3smEZAISAQkAhKBnBGQBCFn6OSDEgGJgERAIiARyF8EJEHI37GVPZMISAQkAhIBiUDOCEiCkDN08kGJgERAIiARkAjkLwKSIOTv2MqeSQQkAhIBiYBEIGcEJEHIGTr5oERAIiARkAhIBPIXAUkQ8ndsZc8kAhIBiYBEQCKQMwKSIOQMnXxQIiARkAhIBCQC+YuAJAj5O7ayZxIBiYBEQCIgEcgZAUkQcoZOPigRkAhIBCQCEoH8RUAShPwdW9kziYBEQCIgEZAI5IyAJAg5QycflAhIBCQCEgGJQP4iIAlC/o6t7JlEQCIgEZAISARyRkAShJyhkw9KBCQCEgGJgEQgfxGQBCF/x1b2TCIgEZAISAQkAjkjIAlCztDJByUCEgGJgERAIpC/CEiCkL9jK3smEZAISAQkAhKBnBGQBCFn6OSDEgGJgERAIiARyF8EJEHI37GVPZMISAQkAhIBiUDOCEiCkDN08kGJgERAIiARkAjkLwKSIOTv2MqeSQQkAhIBiYBEIGcEJEHIGTr5oERAIiARkAhIBPIXAUkQ8ndsZc8kAhIBiYBEQCKQMwKSIOQMnXxQIiARkAhIBCQC+YuAJAj5O7ayZxIBiYBEQCIgEcgZAUkQcoZOPigRkAhIBCQCEoH8RUAShPwdW9kziYBEQCIgEZAI5IyAJAg5QycflAhIBCQCEgGJQP4iIAlC/o6t7JlEQCIgEZAISARyRkAShJyhkw9KBCQCEgGJgEQgfxGQBCF/x1b2TCIgEZAISAQkAjkjIAlCztDJByUCEgGJgERAIpC/CEiCkL9jK3smEZAISAQkAhKBnBGQBCFn6OSDEgGJgERAIiARyF8E/h+lHFjh8lM3fAAAAABJRU5ErkJggg==;" vertex="1" parent="1">
                    <mxGeometry x="150" y="420" width="133.33" height="100" as="geometry"/>
                </mxCell>
                <mxCell id="9" value="" style="rounded=0;whiteSpace=wrap;html=1;fillColor=#f9f7ed;strokeColor=#36393d;" vertex="1" parent="1">
                    <mxGeometry x="450" y="410" width="170" height="120" as="geometry"/>
                </mxCell>
                <mxCell id="4" value="" style="shape=image;verticalLabelPosition=bottom;labelBackgroundColor=default;verticalAlign=top;aspect=fixed;imageAspect=0;image=data:image/png,iVBORw0KGgoAAAANSUhEUgAAAgAAAAEACAYAAADFkM5nAAAgAElEQVR4Ae3dCZweRZk/8IngAYqKrCCHsiL/FRcVMYLCigwMTFf1W0+9k+AriAgKwv5FvFiUBV02iKusR4DJzHT1ZJJAuDRBFMIVhISEMIQwHBF1FVEElRUEuW/I7DyT7tDT00f1e83x/vL5vJ/3ffuoqv725K2nu+toa8M/CEAAAhCAAAQgAAEIQAACEIAABCAAAQhAAAIQgAAEIAABCEAAAhCAAAQgAAEIQAACEIAABCAAAQhAAAIQgAAEIAABCEAAAhCAAAQgAAEIQAACEIAABCAAAQhAAAIQgAAEIAABCEAAAhCAAAQgAAEIQAACEIAABCAAAQhAAAIQgAAEIAABCEAAAhCAAAQgAAEIQAACEIAABCAAAQhAAAIQgAAEIAABCEAAAhCAAAQgAAEIQAACEIAABCAAAQhAAAIQgAAEIAABCEAAAhCAAAQgAAEIQAACEIAABCAAAQhAAAIQgAAEIACBiRVwjLOH9OSe7XPaN5/YkiB3CEAAAhCAAASaJkA+ben6Yq404mHXiJ9ITx4rF8q3NroApb7OmTP9ma9udD5IHwIQgAAEIACBDIHROwFGDEojhqURL0kjrnN953N6gd4qY7eqVwkjVkgj7hW++JLslm+sOiHsCAEIQAACEIBAjQLDbTOkJz8ljbwvCAQ4GHhSeGI+X7HXmPqY3aUR10TyeFz64mLpOSeIPvH+ypLKa8ZsjC8QgAAEIAABCDReoDK3soX0nVOlEY9HKulh14hbpCePdgact9RaCunLS6Jpxz6/LI34szRijTRiqTROv2tErzTOmcIX/ymNPFn44jhp5JHSl12O5+zt9rpvq7VM2B8CEIAABCAAgba2Nq7ohRFnxAMBacSLrid+Ln35ecd3tq8GSxq5MFbp892GWl/PSSPvlkZcKn3nP6SRhMCgmrODfSAAAQhAAAJBICA9+S1pxGMJlTRfra9xjThReOIfbcGChoe1Vvg2+2+QxlkrPefr1QYrtseE7SAAAQhAAALTUmD0joAn5ksjuNJPq3xvk578htPv7J6FENxZSEujUcuf4kcblSWVzbLKhnUQgAAEIAABCCQI8DP30avq9CAgrMDvkZ78gdPn7BevdHl5RhAR7t+Qd3580dHTsU3CoWERBCAAAQhAAAKZAsNtM4QvjpJG/K9VRe6Jh/i5v2uc8sHzDt5BGnGb1X75QUa1QcIv9PyO7TKPESshAAEIQAACEEgWaO9tf4M08rSEhoLVVszN3O9Xpb7S1slHhqUQgAAEIAABCOQK8C117qYnjXh2gq/sCwYQzirZLV+be4DYAAIQgAAEIACBdAG3x91ZeuLcYDTBgpVxasPChqbjGjGQfkRYAwEIQAACEICAtUCpt/Qe14gl0ogNU+KOgCePtj44bAgBCEAAAhCAQLaA8MVHpRG/mgJBwDN5XRezjxRrIQABCEAAAhAYI8DP2KUR358CQcDtmIdgzKnDFwhAAAIQgEDtAq4R50/2IEAY8Z3ajxQpQAACEIAABCCwSYAn8ZnsAcBo40VP7rmp0PgAAQhAAAIQgEBtAsKI46dAADDMoxzOmTPnVbUdLfaGAAQgAAEIQGBUwDXilKkRAIhhnm4Ypw0CEIAABCAAgToIBAMFNbRPfx0DjL93ep3b1uGwkQQEIAABCECgtQVcI3rrWEE3PpDwxLmtfcZw9BCAAAQgAIE6CEyFXgCxAGVDyXcOqMOhIwkIQAACEIBA6wpI4/w0VsE2/iq+9tkEfznTn/nq1j1rOHIIQAACEIBAjQLSiOumYAAwzN0Xazx07A4BCEAAAhBoXQFpxM1TMwAQT5f6Sru07pnDkUMAAhCAAARqEJBGrJmiAcCwa8QtGCa4hpOPXSEAAQhAoHUFpBHXT9UAgMvt+mJu6549HDkEIAABCECgSgFhxNU1BAAPS088VMP+dWlw6Brny1UePnaDAAQgAAEItKaA9MVlVVXgvnNqZUllM1YTnmiXRt5dVTq19wjgIGKD9JwTJuIMym75Rte4H3J953Dhi393jfiea8SANOJS6YkbpBG/kEbcI3wxFH1x40vhi8XCiG+6pvPg9jntm09E+ZEnBCAAAQi0qIA04oIqKu6lcS7Hd7aXRvy2irTqchcgyNdvX9T+unjZ6vG91FfaWvbL/TnQkEb40oiV0ogH6ne88q/8OMMxzh71KC/SgAAEIAABCGQKCCN+WLASe07P79guKdFOv3M3acTzBdOrZwDAaf3e9ZxDqp04iMcXcPqd3YURn3Q98V1pxJXSiPubfEw38l2VJGMsgwAEIAABCNRFQHrO14tUbq4Ri7IyDirNelfq1aR3rzTO6TxqIN+mj5eZfPoH0S/2Ep44THryG3w7Xhpx+yQIYKLHep0wYp942fEdAhCAAAQgULOA8MVRhQKAfvcDWZkqT+0ojXi5SJpN2vYpacSfpBEPSiNealKe0cq8+s++uDjtrkvWucA6CEAAAhCAQKrA6HNty4Z4rid+nppQZEXwfLz6Cs+yPFOqEq/9mB4RnvhM23DbjAg1PkIAAhCAAASqE+ha1PVmacSLVpWpLzttcplEjwGmXRDCQZjyD3qHzXnANhCAAAQgAIFMAemLi/MDAGet7dWnMOKI/PTEtKucm3jMfxOecDJPKlZCAAIQgAAE8gS4QVxOS/cnS17ne/PSCddLT+7ZxMqwVQOJl6WRp1Xb2yE8V3iHAAQgAIEWF+DbytI4dyRU3A9yS/oiPJW5lS0maUPA6RcseM5V/BinyPnBthCAAAQgAIExAnw16RqnzM/weVAabnSmF+itxmxk+aW+g+TgcUFCYBYJZuRdaBdg+YeJzSAAAQhAoLEC0ojbsistVOp19nmg1Nc5s7FnFalDAAIQgAAEcgSkkcvqXMFFrngRPKTYPsbzEuScGqyGAAQgAAEINE4gGC8flXbt/f8LGjqPciPMxp1ZpAwBCEAAAhDIEBBGnJFylVqwQsPVfnFHeR8aBmb8cWIVBCAAAQg0ToCnxi1ecaGyr6PZBY07u0gZAhCAAAQgkCIQTJuLq/2mPwJ4JYgSnpiVcnqwGAIQgAAEINAYAenJo+t4NYtAorpA4veyW762MWcYqUIAAhCAAAQSBKSRhyIAeOVqfMIsPOfrCacHiyAAAQhAAAKNEZCe/NSEVXrVXS1P17sMj/NQz405y0gVAhCAAAQgEBMQvjgOAcAkuAMwGgw5Z8ZOD75CAAIQgAAEGiMgffkVBACTJQAQT+n5Hds15kwjVQhAAAIQgEBEQBrndAQAkyYAGBZG/DByevARAhCAAAQg0BgBaZzzEABMngBAGvGs8tSOjTnbSBUCEIAABCAQCEhP3IAAYFIFAMPSyLPxBwoBCEAAAhBomIDb675NeuIhBACTLQAQT5b6Sls37MQjYQhAAAIQaF0Bp9/ZXRpxLyr/SVf5j3Zz5CGaW/evE0cOAQhAAAINEXBN58HSiMdQ+Tet8v9bFdZ/riypvKYhfwBIFAIQgAAEWk9AevJYacSLVVRI03UAnkYf1z08zG913S3lka33F4ojhgAEIACB+goMt81wPTEHFX/Trvo3BhaRIX6lJy8s6P+LtuG2GfX9Q0BqEIAABCDQMgLk05bSl5cUrHwafWXcCum/LOfLncI/tI6ejm2kEY8XOQ8l3zkg3B/vEIAABCAAAWsBHl9eGnFzkUoH29bpLoEn1sVPlPTkt4r4CiN+HE8D3yEAAQhAAAKZAp3zO98pjfhtkQoH29ap8jcicVS/rkVdb5bGebSA8/OdXue2mScaKyEAAQhAAAKhgOM7H5RG/G+BiqYVbsk39xh92RWej+i7NM5Zxc6LPDm6Pz5DAAIQgAAEEgWELz4qjXiiWCVTvytf5LvRstPv3C3pBPFyacSGAk73zJkz51VJaWEZBCAAAQhAYFSg1N+5Lyr/yRHMtPe2vyHtz1IasbJAADDMYzekpYXlEIAABCDQ4gLSk/+Cyn9yVP481kLWVbvwxGFFAgDuxdHif944fAhAAAIQSBIQfeLdBRuXNfd5uJk0FXPTjruzt/PtSeeKl7Uvan+dNOLvBYKAF7hHR1p6WA4BCEAAAi0o4Aw4b5FG3l2gMmlaJdjaZcoeyU8a6RXxcX3nCy34541DhgAEIACBJAG+zSyNuK5IRdKsbYUvFgcDEA1KI/7cgncoViads3CZ7JMfKXYunLXhvniHAAQgAIEWF+CrwmKVSPNuxbv97j+lnZ6D/IPexFPe8kh5pb7SLtLIfy71dc50fffDTr9zEDd6E76ojL6MOEb44jh+uUacKI08mV88Y540zpmRV7808lppxLOTxGSDY5w90gx4ufSdXxcpa5ZpVj5YBwEIQAAC00jg4HkH71B0aFmLyubF0UrUk/+1sYIVS6udPKjkdb53IridPmc/i+Ns1mOQK7MMNgYz9kGZMOKMrPSwDgIQgAAEWkDANWKgjhXdL6Tv/Jvb674tTrfxqtu+kgrLJIzoiKfVrO/SiPvDclT37qyVxvlRdfuOtXKN+7G04w6COOvZGV0j/oAJgtI0sRwCEIBACwgEY/w/U2MF9aw0Tr/05J5ZZHybvpp8XCNOyUq3ket4DP1qyhzuEwYv0sizw2VVv/tiffuc9s3Tjtc1YkmRtLMCirQ8sBwCEIAABKaJQNFbx7EK5kGeGrjIGPMbG/GNvbKNpZl0S/2aieIuOulO7FiemunPfPVo2YfbZow2Zqy5G6M8Kc0iGL8hyS95mSfOTUsLyyEAAQhAYJoLuEasjlVayZXF2IrrRdcT5+gFequiPNITN1SR3/Pc0K9oXvXYXnryU1WUNzCUd0XLUFlSeY00zqrq0xsNnJ7myZmi6UY/S0+sK5D+MxPlGi0zPkMAAhCAQJMFNlZIotjtf9/5tdPv7F5tUaURfoEKalMwInxxVLV51rKf4zl7V1Ne3kcYcXU8b24bUXu7AnFpPN3wO/d2KFJe1zhfDvfFOwQgAAEItIgAd5crUllIX/yuo6djm1p4hBHHF8ozuPPgGnFFLflWu28wFfKmQKRY2eXCpHyDGRafLpbW2Mcm3MUxKW1eFnRhtCyzvG/TY4q0BLEcAhCAAASml4DrdaoilVDJdw6oVYD75xfJM7LthDwGkN3yjZEyWFaqGytrYURPmldwpV5kJr943r9MaxDo9Dq7SiMesy33RN1dSbPBcghAAAIQaLCA8MRnrCuJhNvZ1RSvMreyRbXjAXB5q8mzpn2G22ZUW17pyR9k5V1jA8Nh4Yl/TUt/46ML51Gr8+s7v86acCgtDyyHAAQgAIEpKiB9+RWrCoJvw3vywHodZsGGaq9c+XrOVfUqQ5F0Ck6280p5fefbWflsHH7Z+an1ORjbEJPz+X1lSWWztDxEn3i/NOK3Num7nnNIWjpYDgEIQAAC00ygwPC/T9TzCjEYGfCVinJ8xZa27gWesKjZp6HaURKFEd/MKyv3pJBG3mVTSSdtI4z4ZFYe7b3tb3CN6JVGPJe0f2TZdVnpYB0EIAABCEwjAenJoyMVQFqly8t/Vc/DVv5B75BGvGSZ99hyefLoepbFJi1pCvaUCAIa4Yuv2aS/cQ4D8XBVHsa5wyYP5akdRwMvX1wWzPj4iDTieWkEN0b8m/TlPJt0sA0EIAABCEwDAb56tKp0fPHHeh+uNOJSq7xjdweSutbVu2zx9KpvA+CcEE8r7TuPGFhtPtywMi1dLIcABCAAAQiME+CZ8iwr4Q1FRvsbl1HCAp7drsq7AE19DBD02x97FyIWlKQbyo8nHHrqoqBRZuGeAXyLPzVRrIAABCAAAQjEBXiWvfTKa2y/c+nJY+P71/p9dP4A68o0Up4mPgaoZUZA0SfeXdSoUMPMV+wekd3ytUXzwvYQgAAEINCiAsFEQLZXtyvrzaTnd2xXTQO7Zj4GcI3zWesg6ZUKeVgauaxaL2mc04vm6RqnXG1+2A8CEIAABFpNYGMfd24IZhcE9MmP1JuIh6K1zv+VcjbtMYAw4jvFyyfvrrW3gjSiu1i+Tn+9zw3SgwAEIACBaSzA88IXqGiuq/sc8hyEjLZMtwxCgiCAr8ybcVqKTrHLdzSqufU/7lg2BmdFgoD7x6WBBRCAAAQgAIE0AdeInxQIAHhAoLp3w+MZ6aQR9xYrR3MGBZLGuaNIubJG50s7B6nLNwZHF9vmz206UtPCCghAAAIQgEBUQPry87YVTLDds9KT3yCftoymU+vnYNY9+8cRRrzQ8KlsN16FP1nA5+Z63yFhZ/vgSH6x1vOA/SEAAQhAoEUEgqvvJwpUchvbC9Q4LXASr2vEiUXK0ejHAI7vbF+kPNyXP+m4al0mPHGYVTk8cW6teWF/CEAAAhBoIYEqG+JxIPBUXceQ33jFfZ1VZcdtARo8N4Br3I9Zl8WImxv1J1NZUnmN9MRD+WWRdzWqDEgXAhCAAASmowBXvJ68ML+CSWyo93I9u6C5/e4HpBEvW5aloVMEFxgqmbv9HdnIPw1pxFILk5fq/WimkceEtCEAAQhAYBII8FWma8RFFpXMuC6D9R6JThp5rX05GlfxSl/+t2U5Hmtf1P66Rp5G2wmUeITFRpYDaUMAAhCAwDQUCKanPcuy0tsUCPCt8npyuJ7z6QJluLSeeUfTkkZcblcO57zofo34bDtvg+gTuhH5I00IQAACEGgBAWnkydIIyzHpqx/xLo2ys7fz7XYV7+gjiacqcytbpKVVy/Jg1rxNgU5amVyvU9WSj82+0pMHpuU/ZrlnPwGRTb7YBgIQgAAEWkxAGvlxaURe74Cn6zLoTYKtNIKnq82tfHmbRlz18tj6lrPzPdeM5+6l/s59bTxcI76XwIlFEIAABCAAAXuBUm/pPa4R/5NW8QgjjrFPrdiW0nd+nZbv+OVyYbHU87d2+p3dx+czPiARRqzIT632LUp9nTNtyiON9GrPDSlAAAIQgEDLC+gFequk0QLr3fAvDi2N+IVdhTdaKfvx/Wv9zt0bbfIXRnyz1rxs9rcNSFwjFtmkh20gAAEIQAAC+QIbuwkeK43zKFeKwoieeo94Fy+ENOIemwqYtyn1l5zh4eEZ8TRq+c4Vu03+rnFELfnY7uv0OrvalEf64mLbNLEdBCAAAQi0uMDKlSs3933/1YODg1sMDQ1tuWbNmq1Wrlz55muuueYtq1evfuvy5cu3vf7663c869Kz3vPl876gli9f/s5rrrlmV34tX758t/B15ZVXvi98XXbZZXteddVVo6/LL798r2XLlu0dvPb52c9+tm/w2u/SSy/dP/66aMlF3ODtBZsKr2TcJxZeuNC5+OKLO9JeF1xwQUf4Wrx48f5Jr4ULF+7Pr0WLFu13/vnn73uIP2u5Tf6n9p56gO/7u4WvgYGBXfk1f/78dw4MDOzc3d29k+d5O3qet+3ChQvfOjAw8JazzjrrzQsWLNjK9/0t586duwXbz5kzZ/OsP8MCDSOXZqWDdRCAAAQgMA0EuNve7373u9euXLnyDVxh33LLLdusXbt2O66sb7rppp1vuummd61Zs+bda9as2X3FihV7rF69+oOrV6/ee9WqVfuuWLFi/xtuuOGAFStWdKS9rr322o6s19VXX92R91q2bFlH3uunP/1pR/R1+oWnH2NT+fI2h/ZXlqdV/OHysPLPej/33HM7oi/t69/mlaFk3EcGBgY6+GWMyX319PR05L16e3sP6Ovr27+3t3dfz/P27unp+WB3d/cep/Sdsn9eeUbXe86CafCnjUOAAAQg0HoCw8PDm61fv/71N95449Zcma9fv36nW2+9dZfBwcHd1q5d+/61a9fOvOmmm/YZHBzcf3BwsCPptXr16o68V1qlH12eVfmH6xoRAByz8Jh5VpWdEcNfXvTlk8OKPus9q/LnddHKf+F5Cw8qGfeZvDLM9rvW1jsASAsQzug9Y3ZeeXj9Yd4nfswBRE9Pzz59fX0z+/r63j9v3rzd+vr6dpk/f/5OZ5999nZ9fX1bL168+PVLlizZrPX+h+GIIQABCEygwPDw8Oa/+c1vtlq/fv22t99++85DQ0O73XrrrXvecccd+65bt67j9ttv7+D3rFdSxR8uy6v8eX20ok/7HFbyWe+NCAA+3n/IWpvKjq/AL1py0cFZFX+4rkgA8N2F3z3UJv/D/cMvbFYA8J2+72ibMn3SO2xBWhCRtJyDhe7u7r3nzZv3vt7e3l35cQU/puBHE/VuVzGB/+WQNQQgAIHmC/At+qGhoe25kl+3bt1eQ0NDB3AFn/fKqvzDdWGFH3+fygHAwqULlWuk1bTAn5z/yaVLly5NffYfVv78XiQAOGngpBNsKtvP+Z/7VrMCgO/1fM+1KdNRfUd9P6mir2YZP47o7e3dq6+v792+72/f3d392ub/D0KOEIAABKaQAF85caV/55137p1X0aetDyv5rPd4xR9+n0wBAN8hKNIG4ITzTviWTUXHIxWetvi0YxoRAHx+4POn2ZRhzvw5RzQrAOju67Z6LHG8Of6kaip72324XQIHA21tbXXtdTGF/nujqBCAAATSBfjZfVrFbrs8q+IP14UVfvx9KgcAh84/9Eqbynd2/+x1XPnXKwCItgM4pv+Y7+eVoezre8LKn9/r1QgwqyLWHq3PK9fXur92ZFYa9VrHvRrS/wdgDQQgAIEWFeA7AGvWrNlhaGjow7YVfny7sJLPeo9X/OH3qRwAzOovp448GK38Tlx44kmNCgBOnH/iF8q+Xq9M6U/klx5QRv2ZewV0+eXbK+aQa47wj/C/3f/tQ5odAJzQd8IXlVEPRh3Cz66RL3KXyLm9c0W9KvmUdD6MOwAt+sOGw4YABIoJrFy58nVhG4A77rij5doA2DwC4EcEYTfAIwaOWCKMkzkR0cf92TeGlX8j7gBEewREP0cr/PjnZtwBCCvkM82Z5TPmndEVvvjxQLiunu9hGwDuRYA2AMX+32NrCEAAAuME+O4AD7gzODj4lsHBwR2Hhobedeutt76XGwjedttt+4V3ArKu/MN14RV//H2q3QGIBgAcCPg/9rtOWXzKl45ddOzZRw4cee7hA4f/5LD+T1xx2PxDl3124LN95y09T05EAMDBQLziD783MwCoZyXf19e337x58z50zjnnvLe7u/td8+bN22Hu3LnoBTDufy4WQAACEGiwAPfNjo4DsG7durdP5XEAit4BCO8EhO/Rij7tc7S1f9rnvF4A0TYA0av++Oewwo+/T6YAAOMANPg/KZKHAAQgMNEC0ZEAh4aG3lRkJMBVq1Z9bOXKle1pYwDw8qz+/+G6vHEAEAC8MkKgzZW753ntPT09H4uOBMiD+fT09OzO3fH4Kr2np2dn7q/Pg/r09PRs4/v+m3p7e9/QPdJNj/8mJvrvEvlDAAIQgMAUEeC7DjwfALdXWLZsWepcAFddddVO119//c7XXXfdLklzASxfvvy94VwA4TwA/J42F8AVV1yROBdAbG6AA9Ou/MPlaVf90eV8hX/RRRcdmDQPQLiM5wI4//zzR+cC4PkAFixYsM/AwMDe/Fq0aNFeAwMDe4Yv3/ffx6+BgYH3hvMA8Hs4FwCPvMdzAfDoe1lzASxatOh1bI9R+abIfxYUEwIQgAAEJo8AV56oQCfP+UBJIAABCEAAAhCAAAQgAAEIQAACEIAABCAAAQhAAAIQgAAEIAABCEAAAhCAAAQgAAEIQAACEIAABCAAAQhAAAIQgAAEIAABCEAAAhCAAAQgAAEIQAACEIAABCAAAQhAAAIQgAAEIAABCEAAAhCAAAQgAAEIQAACEIAABCAAAQhAAAIQgAAEIAABCEAAAhCAAAQgAAEIQAACEIAABCAAAQhAAAIQgAAEIAABCEAAAhCAAAQgAAEIQAACEIAABCAAAQhAAAIQgAAEIAABCEAAAhCAAAQgAAEIQAACEIAABCAAAQhAAAIQgAAEIACBiRZob2/f3HXdDyiljtVa/5CIfkJEq4hoKHjdoJS6jIgWE1G31vrzSqmPSilfO9FlR/4QgAAEIAABCBQQqFQqmymlSGt9ARH9nYiGq3g9TURXEdGnOzs7X18ge2wKAQhAAAIQgEAzBSqVymuI6ItEdF8VFX5WkPCwUuo/R+4gbNXM40FeEIAABCAAAQjkCBBRJxH9oc4Vfzwo+ItS6uM5RcFqCEAAAhCAAAQaLXDccce9Wik1j4g2NLjyjwYDA+Vy+SCl1N6lUmmm1npPbjfAjx2UUkdqrb+stZ5DROdw24JyufzhRjsgfQhAAAIQgEDLCPAteSK6vkDF/wgRXaSU+m++pa+UWjDyjP/3BfaPBgHWn5VSHS1zUnIONAjYPhc0xlyute7hACpnN6yGAAQgAAEIbBSoVCpvIKI1lpX3E0R0HLcRiPvNmTPnVVprTUQPWqZlXfGH6aGC26iutd6OiG4PXSLvLxHRSfFzg+8QgAAEIACBuMAMIrokUoFkVcp/L5fL/xxPIP5dKbUjEf3RMs2s/Matc11353h+rfade2ZYBGyfaDUXHC8EIAABCBQQ4GfsBSpqaZu01vpDRPR8gbTHVfZJ+6L3QFsbEX0iySa27H5+RGB7vrAdBCAAAQi0kABfTY/cLn4qVnGkVcTLi9IQ0YBl2ml5xpe/0NbWNqNoOabb9kqpiy1d959ux47jgQAEIACBOggQ0ULLioQrYuur/7Boruv+U4H0w8p+PRFdrZS6iYju4nEIlFKPBen8NUy7ld9HzsUtlq7/2spOOHYIQAACEEgQUEq9g4hesKxInqh2OF+l1C8s8xgNAHiI4YTiji6SUr4xbV0rLR8Zp2HQ0hQBQCv9YeBYIQABCNgIKKW+aVmJcMV8rU2aSdsQ0ZkF8uG8Lk9KB8teEbB9tKKUan9lL3yCAAQgAAEItI02JOPb6+Ft97z3c6pFs2ywFs3/zmrzapX9tNYH5J07rfWfkrpqtooRjhMCEIAABBIEgj7k1qP9aa1PSEjGahHPHphXWcXW32OVcLyjAGAAABc9SURBVItvFAz+Ew2c4p/RDbDF/0Zw+BCAAATGCfAwu7FKN155jPnOQ/KOS8RyAT+3L5IXEf3FMumW3iwYvOnqBFtu1/GllsbBwUMAAhCAQLKA1vrfEiqOMZV+bP0hySnlL+XRAYvMLaC1/m1+qtgiFODeGTx/A3cN1FqfwT0vwnV4hwAEIAABCIwRIKK5sQo+q/IfVkrNGpNAwS8FxhrgvNYWTB6bQwACEIAABCBgI0BE84sEACOT/HzaJt20bYiIJw7KDDIi669OS2e6LCeif9Bav79cLr9v1qxZ206F4+IRGEul0i7BbI17ENE7K5XKFhNR9vb29tdxWUql0nu4Oys/DpmIcnCeXV1dbyai3RzHeUsjytDZ2fl6Pk4p5U5o1NkIYaQJgRYTqCIAOL4WIiJ6NlLB5wUCi2zyIqKP8DTCaa+ilYJSap+0tHj5rFmztgnLxQ0btdaVtFfSbfig5T4HXg8nWPDkST4fU5hH3rtS6oNZ5dVa75CXRtZ6rnCI6CtEtIyI/pxQZj6PLxPR70YqwB8R0eGVSuVNWWlWu669vX3zoN3KomDGyaQGrDwTJc9OeSgHCNXkxX8zaabxSai01rOD8RjYIPybvo+IvhHNm/dLSzP+dxXsN0NrfXAwu2bSpFrrefZNzIkRVcZnCEDAWkAp9Z3Ij1b445X1/l3rxGMb8nj0BfP6SiyJxK9a6zuy0uUr7MQdUxYS0S+z0hv5se8MdyWis3K2/Wq4LV+9aa2vydk+tN+gtb6Ae2mE+6e989gMOWl+Jm3frOXlcnlfIloeVO5huWzfeVjpc8rl8tuz8rBdxxU/ER3Po0HmHGu8fI9ye4iiA0fxHZm0fPgccrk5uOBAI207IroxenyBZbx8m76XSiUn3J6DOt4/I+1N+xHRMxwIVBvshHniHQIQaDEBpdSJlj8y4Q9O1YPzcGVQJK9SqTTT5nRMhQCAW+MXGG0xtOb3e5PuIkRd6h0A8B0DpdRlRc5VxrZP85TEXIFHy1zkM99WT5nuOOqU9/lvfGfCNl+LAICvzpdmHPcwT64Vzc8mAAim0T6jyqDrhkbdeYkeBz5DAALTRICvOrJ+xBLW3VftofNtzoT00n64/2w72c8kDwBOth2tL8Pmoa6urneludczAOBGngXbaaSdv/jyG7i9Q9oxpC3nuy1E9GiGTTyfvO+Lbdor5AUA/Hghp0wb+NFJ9LjyAoCR+S4OIaKf5aSbd3y3c1uBaL74DAEIQCBRgH8sik7VW/SWepgxXwna/rgppb4V7pf3PskDAL4CzvvRtlk/mHYVXa8AILjFHn2ObVOuItvcU+R5tVLq2JHn6C/WyS9azpV5U0lnBQBEtIrvzGSViyewiv/d5gUAkYmuomUt/HnksZEXzxvfIQABCCQKEBFfnRX5oTk9MaGchQXyebJIi/hJHgAUcc3cVin1uSTiegQAWuvPF/wbyCxrWlo8toPNueXeJlXeBrcql9Z6dVZL+pwAwCZI2tT2IzxneQFAmlkVy7lh5F5hvniHAAQgkCqgtT6s4I/Mw0UbVXV1df2j7dWc1vqU1MImrGiVAICfgyccflutAQC3NLc9NwX/TtIq4xX8rDvpWHgZ94Cosr1EWn5py/20MuQEAGnphcs3cJfEeNpNDAC4HOfG88d3CEAAAuMEghbWmbc0E374zxyXUMaCoCtT+AOZ9X5z2q3utOSnaADwl2B65CLjIrDb7nGHWgKAUqm0NRH9NeH8Zp2jmtfxHYf4cfB3vjVPRH9sVnnSBrYqGADwY4pLgu6bv0sbwKqGAOCh4JGD7ZTdfH6erXba7qTzgmUQgMA0FrBo1BT/0efbjGUbEu4jb3k79wGl1I42aUa3mUIBAF8Z9o9079s1Uv4ZRMQTMtxtWekdE9l39GMtAQARGct8+fz/bzDUsMs9E7jFOd/O56BEKfVx7rZIRE/mpPcct+9Ia4g3EgD8MGf/6N/hILe0L5VK+2mt3823vYNynGdRjjAdDja2jJsWCACeiI7ZwHc2kq7+Of2CAQAHFWdFG39yOYPxGP5uY1Qulz8cPy58hwAEIJAoQETn2/ywRLZ5PphsZkZigm1t3FWKny3bDP7zQLlc/ueUdDIXT5EAgJ8bp46iGIwilzf+AHctG9fAq9oAQCn1/4jopcj5DCvF+DtfeZ5m07qcA7i02Qm5/zznmXYyueK0vPV/Pw8GlJYOL+eujMFVefxYkr6fFE+rQABwXHzftO8FAoBnomMCxNMLukXm9oyoZebOeJ74DgEITHMBvqIjovUWFUL8R/TX3MKff7R4ABOttVBKfY2I7rRJixuG5fV1z6KfIgHAaVnHwOuI6MA8L+6fH0+n2gDA8ur/CW4jEM8z73tw/sO/k/u5i1vePpbzUtxdYHAhvrvygzxTIrqfB6mKls8mANBa/ymrLUM0Pf5cIABIDRTDNIM7AaFv2nuhx3Rh2niHAARaVIBHnrMYCS/tB6ea5ZcUbVAYPzVTIAC4O6vFeeR4uMLKexSwKrL96MdqAoBgCuFncipHvmsh4/nZfufb80qp/7a5cxCMEsmD9WT9DT0Ze3xiVZS8AXuCPLuiidkEABxcRPfJ+2wZAFyflw6v5/kG8u6sJd0tskkb20AAAi0sEFQOWUOcZv1I2667L60BVlH6yR4AFLkVyz/aWZUgH2vcp5oAIGiXkXmutNbfi+fVqO/BgD955UlsOJhXpqCyTJp3IZrfmFbzlgFA7l2NaNlsAoCsW//RtPhzMB5B9Bjiny+K74PvEIAABKwEeNIabtGcVSFVse4epdT/r+e45ZM8AHhZSvlWK/CNz66/nmXKPQfiaVUZAHBDuXiFEf3+OPcQiOfVqO8Wc1I8UEurdp4PIOd4H4oem00AkNWeIZpW+NkiAPhbkUcKWuu8c/jjMG+8QwACEKhKgFtXE9GtOT+g0coj/vlepVSf1vpjRX7gbAs7mQOApAo767jyrsyT0qsmACCiX+Wcz3OyylnvdUR0XVZ5ar0bwVMWZ6XP66JtC2wCgKIBiUUAcEkRV631nJxjQgBQBBTbQgAC4wWCiWziQ7LylKtzg+mEl3AlFMx0t4S7uo08nzyZu2TFx0Mfn3rtS4jotqwfwqJDF+e1gYg2irOYDbDQ5EkcJGUdSz0CgGAWu/j5HBO0KaXc2s+MfQp5ff/rUR5utJdju+mY8wIAHrbX/ug2bpkXABQNcvhOWtbxEBECgKInCdtDAAIbBYKGWUn9xFdwt7XJ4sTjrmf9EDYgADggPHaLAMCE29q8c9/trGOpRwAQjMo4psKP59nM2/886VNed8R6BJIjd7KujB9n9DvPPRCeo7wAgIjuCbe1fc8LALhlv21avJ1S6rPR8id8RgBQBBTbQgACGwWChlPXJ/yo3DvZphwloqRybqrg6h0AKKU+Gv6dWAQA/xVua/Outd4zwXzTsdQjAGCPrDx4ciibstZrGx4UKKc8w2kDBxUpAxEtzsln03gAFgHAL4vkzdvmBQBa6yOKpKmU+lTO8SAAKAKKbSEAgdFBVHhUtcTuaPE5zieDFxFdkfVDqJTau0g5eVyCrPSiI6zlBQD8nLZI3jwYUlbe9QgAgrH2NwUVCfk9WKTMtW4bjD+RVZ6XbaeGziqLxbgHp4b7WwQAifMyhPsnvecFAET0iaT90pbxI7aEcxd1RACQhoflEIDAeIFgYpisUcYOHL/XxC6xGPFt/yIlJKL7sn5YebCjML28AGBkkp1vhNvavHM/95y8a+4FwOXPyoOInrYpa7224cZ0OeXhOwBvqjU/fiaek88XwzwsAoBbwm1t3/MCAK31bNu0eDuttc45HgQARUCxLQRaWSCYFTCvcdihk80oGIM+euUz5jOPTFikzET0YNYPa3TUwrwAQGv99SJ5B8Phjil/tCz1uAPA48tH00z6bDN4T5HjytuWg46kcoTLeKz/vDTy1vMUwGF6Se/RW/B5AUDahD9ZZcgLAPKGN46nzX/XSccRWYYAII6G7xCAwHiBYFKXvJHhuGJa1+zKYXxpxy4JeiKkVppFr6yI6PHIj2hSuv8QliAvAFBKnRhua/PejACARyXMm5yJx4CwKW+9thm5/c3DSSdZjy5TSh1ZS15Bg9bMICP6qCgvAOBusUXLkxcAFA1UEQAUPQPYHgIQSBTgiirrBzi2jm+Rn8o/QPxDqZTao1QqzeTGceVy+SDussX92YM7CscR0XF8JcxdA4no20R0JhGdE0yf6nN3Qn5WzmXQWh/FDeHiY7MnFjpYqJQ6O1a+MRVJkUo4aJDGQ+COSSPyfUN0uuK8AGAkmPhqVtnj65oRAHCeFhXud+Jla+R3i+F6F9eSPwc0kXOYdG5fjga2FgHAUNHy5AUARUYB5LwRABQ9A9geAhBIFCCin+X8QCb9aDZyGc8guIoDgrxRA2MTzySVaWHiQScs5GAmx+Hh6G5TOAAYyDlOnoN+3DS50WOv52et9b/llOdZvktVbZ4jPR8uzUl/zBU9AoBqpbEfBCAw5QT42XLOD2RSxdqsZY9w74O0UQSDOw2pZUl6bp52gpRSn8txGNP4awoHAF05x8meuTMYpjnycr6i1lpvlbVNuC6v90NQ1qpGJ9Ra/0veIw+l1DfDsvA7AoCoBj5DAALTWiBvJDaLyiK1Aq7jvldEb9OGJ8Tiqn1YKdUebp/2XqlUNsvrAsgNDqP7T9UAIHjU8fecc/OSUqojery2n4OW/Tw65G/5/NjsNzJl8F055Xk5OgqjTZrBeBZ/yEl3AxHtFk0PAUBUA58hAIFpLZA3/G3OD2gzKv/RPHi4Ya6ooyeDn8kT0VM5ZbyNZzmM7hf/rLX+j5w0uAybBovh/adqAMBlH7k6/6HF8T7F3c3iVlnfZ82atU1sbAZ+nHNc1j68joiOtygPTwls1UAxaNh6p0WaV8XLhgAgLoLvEIDAtBUYuQL6kcUPZdMq+qyyJHWtI6KfZO0TrFuR9ByZAwpu1Gix/7Druh+I/hFM8QBgh7zud4HJSzxN8ezZs7ePHnv8c3DV/+mMbpQXZj0S4DYHRPQXi/PwAhH9IG046uBOzlFE9FeLtPhvetzYFggA4mcX3yEAgWkrMHL79RDLH8vJEAQ8HL+aL1B+vqJdyr0RtNanEBE3hrvX8tjvjo9IN5UDAP5jJqLTLY+dzztfyS8PGl0ezrfjg/YXX+FhdnmCHIu0fpM1NLPF+PbRv7/n+E4DT/XLbUS4zQIRnUtEf7MoR5jOz5L+UyMASFLBMghAYFoKcAM7pdTPC/xwhj+gE/LOrcajJyK4+swcwa/WY4tOFhPmPdUDgMDtl7XaFNz/qYy7CTOCWSWb8Xf1BE8THJ7L6DsCgKgGPkMAAtNegG/PEtGygj/mzfihTspjVfyEFLx6TEoza9n/cGUZz3OqBwB8PEELfK4Ms46/buu4rUXcMfp95HHDdkR0f4PLs4HH0o/mG/2MACCqgc8QgEDLCASTjAw1+Ae41grl2XiFHDzLX9mAcnPr848l/QFMhwCAj4uIJM8C2AC7+HnmMRlmJFlGlwWzImbNSRFPt+j3zC6OCACiZwOfIQCBlhMIpo0dzKkUeNhcnjlwkB8h8Ct4xr6EiC4PlxHRzUFXw8zhWHPyGvMjHx26NTw5fGt5pMX5A0XSyds2/rghzIvfp0sAEBxLmYhshoMecx7y/CLr56eN5RA1DT8T0V5E9Ehk/2rzje+XO0ETAoDwLOAdAhBoOQG+DZs0PCsPqqOU+vdSqbQf97GuBqZUKm3N/cs5nZErz1tq+IFXSfnzxDFa6z/VkG5YYfBt4m8l5REum04BAB8TD+lcoFFk6JT3/rxS6guhWZH3YHbEerVReJwbLdrkjwDARgnbQAAC006AZ0UjoodjFeiLWaPx1YIQXOmtj+WXV6nw4D6pE8SUy+W35429npPfI0qpT+Ud13QLAPh4ebAlIvp+ne4GLK91Jj8eCjqYP6LqRxRKqct4FsS88xmuRwAQSuAdAhBoCQEp5U6xAVzCSpgnxzmkkQhBpXNDTqUclmf0XWt9Ql6ZgkmJMqeBjeX5V63192zvbgRj2HN7ibTX4XlljK53XfdtGWlxHj+Kbs+ftdbnEdHvM15VnTsuC98BIaJ7YkZjzkPCOn4sdH65XP5wvKy1fO/q6vpHpdQ8IsobwTAsHz/OuEgptU/RfIOGkZxP2mtl0TS11j1Z57ZoObldSsY5/z1bFS0jtocABFpPYAaP1JbRjzuzwVS9uFzX/Sci4r7d4Q945juP22+bd6lU2mXkx5IHqekmokuI6Hql1E1EdBVXVjy4EI8wF53pzzbtVtgueKxyNA/AwxPrBF1GOSC5MTCcHwRD+xeZybEau6Dr4oHByI1cwXP31XVEdC0HSDyz5EhFq6SUb6wmfewDAQhAoCUElFI7cmWYVunyWO48f3yzMLjhYFpZEpZ/olnlQj4QgAAEIACBaSMgpXxr0II/9Upba310Mw+YiHhUudTyxNbt38yyIS8IQAACEIDAtBAIbodnVbbPNfs2Kk88E6vkU8vHPRWmxYnAQUAAAhCAAASaJcBj6Qdju6dWsER0Q7PKE+YTNGzKKlO47uFwH7xDAAIQgAAEIGApoJSivCvtiWhFTEQfyStXsP4Sy0PFZhCAAAQgAAEIhAJB967wajrxnVtTh9s3610p5VoGAP/arDIhHwhAAAIQgMC0ESAi36KiPbPZBxx0JUsMSCLlfQHP/5t9ZpAfBCAAAQhMCwEiujBSoSZWuCPDsF7Q7IPN6pIYKS9u/zf7xCA/CEAAAhCYHgJEZCIValoAcEczj1ZrvQMR8aiDieUJl/M8BM0sF/KCAAQgAAEITBsBIjo1rFBz3ndr1kET0X/llIUDgyuaVR7kAwEIQAACEJh2AgUa253VjIMfGcJ1N4v56J/jMdqbUR7kAQEIQAACEJiWAsHkO89aXHG/qJT6YCMRKpXKFkQ0mFcWHq+/keVA2hCAAAQgAIGWEOBGfnmVbrD+V7Nmzdq2ESg8z0AwmUzmc3+t9TWVSmWzRpQBaUIAAhCAAARaSsB13Q/YNLoLgoD/4YmD6gnEXfm4YrcIQtY3e0jieh4n0oIABCAAAQhMOgGb3gCRCvphpdRn29raZtR6IFrr2UT0UCTttDsAd82ePXv7WvPD/hCAAAQgAAEIRASCOQF+aVERRyvoW7TWRxHRlpGkcj/yPPFKqU8R0e2W+d08a9asbXITxgYQgAAEIAABCBQXcF13ZyL6o2WlvCkQUEo9ppS6jIi+obU+uFwuv48fE3BQwbf3iWh3pVQ7EX2ViC4nokcL5NHN7QOKHw32gAAEIAABCEDAWkAp9Q6t9R0FKuhNgUCd97lXa12yLjg2hAAEIAABCECgNgG+pU9E3QUaBtYtCOC7CUR0etHHCrUdMfaGAAQgAAEIQGCTgNb6Q5at8+sRANyvlPpmV1fXmzcVAB8gAAEIQAACEJg4Aa31+7XWPUT01zrf5uf0zh0Z/Kdzzpw5r5q4I0TOEIAABCAAAQikCnAlTUQfIaIvEdEiIrpzZC6BF2yCguDW/m1KqQVa6xO01nvWoxthamGxAgIQgAAEIACBxglwC30p5VtHRhPctVQqzSyXyweVSiWH3/kRAo/Zz70BGlcCpAwBCEAAAhCAAAQgAAEIQAACEIAABCAAAQhAAAIQgAAEIAABCEAAAhCAAAQgAAEIQAACEIAABCAAAQhAAAIQgAAEIAABCEAAAhCAAAQgAAEIQAACEIAABCAAAQhAAAIQgAAEIAABCEAAAhCAAAQgAAEIQAACEIAABCAAAQhAAAIQgAAEIAABCEAAAhCAAAQgAAEIQAACEIAABCAAAQhAAAIQgAAEIAABCEAAAhCAAAQgAAEIQAACEIAABCAAAQhAAAIQgAAEIAABCEAAAhCAAAQgAAEIQAACEIAABCAAAQhAAAIQgAAEIAABCLScwP8B+2rzPWKlwJ8AAAAASUVORK5CYII=;" vertex="1" parent="1">
                    <mxGeometry x="417.5" y="412.5" width="235" height="117.5" as="geometry"/>
                </mxCell>
            </root>
        </mxGraphModel>
    </diagram>
</mxfile>